%TF.GenerationSoftware,KiCad,Pcbnew,(6.0.0-0)*%
%TF.CreationDate,2023-01-16T12:19:11+01:00*%
%TF.ProjectId,core-v-mini-mcu-spiboot-fpga,636f7265-2d76-42d6-9d69-6e692d6d6375,rev?*%
%TF.SameCoordinates,Original*%
%TF.FileFunction,Soldermask,Bot*%
%TF.FilePolarity,Negative*%
%FSLAX46Y46*%
G04 Gerber Fmt 4.6, Leading zero omitted, Abs format (unit mm)*
G04 Created by KiCad (PCBNEW (6.0.0-0)) date 2023-01-16 12:19:11*
%MOMM*%
%LPD*%
G01*
G04 APERTURE LIST*
G04 Aperture macros list*
%AMHorizOval*
0 Thick line with rounded ends*
0 $1 width*
0 $2 $3 position (X,Y) of the first rounded end (center of the circle)*
0 $4 $5 position (X,Y) of the second rounded end (center of the circle)*
0 Add line between two ends*
20,1,$1,$2,$3,$4,$5,0*
0 Add two circle primitives to create the rounded ends*
1,1,$1,$2,$3*
1,1,$1,$4,$5*%
G04 Aperture macros list end*
%ADD10O,1.700000X1.700000*%
%ADD11R,1.700000X1.700000*%
%ADD12HorizOval,1.200000X-0.247487X-0.247487X0.247487X0.247487X0*%
%ADD13HorizOval,1.200000X0.247487X0.247487X-0.247487X-0.247487X0*%
%ADD14C,1.450000*%
G04 APERTURE END LIST*
D10*
%TO.C,J2*%
X112450000Y-104120000D03*
X112450000Y-106660000D03*
D11*
X112450000Y-109200000D03*
%TD*%
D10*
%TO.C,J1*%
X85852000Y-109205000D03*
X85852000Y-106665000D03*
X88392000Y-109205000D03*
X88392000Y-106665000D03*
X90932000Y-109205000D03*
X90932000Y-106665000D03*
X93472000Y-109205000D03*
X93472000Y-106665000D03*
X96012000Y-109205000D03*
X96012000Y-106665000D03*
X98552000Y-109205000D03*
X98552000Y-106665000D03*
X101092000Y-109205000D03*
X101092000Y-106665000D03*
X103632000Y-109205000D03*
X103632000Y-106665000D03*
X106172000Y-109205000D03*
X106172000Y-106665000D03*
X108712000Y-109205000D03*
D11*
X108712000Y-106665000D03*
%TD*%
%TO.C,JSPICS1*%
X88975000Y-73750000D03*
D10*
X91515000Y-73750000D03*
%TD*%
D11*
%TO.C,PMOD1*%
X81280000Y-109220000D03*
D10*
X78740000Y-109220000D03*
X81280000Y-106680000D03*
X78740000Y-106680000D03*
X81280000Y-104140000D03*
X78740000Y-104140000D03*
X81280000Y-101600000D03*
X78740000Y-101600000D03*
X81280000Y-99060000D03*
X78740000Y-99060000D03*
X81280000Y-96520000D03*
X78740000Y-96520000D03*
%TD*%
D12*
%TO.C,P1*%
X111078217Y-79425514D03*
D13*
X106128470Y-74475767D03*
D14*
X108461922Y-80627596D03*
X104926388Y-77092062D03*
%TD*%
D11*
%TO.C,PMOD2*%
X81280000Y-86360000D03*
D10*
X78740000Y-86360000D03*
X81280000Y-83820000D03*
X78740000Y-83820000D03*
X81280000Y-81280000D03*
X78740000Y-81280000D03*
X81280000Y-78740000D03*
X78740000Y-78740000D03*
X81280000Y-76200000D03*
X78740000Y-76200000D03*
X81280000Y-73660000D03*
X78740000Y-73660000D03*
%TD*%
M02*
