%TF.GenerationSoftware,KiCad,Pcbnew,(6.0.0-0)*%
%TF.CreationDate,2023-01-16T12:19:11+01:00*%
%TF.ProjectId,core-v-mini-mcu-spiboot-fpga,636f7265-2d76-42d6-9d69-6e692d6d6375,rev?*%
%TF.SameCoordinates,Original*%
%TF.FileFunction,Copper,L4,Bot*%
%TF.FilePolarity,Positive*%
%FSLAX46Y46*%
G04 Gerber Fmt 4.6, Leading zero omitted, Abs format (unit mm)*
G04 Created by KiCad (PCBNEW (6.0.0-0)) date 2023-01-16 12:19:11*
%MOMM*%
%LPD*%
G01*
G04 APERTURE LIST*
G04 Aperture macros list*
%AMHorizOval*
0 Thick line with rounded ends*
0 $1 width*
0 $2 $3 position (X,Y) of the first rounded end (center of the circle)*
0 $4 $5 position (X,Y) of the second rounded end (center of the circle)*
0 Add line between two ends*
20,1,$1,$2,$3,$4,$5,0*
0 Add two circle primitives to create the rounded ends*
1,1,$1,$2,$3*
1,1,$1,$4,$5*%
G04 Aperture macros list end*
%TA.AperFunction,ComponentPad*%
%ADD10O,1.700000X1.700000*%
%TD*%
%TA.AperFunction,ComponentPad*%
%ADD11R,1.700000X1.700000*%
%TD*%
%TA.AperFunction,ComponentPad*%
%ADD12HorizOval,1.200000X-0.247487X-0.247487X0.247487X0.247487X0*%
%TD*%
%TA.AperFunction,ComponentPad*%
%ADD13HorizOval,1.200000X0.247487X0.247487X-0.247487X-0.247487X0*%
%TD*%
%TA.AperFunction,ComponentPad*%
%ADD14C,1.450000*%
%TD*%
%TA.AperFunction,ViaPad*%
%ADD15C,0.800000*%
%TD*%
%TA.AperFunction,ViaPad*%
%ADD16C,0.600000*%
%TD*%
%TA.AperFunction,Conductor*%
%ADD17C,0.400000*%
%TD*%
%TA.AperFunction,Conductor*%
%ADD18C,0.250000*%
%TD*%
G04 APERTURE END LIST*
D10*
%TO.P,J2,3,Pin_3*%
%TO.N,/3V3_LDO*%
X112450000Y-104120000D03*
%TO.P,J2,2,Pin_2*%
%TO.N,+3V3*%
X112450000Y-106660000D03*
D11*
%TO.P,J2,1,Pin_1*%
%TO.N,/3V3_PMOD*%
X112450000Y-109200000D03*
%TD*%
D10*
%TO.P,J1,20,Pin_20*%
%TO.N,/RX1*%
X85852000Y-109205000D03*
%TO.P,J1,19,Pin_19*%
%TO.N,/TX1*%
X85852000Y-106665000D03*
%TO.P,J1,18,Pin_18*%
%TO.N,/A7*%
X88392000Y-109205000D03*
%TO.P,J1,17,Pin_17*%
%TO.N,/A6*%
X88392000Y-106665000D03*
%TO.P,J1,16,Pin_16*%
%TO.N,/B5*%
X90932000Y-109205000D03*
%TO.P,J1,15,Pin_15*%
%TO.N,/SPI_CS*%
X90932000Y-106665000D03*
%TO.P,J1,14,Pin_14*%
%TO.N,/C3*%
X93472000Y-109205000D03*
%TO.P,J1,13,Pin_13*%
%TO.N,/C2*%
X93472000Y-106665000D03*
%TO.P,J1,12,Pin_12*%
%TO.N,/C5*%
X96012000Y-109205000D03*
%TO.P,J1,11,Pin_11*%
%TO.N,/C4*%
X96012000Y-106665000D03*
%TO.P,J1,10,Pin_10*%
%TO.N,/C7*%
X98552000Y-109205000D03*
%TO.P,J1,9,Pin_9*%
%TO.N,/C6*%
X98552000Y-106665000D03*
%TO.P,J1,8,Pin_8*%
%TO.N,/D3*%
X101092000Y-109205000D03*
%TO.P,J1,7,Pin_7*%
%TO.N,/D2*%
X101092000Y-106665000D03*
%TO.P,J1,6,Pin_6*%
%TO.N,/D5*%
X103632000Y-109205000D03*
%TO.P,J1,5,Pin_5*%
%TO.N,/D4*%
X103632000Y-106665000D03*
%TO.P,J1,4,Pin_4*%
%TO.N,/D7*%
X106172000Y-109205000D03*
%TO.P,J1,3,Pin_3*%
%TO.N,/D6*%
X106172000Y-106665000D03*
%TO.P,J1,2,Pin_2*%
%TO.N,GND*%
X108712000Y-109205000D03*
D11*
%TO.P,J1,1,Pin_1*%
%TO.N,+3V3*%
X108712000Y-106665000D03*
%TD*%
%TO.P,JSPICS1,1,Pin_1*%
%TO.N,/FLASH_CS*%
X88975000Y-73750000D03*
D10*
%TO.P,JSPICS1,2,Pin_2*%
%TO.N,/iCE_SS_B*%
X91515000Y-73750000D03*
%TD*%
D11*
%TO.P,PMOD1,1,Pin_1*%
%TO.N,/3V3_PMOD*%
X81280000Y-109220000D03*
D10*
%TO.P,PMOD1,2,Pin_2*%
X78740000Y-109220000D03*
%TO.P,PMOD1,3,Pin_3*%
%TO.N,GND*%
X81280000Y-106680000D03*
%TO.P,PMOD1,4,Pin_4*%
X78740000Y-106680000D03*
%TO.P,PMOD1,5,Pin_5*%
%TO.N,/A5*%
X81280000Y-104140000D03*
%TO.P,PMOD1,6,Pin_6*%
%TO.N,/A4*%
X78740000Y-104140000D03*
%TO.P,PMOD1,7,Pin_7*%
%TO.N,/TMS*%
X81280000Y-101600000D03*
%TO.P,PMOD1,8,Pin_8*%
%TO.N,/TDO*%
X78740000Y-101600000D03*
%TO.P,PMOD1,9,Pin_9*%
%TO.N,/TDI*%
X81280000Y-99060000D03*
%TO.P,PMOD1,10,Pin_10*%
%TO.N,/TCK*%
X78740000Y-99060000D03*
%TO.P,PMOD1,11,Pin_11*%
%TO.N,/RX0*%
X81280000Y-96520000D03*
%TO.P,PMOD1,12,Pin_12*%
%TO.N,/TX0*%
X78740000Y-96520000D03*
%TD*%
D12*
%TO.P,P1,6,Shield*%
%TO.N,Net-(P1-Pad6)*%
X111078217Y-79425514D03*
D13*
X106128470Y-74475767D03*
D14*
X108461922Y-80627596D03*
X104926388Y-77092062D03*
%TD*%
D11*
%TO.P,PMOD2,1,Pin_1*%
%TO.N,/3V3_PMOD*%
X81280000Y-86360000D03*
D10*
%TO.P,PMOD2,2,Pin_2*%
X78740000Y-86360000D03*
%TO.P,PMOD2,3,Pin_3*%
%TO.N,GND*%
X81280000Y-83820000D03*
%TO.P,PMOD2,4,Pin_4*%
X78740000Y-83820000D03*
%TO.P,PMOD2,5,Pin_5*%
%TO.N,/iCE_CRESET*%
X81280000Y-81280000D03*
%TO.P,PMOD2,6,Pin_6*%
%TO.N,/iCE_CDONE*%
X78740000Y-81280000D03*
%TO.P,PMOD2,7,Pin_7*%
%TO.N,/FLASH_nHLD_nRST*%
X81280000Y-78740000D03*
%TO.P,PMOD2,8,Pin_8*%
%TO.N,/FLASH_nWP*%
X78740000Y-78740000D03*
%TO.P,PMOD2,9,Pin_9*%
%TO.N,/FLASH_MISO*%
X81280000Y-76200000D03*
%TO.P,PMOD2,10,Pin_10*%
%TO.N,/FLASH_MOSI*%
X78740000Y-76200000D03*
%TO.P,PMOD2,11,Pin_11*%
%TO.N,/FLASH_SCK*%
X81280000Y-73660000D03*
%TO.P,PMOD2,12,Pin_12*%
%TO.N,/FLASH_CS*%
X78740000Y-73660000D03*
%TD*%
D15*
%TO.N,GND*%
X87500000Y-84250000D03*
D16*
%TO.N,/RX1*%
X96750000Y-96500000D03*
%TO.N,/TX1*%
X95000000Y-97250000D03*
D15*
%TO.N,+3V3*%
X85200000Y-87350000D03*
D16*
%TO.N,/A4*%
X94500000Y-91450000D03*
%TO.N,/A5*%
X94700000Y-92500000D03*
D15*
%TO.N,GND*%
X110250000Y-104050000D03*
X111850000Y-96250000D03*
X113550000Y-97650000D03*
D16*
%TO.N,+5V*%
X111000000Y-97300000D03*
X109100000Y-97300000D03*
X110000000Y-80700000D03*
D15*
%TO.N,GND*%
X105250000Y-86450000D03*
X104150000Y-85350000D03*
X104250000Y-91000000D03*
X109600000Y-92100000D03*
X109500000Y-88850000D03*
%TO.N,/VCORE*%
X105500000Y-87450000D03*
X103250000Y-91050000D03*
%TO.N,+3V3*%
X106250000Y-83050000D03*
%TO.N,/VCORE*%
X101250000Y-92000000D03*
X92160180Y-94072795D03*
X97283226Y-87535325D03*
%TO.N,GND*%
X96598430Y-86807273D03*
X94750000Y-99500000D03*
X85000000Y-94500000D03*
X91739375Y-102464514D03*
X101000000Y-82750000D03*
X100250000Y-90500000D03*
X89500000Y-84250000D03*
X99750000Y-77000000D03*
X100750000Y-101500000D03*
X111888123Y-85778922D03*
X91626968Y-89610996D03*
X104500000Y-79000000D03*
X90500000Y-91500000D03*
X83500000Y-81000000D03*
X98275979Y-100447559D03*
%TO.N,+3V3*%
X96250000Y-75500000D03*
X95500000Y-80750000D03*
X97250000Y-99750000D03*
X90250000Y-83000000D03*
X98250000Y-94750000D03*
X89593557Y-99324675D03*
X87825500Y-100973019D03*
X87750000Y-89000000D03*
X104250000Y-81250000D03*
X92750000Y-84000000D03*
%TO.N,/A6*%
X95152962Y-93765920D03*
%TO.N,/A7*%
X95593575Y-94607000D03*
%TO.N,/B5*%
X94980361Y-96400725D03*
%TO.N,/iCE_SS_B*%
X88424500Y-88146516D03*
%TO.N,/TCK*%
X95896260Y-86004568D03*
%TO.N,/TDI*%
X95900892Y-88156858D03*
%TO.N,/TDO*%
X95255997Y-88853755D03*
%TO.N,/TMS*%
X94959746Y-89755858D03*
%TO.N,/FLASH_MOSI*%
X89025500Y-80500000D03*
X89215479Y-86721961D03*
%TO.N,/FLASH_nHLD_nRST*%
X88012299Y-78487701D03*
%TO.N,/SPI_CS*%
X94931511Y-95344608D03*
%TD*%
D17*
%TO.N,+5V*%
X110000000Y-80700000D02*
X111450000Y-80700000D01*
X111450000Y-80700000D02*
X113750000Y-83000000D01*
X113750000Y-83000000D02*
X113750000Y-96100000D01*
X113750000Y-96100000D02*
X112550000Y-97300000D01*
X112550000Y-97300000D02*
X111000000Y-97300000D01*
D18*
%TO.N,/TX1*%
X95000000Y-97250000D02*
X95000000Y-97500000D01*
X95000000Y-97500000D02*
X85852000Y-106648000D01*
X85852000Y-106648000D02*
X85852000Y-106665000D01*
%TO.N,/RX1*%
X96750000Y-96500000D02*
X86976511Y-106273489D01*
X86976511Y-106273489D02*
X86976511Y-108080489D01*
X86976511Y-108080489D02*
X85852000Y-109205000D01*
%TO.N,/A5*%
X83704629Y-104140000D02*
X94700000Y-93144629D01*
X81280000Y-104140000D02*
X83704629Y-104140000D01*
%TO.N,+3V3*%
X87945213Y-100973019D02*
X87825500Y-100973019D01*
%TO.N,/A5*%
X94700000Y-93144629D02*
X94700000Y-92500000D01*
%TO.N,+3V3*%
X89593557Y-99324675D02*
X87945213Y-100973019D01*
%TO.N,/iCE_SS_B*%
X88815524Y-88146516D02*
X88424500Y-88146516D01*
X91515000Y-85447040D02*
X88815524Y-88146516D01*
X91515000Y-73750000D02*
X91515000Y-85447040D01*
%TO.N,/A4*%
X84263466Y-102950000D02*
X94125499Y-93087967D01*
X94125499Y-93087967D02*
X94125499Y-91824501D01*
X94125499Y-91824501D02*
X94500000Y-91450000D01*
X79930000Y-102950000D02*
X84263466Y-102950000D01*
X78740000Y-104140000D02*
X79930000Y-102950000D01*
%TO.N,/TMS*%
X81280000Y-101600000D02*
X83270012Y-101600000D01*
X93326477Y-91246062D02*
X94816681Y-89755858D01*
X93326477Y-91543535D02*
X93326477Y-91246062D01*
%TO.N,/VCORE*%
X97283226Y-88557826D02*
X95115553Y-90725499D01*
X94412033Y-90725499D02*
X93725988Y-91411544D01*
X93725988Y-91411544D02*
X93725988Y-92506987D01*
%TO.N,/TMS*%
X83270012Y-101600000D02*
X93326477Y-91543535D01*
X94816681Y-89755858D02*
X94959746Y-89755858D01*
%TO.N,/VCORE*%
X93725988Y-92506987D02*
X92160180Y-94072795D01*
X95115553Y-90725499D02*
X94412033Y-90725499D01*
%TO.N,/TDO*%
X89819044Y-94450969D02*
X92123523Y-92146490D01*
X94284935Y-89477803D02*
X94284935Y-89476779D01*
%TO.N,/TDI*%
X87299037Y-94450979D02*
X89209326Y-94450978D01*
X91674012Y-91986292D02*
X91674012Y-91481850D01*
%TO.N,/TCK*%
X83490508Y-97694511D02*
X87133552Y-94051467D01*
%TO.N,/TDO*%
X81889532Y-100425489D02*
X87464523Y-94850498D01*
%TO.N,/TCK*%
X88973133Y-94051467D02*
X91224501Y-91800099D01*
%TO.N,/TDI*%
X82690012Y-99060000D02*
X87299037Y-94450978D01*
%TO.N,/TDO*%
X94271263Y-89508320D02*
X94271263Y-89491475D01*
%TO.N,/TDI*%
X89209326Y-94450978D02*
X91674012Y-91986292D01*
%TO.N,/TCK*%
X87133552Y-94051467D02*
X88973133Y-94051467D01*
%TO.N,/TDO*%
X78740000Y-101600000D02*
X79914511Y-100425489D01*
%TO.N,/TDI*%
X81280000Y-99060000D02*
X82690012Y-99060000D01*
X94999004Y-88156858D02*
X95900892Y-88156858D01*
%TO.N,/TDO*%
X87464523Y-94850498D02*
X89374813Y-94850497D01*
X94246306Y-89533277D02*
X94271263Y-89508320D01*
%TO.N,/TCK*%
X78740000Y-99060000D02*
X80105489Y-97694511D01*
%TO.N,/TDO*%
X94680047Y-89081667D02*
X94714786Y-89081667D01*
X94246306Y-89550147D02*
X94246306Y-89533277D01*
X94284935Y-89476779D02*
X94680047Y-89081667D01*
X92123523Y-92146490D02*
X92123523Y-91672930D01*
%TO.N,/TCK*%
X91224501Y-91800099D02*
X91224502Y-91300542D01*
X95896260Y-86628785D02*
X95896260Y-86004568D01*
%TO.N,/TDO*%
X92123523Y-91672930D02*
X94246306Y-89550147D01*
%TO.N,/TCK*%
X91224502Y-91300542D02*
X95896260Y-86628785D01*
%TO.N,/TDO*%
X94271263Y-89491475D02*
X94284935Y-89477803D01*
%TO.N,/TCK*%
X80105489Y-97694511D02*
X83490508Y-97694511D01*
%TO.N,/TDI*%
X91674012Y-91481850D02*
X94999004Y-88156858D01*
%TO.N,/TDO*%
X94942698Y-88853755D02*
X95255997Y-88853755D01*
X94714786Y-89081667D02*
X94942698Y-88853755D01*
X89374813Y-94850497D02*
X89774341Y-94450969D01*
X79914511Y-100425489D02*
X81889532Y-100425489D01*
X89774341Y-94450969D02*
X89819044Y-94450969D01*
D17*
%TO.N,/3V3_PMOD*%
X78740000Y-86360000D02*
X76800000Y-88300000D01*
X76800000Y-88300000D02*
X76800000Y-107280000D01*
X76800000Y-107280000D02*
X78740000Y-109220000D01*
X81280000Y-86360000D02*
X78740000Y-86360000D01*
X78740000Y-109220000D02*
X81280000Y-109220000D01*
X112450000Y-109200000D02*
X110900000Y-110750000D01*
X110900000Y-110750000D02*
X82810000Y-110750000D01*
X82810000Y-110750000D02*
X81280000Y-109220000D01*
%TO.N,+5V*%
X111000000Y-97300000D02*
X109100000Y-97300000D01*
%TO.N,/VCORE*%
X105500000Y-87450000D02*
X103250000Y-89700000D01*
X103250000Y-89700000D02*
X103250000Y-91050000D01*
D18*
X101250000Y-92000000D02*
X100725400Y-92000000D01*
X97283226Y-88557826D02*
X97283226Y-87535325D01*
X100725400Y-92000000D02*
X97283226Y-88557826D01*
%TO.N,/FLASH_MOSI*%
X89025500Y-78476302D02*
X89025500Y-80500000D01*
X88275499Y-81250001D02*
X88275499Y-85781981D01*
X78740000Y-76200000D02*
X80040000Y-77500000D01*
X89025500Y-80500000D02*
X88275499Y-81250001D01*
X88275499Y-85781981D02*
X89215479Y-86721961D01*
X88049198Y-77500000D02*
X89025500Y-78476302D01*
X80040000Y-77500000D02*
X88049198Y-77500000D01*
%TO.N,/FLASH_nHLD_nRST*%
X88000000Y-78500000D02*
X88012299Y-78487701D01*
X81520000Y-78500000D02*
X88000000Y-78500000D01*
X81280000Y-78740000D02*
X81520000Y-78500000D01*
%TD*%
%TA.AperFunction,Conductor*%
%TO.N,GND*%
G36*
X105305511Y-72028002D02*
G01*
X105326485Y-72044905D01*
X106212371Y-72930791D01*
X106246397Y-72993103D01*
X106241332Y-73063918D01*
X106198785Y-73120754D01*
X106149796Y-73143063D01*
X106039255Y-73166862D01*
X106033743Y-73169207D01*
X106033741Y-73169208D01*
X105986511Y-73189305D01*
X105844621Y-73249680D01*
X105669158Y-73367808D01*
X105665033Y-73371549D01*
X105059787Y-73976794D01*
X104958903Y-74098959D01*
X104857487Y-74284583D01*
X104814211Y-74419778D01*
X104799576Y-74465499D01*
X104793002Y-74486035D01*
X104792288Y-74491981D01*
X104770588Y-74672618D01*
X104767773Y-74696047D01*
X104768196Y-74702022D01*
X104768196Y-74702025D01*
X104779852Y-74866632D01*
X104782713Y-74907042D01*
X104784260Y-74912835D01*
X104784260Y-74912836D01*
X104834929Y-75102598D01*
X104837280Y-75111404D01*
X104839894Y-75116799D01*
X104839895Y-75116802D01*
X104883533Y-75206870D01*
X104929507Y-75301761D01*
X105056066Y-75471244D01*
X105212389Y-75613736D01*
X105217503Y-75616864D01*
X105217506Y-75616866D01*
X105277559Y-75653594D01*
X105325236Y-75706200D01*
X105336904Y-75776231D01*
X105308858Y-75841453D01*
X105250002Y-75881159D01*
X105179207Y-75882791D01*
X105146716Y-75874085D01*
X105146714Y-75874085D01*
X105141401Y-75872661D01*
X104926388Y-75853850D01*
X104711375Y-75872661D01*
X104706062Y-75874085D01*
X104706060Y-75874085D01*
X104508205Y-75927100D01*
X104508203Y-75927101D01*
X104502895Y-75928523D01*
X104497914Y-75930845D01*
X104497913Y-75930846D01*
X104312269Y-76017413D01*
X104312264Y-76017416D01*
X104307282Y-76019739D01*
X104130481Y-76143537D01*
X103977863Y-76296155D01*
X103854065Y-76472956D01*
X103851742Y-76477938D01*
X103851739Y-76477943D01*
X103791261Y-76607639D01*
X103762849Y-76668569D01*
X103761427Y-76673877D01*
X103761426Y-76673879D01*
X103709285Y-76868472D01*
X103706987Y-76877049D01*
X103688176Y-77092062D01*
X103706987Y-77307075D01*
X103708411Y-77312388D01*
X103708411Y-77312390D01*
X103754222Y-77483357D01*
X103762849Y-77515555D01*
X103765171Y-77520536D01*
X103765172Y-77520537D01*
X103851739Y-77706181D01*
X103851742Y-77706186D01*
X103854065Y-77711168D01*
X103923378Y-77810156D01*
X103972660Y-77880538D01*
X103977863Y-77887969D01*
X104130481Y-78040587D01*
X104134989Y-78043744D01*
X104134992Y-78043746D01*
X104175472Y-78072090D01*
X104307282Y-78164385D01*
X104312264Y-78166708D01*
X104312269Y-78166711D01*
X104497913Y-78253278D01*
X104502895Y-78255601D01*
X104508203Y-78257023D01*
X104508205Y-78257024D01*
X104706060Y-78310039D01*
X104706062Y-78310039D01*
X104711375Y-78311463D01*
X104926388Y-78330274D01*
X105141401Y-78311463D01*
X105146714Y-78310039D01*
X105146716Y-78310039D01*
X105344571Y-78257024D01*
X105344573Y-78257023D01*
X105349881Y-78255601D01*
X105354863Y-78253278D01*
X105540507Y-78166711D01*
X105540512Y-78166708D01*
X105545494Y-78164385D01*
X105677304Y-78072090D01*
X105717784Y-78043746D01*
X105717787Y-78043744D01*
X105722295Y-78040587D01*
X105874913Y-77887969D01*
X105880117Y-77880538D01*
X105929398Y-77810156D01*
X105998711Y-77711168D01*
X106001034Y-77706186D01*
X106001037Y-77706181D01*
X106087604Y-77520537D01*
X106087605Y-77520536D01*
X106089927Y-77515555D01*
X106098555Y-77483357D01*
X106144365Y-77312390D01*
X106144365Y-77312388D01*
X106145789Y-77307075D01*
X106164600Y-77092062D01*
X106145789Y-76877049D01*
X106143491Y-76868472D01*
X106091350Y-76673879D01*
X106091349Y-76673877D01*
X106089927Y-76668569D01*
X106061515Y-76607639D01*
X106001037Y-76477943D01*
X106001034Y-76477938D01*
X105998711Y-76472956D01*
X105874913Y-76296155D01*
X105722295Y-76143537D01*
X105717784Y-76140378D01*
X105572275Y-76038491D01*
X105527947Y-75983034D01*
X105520638Y-75912414D01*
X105552669Y-75849054D01*
X105613870Y-75813069D01*
X105665666Y-75811061D01*
X105799429Y-75833806D01*
X105878584Y-75832079D01*
X106004902Y-75829322D01*
X106004903Y-75829322D01*
X106010900Y-75829191D01*
X106016760Y-75827929D01*
X106016763Y-75827929D01*
X106154162Y-75798348D01*
X106217685Y-75784672D01*
X106223197Y-75782327D01*
X106223199Y-75782326D01*
X106389870Y-75711406D01*
X106412319Y-75701854D01*
X106587782Y-75583726D01*
X106591907Y-75579985D01*
X107197153Y-74974740D01*
X107202314Y-74968491D01*
X107253058Y-74907042D01*
X107298037Y-74852575D01*
X107399453Y-74666951D01*
X107463938Y-74465499D01*
X107464653Y-74459543D01*
X107465014Y-74457890D01*
X107499069Y-74395594D01*
X107561398Y-74361599D01*
X107632211Y-74366697D01*
X107677217Y-74395637D01*
X111162118Y-77880538D01*
X111196144Y-77942850D01*
X111191079Y-78013665D01*
X111148532Y-78070501D01*
X111099543Y-78092810D01*
X110989002Y-78116609D01*
X110983490Y-78118954D01*
X110983488Y-78118955D01*
X110947877Y-78134108D01*
X110794368Y-78199427D01*
X110618905Y-78317555D01*
X110614780Y-78321296D01*
X110009534Y-78926541D01*
X109908650Y-79048706D01*
X109807234Y-79234330D01*
X109770263Y-79349829D01*
X109749323Y-79415246D01*
X109742749Y-79435782D01*
X109739073Y-79466380D01*
X109720200Y-79623489D01*
X109717520Y-79645794D01*
X109717943Y-79651769D01*
X109717943Y-79651772D01*
X109719876Y-79679071D01*
X109728604Y-79802322D01*
X109731211Y-79839145D01*
X109716071Y-79908509D01*
X109665833Y-79958675D01*
X109660011Y-79961628D01*
X109653579Y-79963818D01*
X109647580Y-79967509D01*
X109641204Y-79970509D01*
X109640411Y-79968824D01*
X109580930Y-79985020D01*
X109513218Y-79963676D01*
X109480207Y-79931316D01*
X109413606Y-79836200D01*
X109413604Y-79836197D01*
X109410447Y-79831689D01*
X109257829Y-79679071D01*
X109081028Y-79555273D01*
X109076046Y-79552950D01*
X109076041Y-79552947D01*
X108890397Y-79466380D01*
X108890396Y-79466379D01*
X108885415Y-79464057D01*
X108880107Y-79462635D01*
X108880105Y-79462634D01*
X108682250Y-79409619D01*
X108682248Y-79409619D01*
X108676935Y-79408195D01*
X108461922Y-79389384D01*
X108246909Y-79408195D01*
X108241596Y-79409619D01*
X108241594Y-79409619D01*
X108043739Y-79462634D01*
X108043737Y-79462635D01*
X108038429Y-79464057D01*
X108033448Y-79466379D01*
X108033447Y-79466380D01*
X107847803Y-79552947D01*
X107847798Y-79552950D01*
X107842816Y-79555273D01*
X107666015Y-79679071D01*
X107513397Y-79831689D01*
X107510240Y-79836197D01*
X107510238Y-79836200D01*
X107465932Y-79899476D01*
X107389599Y-80008490D01*
X107387276Y-80013472D01*
X107387273Y-80013477D01*
X107321508Y-80154511D01*
X107298383Y-80204103D01*
X107296961Y-80209411D01*
X107296960Y-80209413D01*
X107251296Y-80379834D01*
X107242521Y-80412583D01*
X107223710Y-80627596D01*
X107242521Y-80842609D01*
X107243945Y-80847922D01*
X107243945Y-80847924D01*
X107276921Y-80970990D01*
X107298383Y-81051089D01*
X107300705Y-81056070D01*
X107300706Y-81056071D01*
X107387273Y-81241715D01*
X107387276Y-81241720D01*
X107389599Y-81246702D01*
X107408687Y-81273962D01*
X107508568Y-81416606D01*
X107513397Y-81423503D01*
X107666015Y-81576121D01*
X107670523Y-81579278D01*
X107670526Y-81579280D01*
X107739076Y-81627279D01*
X107842816Y-81699919D01*
X107847798Y-81702242D01*
X107847803Y-81702245D01*
X108028388Y-81786453D01*
X108038429Y-81791135D01*
X108043737Y-81792557D01*
X108043739Y-81792558D01*
X108241594Y-81845573D01*
X108241596Y-81845573D01*
X108246909Y-81846997D01*
X108461922Y-81865808D01*
X108676935Y-81846997D01*
X108682248Y-81845573D01*
X108682250Y-81845573D01*
X108880105Y-81792558D01*
X108880107Y-81792557D01*
X108885415Y-81791135D01*
X108895456Y-81786453D01*
X109076041Y-81702245D01*
X109076046Y-81702242D01*
X109081028Y-81699919D01*
X109184768Y-81627279D01*
X109253318Y-81579280D01*
X109253321Y-81579278D01*
X109257829Y-81576121D01*
X109410447Y-81423503D01*
X109413600Y-81419000D01*
X109415609Y-81416606D01*
X109474720Y-81377282D01*
X109545708Y-81376158D01*
X109581119Y-81392168D01*
X109633159Y-81426222D01*
X109639763Y-81428678D01*
X109639765Y-81428679D01*
X109796558Y-81486990D01*
X109796560Y-81486990D01*
X109803168Y-81489448D01*
X109886995Y-81500633D01*
X109975980Y-81512507D01*
X109975984Y-81512507D01*
X109982961Y-81513438D01*
X109989972Y-81512800D01*
X109989976Y-81512800D01*
X110132459Y-81499832D01*
X110163600Y-81496998D01*
X110170302Y-81494820D01*
X110170304Y-81494820D01*
X110329409Y-81443124D01*
X110329412Y-81443123D01*
X110336108Y-81440947D01*
X110360727Y-81426271D01*
X110425245Y-81408500D01*
X111104340Y-81408500D01*
X111172461Y-81428502D01*
X111193435Y-81445405D01*
X113004595Y-83256566D01*
X113038621Y-83318878D01*
X113041500Y-83345661D01*
X113041500Y-95754340D01*
X113021498Y-95822461D01*
X113004595Y-95843435D01*
X112293435Y-96554595D01*
X112231123Y-96588621D01*
X112204340Y-96591500D01*
X111429158Y-96591500D01*
X111369624Y-96574205D01*
X111368948Y-96575590D01*
X111362609Y-96572498D01*
X111356666Y-96568727D01*
X111342880Y-96563818D01*
X111192425Y-96510243D01*
X111192420Y-96510242D01*
X111185790Y-96507881D01*
X111178802Y-96507048D01*
X111178799Y-96507047D01*
X111055698Y-96492368D01*
X111005680Y-96486404D01*
X110998677Y-96487140D01*
X110998676Y-96487140D01*
X110832288Y-96504628D01*
X110832286Y-96504629D01*
X110825288Y-96505364D01*
X110772410Y-96523365D01*
X110660249Y-96561547D01*
X110660246Y-96561548D01*
X110653579Y-96563818D01*
X110647576Y-96567511D01*
X110647574Y-96567512D01*
X110638949Y-96572818D01*
X110572928Y-96591500D01*
X109529158Y-96591500D01*
X109469624Y-96574205D01*
X109468948Y-96575590D01*
X109462609Y-96572498D01*
X109456666Y-96568727D01*
X109442880Y-96563818D01*
X109292425Y-96510243D01*
X109292420Y-96510242D01*
X109285790Y-96507881D01*
X109278802Y-96507048D01*
X109278799Y-96507047D01*
X109155698Y-96492368D01*
X109105680Y-96486404D01*
X109098677Y-96487140D01*
X109098676Y-96487140D01*
X108932288Y-96504628D01*
X108932286Y-96504629D01*
X108925288Y-96505364D01*
X108753579Y-96563818D01*
X108734444Y-96575590D01*
X108605095Y-96655166D01*
X108605092Y-96655168D01*
X108599088Y-96658862D01*
X108594053Y-96663793D01*
X108594050Y-96663795D01*
X108477424Y-96778004D01*
X108469493Y-96785771D01*
X108371235Y-96938238D01*
X108368826Y-96944858D01*
X108368824Y-96944861D01*
X108321433Y-97075066D01*
X108309197Y-97108685D01*
X108286463Y-97288640D01*
X108304163Y-97469160D01*
X108361418Y-97641273D01*
X108365065Y-97647295D01*
X108365066Y-97647297D01*
X108447591Y-97783562D01*
X108455380Y-97796424D01*
X108581382Y-97926902D01*
X108624420Y-97955065D01*
X108726758Y-98022033D01*
X108733159Y-98026222D01*
X108739763Y-98028678D01*
X108739765Y-98028679D01*
X108896558Y-98086990D01*
X108896560Y-98086990D01*
X108903168Y-98089448D01*
X108986995Y-98100633D01*
X109075980Y-98112507D01*
X109075984Y-98112507D01*
X109082961Y-98113438D01*
X109089972Y-98112800D01*
X109089976Y-98112800D01*
X109232459Y-98099832D01*
X109263600Y-98096998D01*
X109270302Y-98094820D01*
X109270304Y-98094820D01*
X109429409Y-98043124D01*
X109429412Y-98043123D01*
X109436108Y-98040947D01*
X109460727Y-98026271D01*
X109525245Y-98008500D01*
X110569800Y-98008500D01*
X110626609Y-98022033D01*
X110627260Y-98022362D01*
X110633159Y-98026222D01*
X110639766Y-98028679D01*
X110639768Y-98028680D01*
X110796558Y-98086990D01*
X110796560Y-98086990D01*
X110803168Y-98089448D01*
X110886995Y-98100633D01*
X110975980Y-98112507D01*
X110975984Y-98112507D01*
X110982961Y-98113438D01*
X110989972Y-98112800D01*
X110989976Y-98112800D01*
X111132459Y-98099832D01*
X111163600Y-98096998D01*
X111170302Y-98094820D01*
X111170304Y-98094820D01*
X111329409Y-98043124D01*
X111329412Y-98043123D01*
X111336108Y-98040947D01*
X111360727Y-98026271D01*
X111425245Y-98008500D01*
X112521088Y-98008500D01*
X112529658Y-98008792D01*
X112579776Y-98012209D01*
X112579780Y-98012209D01*
X112587352Y-98012725D01*
X112594829Y-98011420D01*
X112594830Y-98011420D01*
X112621308Y-98006799D01*
X112650303Y-98001738D01*
X112656821Y-98000777D01*
X112720242Y-97993102D01*
X112727343Y-97990419D01*
X112729952Y-97989778D01*
X112746262Y-97985315D01*
X112748798Y-97984550D01*
X112756284Y-97983243D01*
X112814800Y-97957556D01*
X112820904Y-97955065D01*
X112873548Y-97935173D01*
X112873549Y-97935172D01*
X112880656Y-97932487D01*
X112886919Y-97928183D01*
X112889285Y-97926946D01*
X112904097Y-97918701D01*
X112906351Y-97917368D01*
X112913305Y-97914315D01*
X112964002Y-97875413D01*
X112969332Y-97871541D01*
X113015720Y-97839661D01*
X113015725Y-97839656D01*
X113021981Y-97835357D01*
X113063427Y-97788839D01*
X113068408Y-97783562D01*
X113776905Y-97075066D01*
X113839217Y-97041041D01*
X113910033Y-97046106D01*
X113966868Y-97088653D01*
X113991679Y-97155173D01*
X113992000Y-97164162D01*
X113992000Y-103663403D01*
X113971998Y-103731524D01*
X113918342Y-103778017D01*
X113848068Y-103788121D01*
X113783488Y-103758627D01*
X113743796Y-103694098D01*
X113741692Y-103685722D01*
X113741692Y-103685721D01*
X113740431Y-103680702D01*
X113651354Y-103475840D01*
X113530014Y-103288277D01*
X113379670Y-103123051D01*
X113375619Y-103119852D01*
X113375615Y-103119848D01*
X113208414Y-102987800D01*
X113208410Y-102987798D01*
X113204359Y-102984598D01*
X113008789Y-102876638D01*
X113003920Y-102874914D01*
X113003916Y-102874912D01*
X112803087Y-102803795D01*
X112803083Y-102803794D01*
X112798212Y-102802069D01*
X112793119Y-102801162D01*
X112793116Y-102801161D01*
X112583373Y-102763800D01*
X112583367Y-102763799D01*
X112578284Y-102762894D01*
X112504452Y-102761992D01*
X112360081Y-102760228D01*
X112360079Y-102760228D01*
X112354911Y-102760165D01*
X112134091Y-102793955D01*
X111921756Y-102863357D01*
X111723607Y-102966507D01*
X111719474Y-102969610D01*
X111719471Y-102969612D01*
X111549100Y-103097530D01*
X111544965Y-103100635D01*
X111390629Y-103262138D01*
X111387715Y-103266410D01*
X111387714Y-103266411D01*
X111376986Y-103282138D01*
X111264743Y-103446680D01*
X111249003Y-103480590D01*
X111209217Y-103566302D01*
X111170688Y-103649305D01*
X111110989Y-103864570D01*
X111087251Y-104086695D01*
X111100110Y-104309715D01*
X111101247Y-104314761D01*
X111101248Y-104314767D01*
X111122275Y-104408069D01*
X111149222Y-104527639D01*
X111185662Y-104617380D01*
X111230673Y-104728229D01*
X111233266Y-104734616D01*
X111349987Y-104925088D01*
X111496250Y-105093938D01*
X111668126Y-105236632D01*
X111702352Y-105256632D01*
X111741445Y-105279476D01*
X111790169Y-105331114D01*
X111803240Y-105400897D01*
X111776509Y-105466669D01*
X111736055Y-105500027D01*
X111723607Y-105506507D01*
X111719474Y-105509610D01*
X111719471Y-105509612D01*
X111549100Y-105637530D01*
X111544965Y-105640635D01*
X111519894Y-105666870D01*
X111415790Y-105775809D01*
X111390629Y-105802138D01*
X111387715Y-105806410D01*
X111387714Y-105806411D01*
X111372798Y-105828277D01*
X111264743Y-105986680D01*
X111170688Y-106189305D01*
X111110989Y-106404570D01*
X111087251Y-106626695D01*
X111087548Y-106631848D01*
X111087548Y-106631851D01*
X111089171Y-106660000D01*
X111100110Y-106849715D01*
X111101247Y-106854761D01*
X111101248Y-106854767D01*
X111114597Y-106913998D01*
X111149222Y-107067639D01*
X111233266Y-107274616D01*
X111349987Y-107465088D01*
X111496250Y-107633938D01*
X111500230Y-107637242D01*
X111504981Y-107641187D01*
X111544616Y-107700090D01*
X111546113Y-107771071D01*
X111508997Y-107831593D01*
X111468725Y-107856112D01*
X111418963Y-107874767D01*
X111353295Y-107899385D01*
X111236739Y-107986739D01*
X111149385Y-108103295D01*
X111098255Y-108239684D01*
X111091500Y-108301866D01*
X111091500Y-109504340D01*
X111071498Y-109572461D01*
X111054595Y-109593435D01*
X110643435Y-110004595D01*
X110581123Y-110038621D01*
X110554340Y-110041500D01*
X110016280Y-110041500D01*
X109948159Y-110021498D01*
X109901666Y-109967842D01*
X109891562Y-109897568D01*
X109903323Y-109859673D01*
X109976670Y-109711267D01*
X109980469Y-109701672D01*
X110042377Y-109497910D01*
X110044555Y-109487837D01*
X110045986Y-109476962D01*
X110043775Y-109462778D01*
X110030617Y-109459000D01*
X108584000Y-109459000D01*
X108515879Y-109438998D01*
X108469386Y-109385342D01*
X108458000Y-109333000D01*
X108458000Y-109077000D01*
X108478002Y-109008879D01*
X108531658Y-108962386D01*
X108584000Y-108951000D01*
X110030344Y-108951000D01*
X110043875Y-108947027D01*
X110045180Y-108937947D01*
X110003214Y-108770875D01*
X109999894Y-108761124D01*
X109914972Y-108565814D01*
X109910105Y-108556739D01*
X109794426Y-108377926D01*
X109788136Y-108369757D01*
X109644293Y-108211677D01*
X109613241Y-108147831D01*
X109621635Y-108077333D01*
X109666812Y-108022564D01*
X109693256Y-108008895D01*
X109800297Y-107968767D01*
X109808705Y-107965615D01*
X109925261Y-107878261D01*
X110012615Y-107761705D01*
X110063745Y-107625316D01*
X110070500Y-107563134D01*
X110070500Y-105766866D01*
X110063745Y-105704684D01*
X110012615Y-105568295D01*
X109925261Y-105451739D01*
X109808705Y-105364385D01*
X109672316Y-105313255D01*
X109610134Y-105306500D01*
X107813866Y-105306500D01*
X107751684Y-105313255D01*
X107615295Y-105364385D01*
X107498739Y-105451739D01*
X107411385Y-105568295D01*
X107408233Y-105576703D01*
X107366919Y-105686907D01*
X107324277Y-105743671D01*
X107257716Y-105768371D01*
X107188367Y-105753163D01*
X107155743Y-105727476D01*
X107105151Y-105671875D01*
X107105142Y-105671866D01*
X107101670Y-105668051D01*
X107097619Y-105664852D01*
X107097615Y-105664848D01*
X106930414Y-105532800D01*
X106930410Y-105532798D01*
X106926359Y-105529598D01*
X106917302Y-105524598D01*
X106821453Y-105471687D01*
X106730789Y-105421638D01*
X106725920Y-105419914D01*
X106725916Y-105419912D01*
X106525087Y-105348795D01*
X106525083Y-105348794D01*
X106520212Y-105347069D01*
X106515119Y-105346162D01*
X106515116Y-105346161D01*
X106305373Y-105308800D01*
X106305367Y-105308799D01*
X106300284Y-105307894D01*
X106226452Y-105306992D01*
X106082081Y-105305228D01*
X106082079Y-105305228D01*
X106076911Y-105305165D01*
X105856091Y-105338955D01*
X105643756Y-105408357D01*
X105445607Y-105511507D01*
X105441474Y-105514610D01*
X105441471Y-105514612D01*
X105273624Y-105640635D01*
X105266965Y-105645635D01*
X105233920Y-105680215D01*
X105173280Y-105743671D01*
X105112629Y-105807138D01*
X105005201Y-105964621D01*
X104950293Y-106009621D01*
X104879768Y-106017792D01*
X104816021Y-105986538D01*
X104795324Y-105962054D01*
X104714822Y-105837617D01*
X104714820Y-105837614D01*
X104712014Y-105833277D01*
X104561670Y-105668051D01*
X104557619Y-105664852D01*
X104557615Y-105664848D01*
X104390414Y-105532800D01*
X104390410Y-105532798D01*
X104386359Y-105529598D01*
X104377302Y-105524598D01*
X104281453Y-105471687D01*
X104190789Y-105421638D01*
X104185920Y-105419914D01*
X104185916Y-105419912D01*
X103985087Y-105348795D01*
X103985083Y-105348794D01*
X103980212Y-105347069D01*
X103975119Y-105346162D01*
X103975116Y-105346161D01*
X103765373Y-105308800D01*
X103765367Y-105308799D01*
X103760284Y-105307894D01*
X103686452Y-105306992D01*
X103542081Y-105305228D01*
X103542079Y-105305228D01*
X103536911Y-105305165D01*
X103316091Y-105338955D01*
X103103756Y-105408357D01*
X102905607Y-105511507D01*
X102901474Y-105514610D01*
X102901471Y-105514612D01*
X102733624Y-105640635D01*
X102726965Y-105645635D01*
X102693920Y-105680215D01*
X102633280Y-105743671D01*
X102572629Y-105807138D01*
X102465201Y-105964621D01*
X102410293Y-106009621D01*
X102339768Y-106017792D01*
X102276021Y-105986538D01*
X102255324Y-105962054D01*
X102174822Y-105837617D01*
X102174820Y-105837614D01*
X102172014Y-105833277D01*
X102021670Y-105668051D01*
X102017619Y-105664852D01*
X102017615Y-105664848D01*
X101850414Y-105532800D01*
X101850410Y-105532798D01*
X101846359Y-105529598D01*
X101837302Y-105524598D01*
X101741453Y-105471687D01*
X101650789Y-105421638D01*
X101645920Y-105419914D01*
X101645916Y-105419912D01*
X101445087Y-105348795D01*
X101445083Y-105348794D01*
X101440212Y-105347069D01*
X101435119Y-105346162D01*
X101435116Y-105346161D01*
X101225373Y-105308800D01*
X101225367Y-105308799D01*
X101220284Y-105307894D01*
X101146452Y-105306992D01*
X101002081Y-105305228D01*
X101002079Y-105305228D01*
X100996911Y-105305165D01*
X100776091Y-105338955D01*
X100563756Y-105408357D01*
X100365607Y-105511507D01*
X100361474Y-105514610D01*
X100361471Y-105514612D01*
X100193624Y-105640635D01*
X100186965Y-105645635D01*
X100153920Y-105680215D01*
X100093280Y-105743671D01*
X100032629Y-105807138D01*
X99925201Y-105964621D01*
X99870293Y-106009621D01*
X99799768Y-106017792D01*
X99736021Y-105986538D01*
X99715324Y-105962054D01*
X99634822Y-105837617D01*
X99634820Y-105837614D01*
X99632014Y-105833277D01*
X99481670Y-105668051D01*
X99477619Y-105664852D01*
X99477615Y-105664848D01*
X99310414Y-105532800D01*
X99310410Y-105532798D01*
X99306359Y-105529598D01*
X99297302Y-105524598D01*
X99201453Y-105471687D01*
X99110789Y-105421638D01*
X99105920Y-105419914D01*
X99105916Y-105419912D01*
X98905087Y-105348795D01*
X98905083Y-105348794D01*
X98900212Y-105347069D01*
X98895119Y-105346162D01*
X98895116Y-105346161D01*
X98685373Y-105308800D01*
X98685367Y-105308799D01*
X98680284Y-105307894D01*
X98606452Y-105306992D01*
X98462081Y-105305228D01*
X98462079Y-105305228D01*
X98456911Y-105305165D01*
X98236091Y-105338955D01*
X98023756Y-105408357D01*
X97825607Y-105511507D01*
X97821474Y-105514610D01*
X97821471Y-105514612D01*
X97653624Y-105640635D01*
X97646965Y-105645635D01*
X97613920Y-105680215D01*
X97553280Y-105743671D01*
X97492629Y-105807138D01*
X97385201Y-105964621D01*
X97330293Y-106009621D01*
X97259768Y-106017792D01*
X97196021Y-105986538D01*
X97175324Y-105962054D01*
X97094822Y-105837617D01*
X97094820Y-105837614D01*
X97092014Y-105833277D01*
X96941670Y-105668051D01*
X96937619Y-105664852D01*
X96937615Y-105664848D01*
X96770414Y-105532800D01*
X96770410Y-105532798D01*
X96766359Y-105529598D01*
X96757302Y-105524598D01*
X96661453Y-105471687D01*
X96570789Y-105421638D01*
X96565920Y-105419914D01*
X96565916Y-105419912D01*
X96365087Y-105348795D01*
X96365083Y-105348794D01*
X96360212Y-105347069D01*
X96355119Y-105346162D01*
X96355116Y-105346161D01*
X96145373Y-105308800D01*
X96145367Y-105308799D01*
X96140284Y-105307894D01*
X96066452Y-105306992D01*
X95922081Y-105305228D01*
X95922079Y-105305228D01*
X95916911Y-105305165D01*
X95696091Y-105338955D01*
X95483756Y-105408357D01*
X95285607Y-105511507D01*
X95281474Y-105514610D01*
X95281471Y-105514612D01*
X95113624Y-105640635D01*
X95106965Y-105645635D01*
X95073920Y-105680215D01*
X95013280Y-105743671D01*
X94952629Y-105807138D01*
X94845201Y-105964621D01*
X94790293Y-106009621D01*
X94719768Y-106017792D01*
X94656021Y-105986538D01*
X94635324Y-105962054D01*
X94554822Y-105837617D01*
X94554820Y-105837614D01*
X94552014Y-105833277D01*
X94401670Y-105668051D01*
X94397619Y-105664852D01*
X94397615Y-105664848D01*
X94230414Y-105532800D01*
X94230410Y-105532798D01*
X94226359Y-105529598D01*
X94217302Y-105524598D01*
X94121453Y-105471687D01*
X94030789Y-105421638D01*
X94025920Y-105419914D01*
X94025916Y-105419912D01*
X93825087Y-105348795D01*
X93825083Y-105348794D01*
X93820212Y-105347069D01*
X93815119Y-105346162D01*
X93815116Y-105346161D01*
X93605373Y-105308800D01*
X93605367Y-105308799D01*
X93600284Y-105307894D01*
X93526452Y-105306992D01*
X93382081Y-105305228D01*
X93382079Y-105305228D01*
X93376911Y-105305165D01*
X93156091Y-105338955D01*
X92943756Y-105408357D01*
X92745607Y-105511507D01*
X92741474Y-105514610D01*
X92741471Y-105514612D01*
X92573624Y-105640635D01*
X92566965Y-105645635D01*
X92533920Y-105680215D01*
X92473280Y-105743671D01*
X92412629Y-105807138D01*
X92305201Y-105964621D01*
X92250293Y-106009621D01*
X92179768Y-106017792D01*
X92116021Y-105986538D01*
X92095324Y-105962054D01*
X92014822Y-105837617D01*
X92014820Y-105837614D01*
X92012014Y-105833277D01*
X91861670Y-105668051D01*
X91857619Y-105664852D01*
X91857615Y-105664848D01*
X91690414Y-105532800D01*
X91690410Y-105532798D01*
X91686359Y-105529598D01*
X91677302Y-105524598D01*
X91581453Y-105471687D01*
X91490789Y-105421638D01*
X91485920Y-105419914D01*
X91485916Y-105419912D01*
X91285087Y-105348795D01*
X91285083Y-105348794D01*
X91280212Y-105347069D01*
X91275119Y-105346162D01*
X91275116Y-105346161D01*
X91065373Y-105308800D01*
X91065367Y-105308799D01*
X91060284Y-105307894D01*
X90986452Y-105306992D01*
X90842081Y-105305228D01*
X90842079Y-105305228D01*
X90836911Y-105305165D01*
X90616091Y-105338955D01*
X90403756Y-105408357D01*
X90205607Y-105511507D01*
X90201474Y-105514610D01*
X90201471Y-105514612D01*
X90033624Y-105640635D01*
X90026965Y-105645635D01*
X89993920Y-105680215D01*
X89933280Y-105743671D01*
X89872629Y-105807138D01*
X89765201Y-105964621D01*
X89710293Y-106009621D01*
X89639768Y-106017792D01*
X89576021Y-105986538D01*
X89555324Y-105962054D01*
X89474822Y-105837617D01*
X89474820Y-105837614D01*
X89472014Y-105833277D01*
X89321670Y-105668051D01*
X89317619Y-105664852D01*
X89317615Y-105664848D01*
X89150414Y-105532800D01*
X89150410Y-105532798D01*
X89146359Y-105529598D01*
X88951485Y-105422022D01*
X88901516Y-105371590D01*
X88886744Y-105302147D01*
X88911860Y-105235742D01*
X88923285Y-105222619D01*
X94395904Y-99750000D01*
X96336496Y-99750000D01*
X96337186Y-99756565D01*
X96347627Y-99855901D01*
X96356458Y-99939928D01*
X96415473Y-100121556D01*
X96510960Y-100286944D01*
X96638747Y-100428866D01*
X96793248Y-100541118D01*
X96799276Y-100543802D01*
X96799278Y-100543803D01*
X96961681Y-100616109D01*
X96967712Y-100618794D01*
X97061113Y-100638647D01*
X97148056Y-100657128D01*
X97148061Y-100657128D01*
X97154513Y-100658500D01*
X97345487Y-100658500D01*
X97351939Y-100657128D01*
X97351944Y-100657128D01*
X97438887Y-100638647D01*
X97532288Y-100618794D01*
X97538319Y-100616109D01*
X97700722Y-100543803D01*
X97700724Y-100543802D01*
X97706752Y-100541118D01*
X97861253Y-100428866D01*
X97989040Y-100286944D01*
X98084527Y-100121556D01*
X98143542Y-99939928D01*
X98152374Y-99855901D01*
X98162814Y-99756565D01*
X98163504Y-99750000D01*
X98143542Y-99560072D01*
X98084527Y-99378444D01*
X97989040Y-99213056D01*
X97861253Y-99071134D01*
X97706752Y-98958882D01*
X97700724Y-98956198D01*
X97700722Y-98956197D01*
X97538319Y-98883891D01*
X97538318Y-98883891D01*
X97532288Y-98881206D01*
X97438887Y-98861353D01*
X97351944Y-98842872D01*
X97351939Y-98842872D01*
X97345487Y-98841500D01*
X97154513Y-98841500D01*
X97148061Y-98842872D01*
X97148056Y-98842872D01*
X97061112Y-98861353D01*
X96967712Y-98881206D01*
X96961682Y-98883891D01*
X96961681Y-98883891D01*
X96799278Y-98956197D01*
X96799276Y-98956198D01*
X96793248Y-98958882D01*
X96638747Y-99071134D01*
X96510960Y-99213056D01*
X96415473Y-99378444D01*
X96356458Y-99560072D01*
X96336496Y-99750000D01*
X94395904Y-99750000D01*
X96810177Y-97335727D01*
X96872489Y-97301701D01*
X96887837Y-97299343D01*
X96913600Y-97296998D01*
X96920302Y-97294820D01*
X96920304Y-97294820D01*
X97079409Y-97243124D01*
X97079412Y-97243123D01*
X97086108Y-97240947D01*
X97241912Y-97148069D01*
X97373266Y-97022982D01*
X97473643Y-96871902D01*
X97538055Y-96702338D01*
X97556833Y-96568727D01*
X97562748Y-96526639D01*
X97562748Y-96526636D01*
X97563299Y-96522717D01*
X97563506Y-96507881D01*
X97563561Y-96503962D01*
X97563561Y-96503957D01*
X97563616Y-96500000D01*
X97543397Y-96319745D01*
X97541080Y-96313091D01*
X97486064Y-96155106D01*
X97486062Y-96155103D01*
X97483745Y-96148448D01*
X97387626Y-95994624D01*
X97339640Y-95946302D01*
X97264778Y-95870915D01*
X97264774Y-95870912D01*
X97259815Y-95865918D01*
X97248697Y-95858862D01*
X97194339Y-95824366D01*
X97106666Y-95768727D01*
X97077463Y-95758328D01*
X96942425Y-95710243D01*
X96942420Y-95710242D01*
X96935790Y-95707881D01*
X96928802Y-95707048D01*
X96928799Y-95707047D01*
X96805698Y-95692368D01*
X96755680Y-95686404D01*
X96748677Y-95687140D01*
X96748676Y-95687140D01*
X96582288Y-95704628D01*
X96582286Y-95704629D01*
X96575288Y-95705364D01*
X96403579Y-95763818D01*
X96397575Y-95767512D01*
X96255095Y-95855166D01*
X96255092Y-95855168D01*
X96249088Y-95858862D01*
X96244053Y-95863793D01*
X96244050Y-95863795D01*
X96159797Y-95946302D01*
X96119493Y-95985771D01*
X96115677Y-95991693D01*
X96051357Y-96091497D01*
X95997643Y-96137922D01*
X95927356Y-96147937D01*
X95862813Y-96118362D01*
X95825613Y-96062177D01*
X95816931Y-96035456D01*
X95816930Y-96035454D01*
X95814888Y-96029169D01*
X95798393Y-96000598D01*
X95736479Y-95893361D01*
X95719741Y-95824366D01*
X95736478Y-95767363D01*
X95766038Y-95716164D01*
X95821438Y-95545660D01*
X95861512Y-95487055D01*
X95890022Y-95469490D01*
X96044297Y-95400803D01*
X96044299Y-95400802D01*
X96050327Y-95398118D01*
X96064529Y-95387800D01*
X96133013Y-95338043D01*
X96204828Y-95285866D01*
X96314737Y-95163800D01*
X96328196Y-95148852D01*
X96328197Y-95148851D01*
X96332615Y-95143944D01*
X96428102Y-94978556D01*
X96487117Y-94796928D01*
X96492049Y-94750000D01*
X97336496Y-94750000D01*
X97337186Y-94756565D01*
X97346496Y-94845141D01*
X97356458Y-94939928D01*
X97415473Y-95121556D01*
X97418776Y-95127278D01*
X97418777Y-95127279D01*
X97439863Y-95163800D01*
X97510960Y-95286944D01*
X97515378Y-95291851D01*
X97515379Y-95291852D01*
X97596640Y-95382101D01*
X97638747Y-95428866D01*
X97716695Y-95485499D01*
X97784189Y-95534536D01*
X97793248Y-95541118D01*
X97799276Y-95543802D01*
X97799278Y-95543803D01*
X97959381Y-95615085D01*
X97967712Y-95618794D01*
X98061112Y-95638647D01*
X98148056Y-95657128D01*
X98148061Y-95657128D01*
X98154513Y-95658500D01*
X98345487Y-95658500D01*
X98351939Y-95657128D01*
X98351944Y-95657128D01*
X98438888Y-95638647D01*
X98532288Y-95618794D01*
X98540619Y-95615085D01*
X98700722Y-95543803D01*
X98700724Y-95543802D01*
X98706752Y-95541118D01*
X98715812Y-95534536D01*
X98783305Y-95485499D01*
X98861253Y-95428866D01*
X98903360Y-95382101D01*
X98984621Y-95291852D01*
X98984622Y-95291851D01*
X98989040Y-95286944D01*
X99060137Y-95163800D01*
X99081223Y-95127279D01*
X99081224Y-95127278D01*
X99084527Y-95121556D01*
X99143542Y-94939928D01*
X99153505Y-94845141D01*
X99162814Y-94756565D01*
X99163504Y-94750000D01*
X99154648Y-94665742D01*
X99144232Y-94566635D01*
X99144232Y-94566633D01*
X99143542Y-94560072D01*
X99084527Y-94378444D01*
X98989040Y-94213056D01*
X98861253Y-94071134D01*
X98706752Y-93958882D01*
X98700724Y-93956198D01*
X98700722Y-93956197D01*
X98538319Y-93883891D01*
X98538318Y-93883891D01*
X98532288Y-93881206D01*
X98438887Y-93861353D01*
X98351944Y-93842872D01*
X98351939Y-93842872D01*
X98345487Y-93841500D01*
X98154513Y-93841500D01*
X98148061Y-93842872D01*
X98148056Y-93842872D01*
X98061112Y-93861353D01*
X97967712Y-93881206D01*
X97961682Y-93883891D01*
X97961681Y-93883891D01*
X97799278Y-93956197D01*
X97799276Y-93956198D01*
X97793248Y-93958882D01*
X97638747Y-94071134D01*
X97510960Y-94213056D01*
X97415473Y-94378444D01*
X97356458Y-94560072D01*
X97355768Y-94566633D01*
X97355768Y-94566635D01*
X97345352Y-94665742D01*
X97336496Y-94750000D01*
X96492049Y-94750000D01*
X96507079Y-94607000D01*
X96487117Y-94417072D01*
X96428102Y-94235444D01*
X96332615Y-94070056D01*
X96204828Y-93928134D01*
X96143933Y-93883891D01*
X96117715Y-93864842D01*
X96074361Y-93808619D01*
X96066422Y-93766343D01*
X96066466Y-93765920D01*
X96065776Y-93759355D01*
X96047194Y-93582555D01*
X96047194Y-93582553D01*
X96046504Y-93575992D01*
X95987489Y-93394364D01*
X95892002Y-93228976D01*
X95764215Y-93087054D01*
X95609714Y-92974802D01*
X95603686Y-92972118D01*
X95603684Y-92972117D01*
X95525978Y-92937520D01*
X95471882Y-92891539D01*
X95451233Y-92823612D01*
X95459439Y-92777669D01*
X95485555Y-92708920D01*
X95485556Y-92708918D01*
X95488055Y-92702338D01*
X95491354Y-92678866D01*
X95512748Y-92526639D01*
X95512748Y-92526636D01*
X95513299Y-92522717D01*
X95513616Y-92500000D01*
X95493397Y-92319745D01*
X95448190Y-92189928D01*
X95436064Y-92155106D01*
X95436062Y-92155103D01*
X95433745Y-92148448D01*
X95430009Y-92142469D01*
X95341359Y-92000598D01*
X95337626Y-91994624D01*
X95264941Y-91921430D01*
X95231134Y-91858999D01*
X95236559Y-91787902D01*
X95285555Y-91658921D01*
X95285556Y-91658916D01*
X95288055Y-91652338D01*
X95291413Y-91628444D01*
X95312748Y-91476639D01*
X95312748Y-91476636D01*
X95313299Y-91472717D01*
X95313616Y-91450000D01*
X95313174Y-91446063D01*
X95313174Y-91446055D01*
X95311590Y-91431931D01*
X95323876Y-91362006D01*
X95372663Y-91309437D01*
X95372668Y-91309434D01*
X95386583Y-91301205D01*
X95404329Y-91292511D01*
X95423170Y-91285051D01*
X95458940Y-91259063D01*
X95468860Y-91252547D01*
X95500088Y-91234079D01*
X95500091Y-91234077D01*
X95506915Y-91230041D01*
X95521236Y-91215720D01*
X95536270Y-91202879D01*
X95552660Y-91190971D01*
X95580851Y-91156894D01*
X95588841Y-91148115D01*
X97194131Y-89542825D01*
X97256443Y-89508799D01*
X97327258Y-89513864D01*
X97372321Y-89542825D01*
X100221743Y-92392247D01*
X100229287Y-92400537D01*
X100233400Y-92407018D01*
X100239177Y-92412443D01*
X100283067Y-92453658D01*
X100285909Y-92456413D01*
X100305630Y-92476134D01*
X100308825Y-92478612D01*
X100317847Y-92486318D01*
X100350079Y-92516586D01*
X100357028Y-92520406D01*
X100367832Y-92526346D01*
X100384356Y-92537199D01*
X100400359Y-92549613D01*
X100440943Y-92567176D01*
X100451573Y-92572383D01*
X100490340Y-92593695D01*
X100498017Y-92595666D01*
X100498022Y-92595668D01*
X100509958Y-92598732D01*
X100528666Y-92605137D01*
X100547255Y-92613181D01*
X100555083Y-92614421D01*
X100555338Y-92614495D01*
X100613819Y-92651180D01*
X100638747Y-92678866D01*
X100793248Y-92791118D01*
X100799276Y-92793802D01*
X100799278Y-92793803D01*
X100866231Y-92823612D01*
X100967712Y-92868794D01*
X101061112Y-92888647D01*
X101148056Y-92907128D01*
X101148061Y-92907128D01*
X101154513Y-92908500D01*
X101345487Y-92908500D01*
X101351939Y-92907128D01*
X101351944Y-92907128D01*
X101438887Y-92888647D01*
X101532288Y-92868794D01*
X101633769Y-92823612D01*
X101700722Y-92793803D01*
X101700724Y-92793802D01*
X101706752Y-92791118D01*
X101861253Y-92678866D01*
X101920396Y-92613181D01*
X101984621Y-92541852D01*
X101984622Y-92541851D01*
X101989040Y-92536944D01*
X102064053Y-92407018D01*
X102081223Y-92377279D01*
X102081224Y-92377278D01*
X102084527Y-92371556D01*
X102143542Y-92189928D01*
X102163504Y-92000000D01*
X102148688Y-91859036D01*
X102144232Y-91816635D01*
X102144232Y-91816633D01*
X102143542Y-91810072D01*
X102084527Y-91628444D01*
X101989040Y-91463056D01*
X101977285Y-91450000D01*
X101865675Y-91326045D01*
X101865674Y-91326044D01*
X101861253Y-91321134D01*
X101716164Y-91215720D01*
X101712094Y-91212763D01*
X101712093Y-91212762D01*
X101706752Y-91208882D01*
X101700724Y-91206198D01*
X101700722Y-91206197D01*
X101538319Y-91133891D01*
X101538318Y-91133891D01*
X101532288Y-91131206D01*
X101438888Y-91111353D01*
X101351944Y-91092872D01*
X101351939Y-91092872D01*
X101345487Y-91091500D01*
X101154513Y-91091500D01*
X101148061Y-91092872D01*
X101148056Y-91092872D01*
X101061112Y-91111353D01*
X100967712Y-91131206D01*
X100961683Y-91133891D01*
X100961681Y-91133891D01*
X100897917Y-91162281D01*
X100827550Y-91171715D01*
X100763253Y-91141609D01*
X100757573Y-91136269D01*
X100671304Y-91050000D01*
X102336496Y-91050000D01*
X102337186Y-91056565D01*
X102353914Y-91215720D01*
X102356458Y-91239928D01*
X102415473Y-91421556D01*
X102418776Y-91427278D01*
X102418777Y-91427279D01*
X102431895Y-91450000D01*
X102510960Y-91586944D01*
X102638747Y-91728866D01*
X102720003Y-91787902D01*
X102766800Y-91821902D01*
X102793248Y-91841118D01*
X102799276Y-91843802D01*
X102799278Y-91843803D01*
X102961681Y-91916109D01*
X102967712Y-91918794D01*
X103061113Y-91938647D01*
X103148056Y-91957128D01*
X103148061Y-91957128D01*
X103154513Y-91958500D01*
X103345487Y-91958500D01*
X103351939Y-91957128D01*
X103351944Y-91957128D01*
X103438887Y-91938647D01*
X103532288Y-91918794D01*
X103538319Y-91916109D01*
X103700722Y-91843803D01*
X103700724Y-91843802D01*
X103706752Y-91841118D01*
X103733201Y-91821902D01*
X103779997Y-91787902D01*
X103861253Y-91728866D01*
X103989040Y-91586944D01*
X104068105Y-91450000D01*
X104081223Y-91427279D01*
X104081224Y-91427278D01*
X104084527Y-91421556D01*
X104143542Y-91239928D01*
X104146087Y-91215720D01*
X104162814Y-91056565D01*
X104163504Y-91050000D01*
X104143542Y-90860072D01*
X104084527Y-90678444D01*
X103989040Y-90513056D01*
X103984621Y-90508148D01*
X103982564Y-90505317D01*
X103958705Y-90438449D01*
X103958500Y-90431256D01*
X103958500Y-90045660D01*
X103978502Y-89977539D01*
X103995405Y-89956565D01*
X105566533Y-88385437D01*
X105629431Y-88351285D01*
X105645589Y-88347850D01*
X105782288Y-88318794D01*
X105834785Y-88295421D01*
X105950722Y-88243803D01*
X105950724Y-88243802D01*
X105956752Y-88241118D01*
X106111253Y-88128866D01*
X106134051Y-88103546D01*
X106234621Y-87991852D01*
X106234622Y-87991851D01*
X106239040Y-87986944D01*
X106334527Y-87821556D01*
X106393542Y-87639928D01*
X106397249Y-87604664D01*
X106412814Y-87456565D01*
X106413504Y-87450000D01*
X106406430Y-87382694D01*
X106394232Y-87266635D01*
X106394232Y-87266633D01*
X106393542Y-87260072D01*
X106334527Y-87078444D01*
X106239040Y-86913056D01*
X106111253Y-86771134D01*
X105980375Y-86676045D01*
X105962094Y-86662763D01*
X105962093Y-86662762D01*
X105956752Y-86658882D01*
X105950724Y-86656198D01*
X105950722Y-86656197D01*
X105788319Y-86583891D01*
X105788318Y-86583891D01*
X105782288Y-86581206D01*
X105688888Y-86561353D01*
X105601944Y-86542872D01*
X105601939Y-86542872D01*
X105595487Y-86541500D01*
X105404513Y-86541500D01*
X105398061Y-86542872D01*
X105398056Y-86542872D01*
X105311112Y-86561353D01*
X105217712Y-86581206D01*
X105211682Y-86583891D01*
X105211681Y-86583891D01*
X105049278Y-86656197D01*
X105049276Y-86656198D01*
X105043248Y-86658882D01*
X105037907Y-86662762D01*
X105037906Y-86662763D01*
X105019625Y-86676045D01*
X104888747Y-86771134D01*
X104760960Y-86913056D01*
X104665473Y-87078444D01*
X104606458Y-87260072D01*
X104602964Y-87293320D01*
X104601550Y-87306769D01*
X104574537Y-87372426D01*
X104565335Y-87382694D01*
X102769472Y-89178558D01*
X102763206Y-89184412D01*
X102725340Y-89217444D01*
X102725337Y-89217447D01*
X102719615Y-89222439D01*
X102715248Y-89228653D01*
X102682872Y-89274719D01*
X102678939Y-89280014D01*
X102639524Y-89330282D01*
X102636401Y-89337198D01*
X102635017Y-89339484D01*
X102626643Y-89354165D01*
X102625378Y-89356525D01*
X102621010Y-89362739D01*
X102618250Y-89369818D01*
X102618249Y-89369820D01*
X102597798Y-89422275D01*
X102595247Y-89428344D01*
X102568955Y-89486573D01*
X102567571Y-89494040D01*
X102566770Y-89496595D01*
X102562141Y-89512848D01*
X102561478Y-89515428D01*
X102558718Y-89522509D01*
X102557727Y-89530040D01*
X102557726Y-89530042D01*
X102550379Y-89585852D01*
X102549348Y-89592359D01*
X102537704Y-89655186D01*
X102538141Y-89662766D01*
X102538141Y-89662767D01*
X102541291Y-89717392D01*
X102541500Y-89724646D01*
X102541500Y-90431256D01*
X102521498Y-90499377D01*
X102517436Y-90505317D01*
X102515379Y-90508148D01*
X102510960Y-90513056D01*
X102415473Y-90678444D01*
X102356458Y-90860072D01*
X102336496Y-91050000D01*
X100671304Y-91050000D01*
X97953631Y-88332326D01*
X97919605Y-88270014D01*
X97916726Y-88243231D01*
X97916726Y-88237849D01*
X97936728Y-88169728D01*
X97949084Y-88153546D01*
X98022266Y-88072269D01*
X98117753Y-87906881D01*
X98176768Y-87725253D01*
X98179921Y-87695260D01*
X98196040Y-87541890D01*
X98196730Y-87535325D01*
X98182945Y-87404171D01*
X98177458Y-87351960D01*
X98177458Y-87351958D01*
X98176768Y-87345397D01*
X98117753Y-87163769D01*
X98022266Y-86998381D01*
X97894479Y-86856459D01*
X97739978Y-86744207D01*
X97733950Y-86741523D01*
X97733948Y-86741522D01*
X97571545Y-86669216D01*
X97571544Y-86669216D01*
X97565514Y-86666531D01*
X97472113Y-86646678D01*
X97385170Y-86628197D01*
X97385165Y-86628197D01*
X97378713Y-86626825D01*
X97187739Y-86626825D01*
X97181287Y-86628197D01*
X97181282Y-86628197D01*
X97094339Y-86646678D01*
X97000938Y-86666531D01*
X96994908Y-86669216D01*
X96994907Y-86669216D01*
X96832504Y-86741522D01*
X96832502Y-86741523D01*
X96826474Y-86744207D01*
X96821133Y-86748087D01*
X96821132Y-86748088D01*
X96729309Y-86814802D01*
X96662442Y-86838660D01*
X96593290Y-86822580D01*
X96543810Y-86771666D01*
X96532379Y-86708815D01*
X96529760Y-86708815D01*
X96529760Y-86707092D01*
X96531184Y-86702244D01*
X96530242Y-86697067D01*
X96530754Y-86693016D01*
X96533781Y-86693399D01*
X96549762Y-86638971D01*
X96562117Y-86622791D01*
X96635300Y-86541512D01*
X96730787Y-86376124D01*
X96789802Y-86194496D01*
X96799254Y-86104570D01*
X96809074Y-86011133D01*
X96809764Y-86004568D01*
X96803262Y-85942708D01*
X96790492Y-85821203D01*
X96790492Y-85821201D01*
X96789802Y-85814640D01*
X96730787Y-85633012D01*
X96635300Y-85467624D01*
X96630116Y-85461866D01*
X96511935Y-85330613D01*
X96511934Y-85330612D01*
X96507513Y-85325702D01*
X96364919Y-85222101D01*
X96358354Y-85217331D01*
X96358353Y-85217330D01*
X96353012Y-85213450D01*
X96346984Y-85210766D01*
X96346982Y-85210765D01*
X96184579Y-85138459D01*
X96184578Y-85138459D01*
X96178548Y-85135774D01*
X96085147Y-85115921D01*
X95998204Y-85097440D01*
X95998199Y-85097440D01*
X95991747Y-85096068D01*
X95800773Y-85096068D01*
X95794321Y-85097440D01*
X95794316Y-85097440D01*
X95707373Y-85115921D01*
X95613972Y-85135774D01*
X95607942Y-85138459D01*
X95607941Y-85138459D01*
X95445538Y-85210765D01*
X95445536Y-85210766D01*
X95439508Y-85213450D01*
X95434167Y-85217330D01*
X95434166Y-85217331D01*
X95427601Y-85222101D01*
X95285007Y-85325702D01*
X95280586Y-85330612D01*
X95280585Y-85330613D01*
X95162405Y-85461866D01*
X95157220Y-85467624D01*
X95061733Y-85633012D01*
X95002718Y-85814640D01*
X95002028Y-85821201D01*
X95002028Y-85821203D01*
X94989258Y-85942708D01*
X94982756Y-86004568D01*
X94983446Y-86011133D01*
X94993267Y-86104570D01*
X95002718Y-86194496D01*
X95061733Y-86376124D01*
X95083407Y-86413664D01*
X95100145Y-86482656D01*
X95076926Y-86549748D01*
X95063383Y-86565758D01*
X94002245Y-87626895D01*
X90832250Y-90796889D01*
X90823964Y-90804429D01*
X90817485Y-90808541D01*
X90812060Y-90814318D01*
X90770860Y-90858192D01*
X90768105Y-90861034D01*
X90748367Y-90880772D01*
X90745887Y-90883969D01*
X90738184Y-90892989D01*
X90707917Y-90925220D01*
X90704098Y-90932167D01*
X90704094Y-90932172D01*
X90698156Y-90942972D01*
X90687306Y-90959490D01*
X90679750Y-90969231D01*
X90679746Y-90969238D01*
X90674888Y-90975501D01*
X90671739Y-90982779D01*
X90657329Y-91016078D01*
X90652113Y-91026726D01*
X90630807Y-91065481D01*
X90625767Y-91085110D01*
X90619366Y-91103805D01*
X90611321Y-91122397D01*
X90610081Y-91130228D01*
X90604405Y-91166064D01*
X90601998Y-91177686D01*
X90591002Y-91220511D01*
X90591002Y-91240766D01*
X90589451Y-91260477D01*
X90586282Y-91280485D01*
X90587028Y-91288376D01*
X90590443Y-91324501D01*
X90591002Y-91336360D01*
X90591001Y-91485505D01*
X90570998Y-91553625D01*
X90554096Y-91574599D01*
X88747633Y-93381062D01*
X88685321Y-93415088D01*
X88658538Y-93417967D01*
X87212319Y-93417967D01*
X87201136Y-93417440D01*
X87193643Y-93415765D01*
X87185717Y-93416014D01*
X87185716Y-93416014D01*
X87125566Y-93417905D01*
X87121607Y-93417967D01*
X87093696Y-93417967D01*
X87089762Y-93418464D01*
X87089761Y-93418464D01*
X87089696Y-93418472D01*
X87077859Y-93419405D01*
X87046042Y-93420405D01*
X87041581Y-93420545D01*
X87033662Y-93420794D01*
X87016006Y-93425923D01*
X87014210Y-93426445D01*
X86994858Y-93430453D01*
X86987787Y-93431347D01*
X86974755Y-93432993D01*
X86967386Y-93435910D01*
X86967384Y-93435911D01*
X86933649Y-93449267D01*
X86922421Y-93453112D01*
X86879959Y-93465449D01*
X86873137Y-93469483D01*
X86873131Y-93469486D01*
X86862520Y-93475761D01*
X86844770Y-93484457D01*
X86833308Y-93488995D01*
X86833303Y-93488998D01*
X86825935Y-93491915D01*
X86819520Y-93496576D01*
X86790177Y-93517894D01*
X86780259Y-93524410D01*
X86761571Y-93535462D01*
X86742189Y-93546925D01*
X86727865Y-93561249D01*
X86712833Y-93574088D01*
X86696445Y-93585995D01*
X86668264Y-93620060D01*
X86660274Y-93628840D01*
X83265008Y-97024106D01*
X83202696Y-97058132D01*
X83175913Y-97061011D01*
X82705489Y-97061011D01*
X82637368Y-97041009D01*
X82590875Y-96987353D01*
X82580771Y-96917079D01*
X82584930Y-96898383D01*
X82594978Y-96865314D01*
X82612370Y-96808069D01*
X82641529Y-96586590D01*
X82641832Y-96574205D01*
X82643074Y-96523365D01*
X82643074Y-96523361D01*
X82643156Y-96520000D01*
X82624852Y-96297361D01*
X82570431Y-96080702D01*
X82481354Y-95875840D01*
X82414504Y-95772506D01*
X82362822Y-95692617D01*
X82362820Y-95692614D01*
X82360014Y-95688277D01*
X82209670Y-95523051D01*
X82205619Y-95519852D01*
X82205615Y-95519848D01*
X82038414Y-95387800D01*
X82038410Y-95387798D01*
X82034359Y-95384598D01*
X81838789Y-95276638D01*
X81833920Y-95274914D01*
X81833916Y-95274912D01*
X81633087Y-95203795D01*
X81633083Y-95203794D01*
X81628212Y-95202069D01*
X81623119Y-95201162D01*
X81623116Y-95201161D01*
X81413373Y-95163800D01*
X81413367Y-95163799D01*
X81408284Y-95162894D01*
X81334452Y-95161992D01*
X81190081Y-95160228D01*
X81190079Y-95160228D01*
X81184911Y-95160165D01*
X80964091Y-95193955D01*
X80751756Y-95263357D01*
X80721443Y-95279137D01*
X80595675Y-95344608D01*
X80553607Y-95366507D01*
X80549474Y-95369610D01*
X80549471Y-95369612D01*
X80379100Y-95497530D01*
X80374965Y-95500635D01*
X80353544Y-95523051D01*
X80262050Y-95618794D01*
X80220629Y-95662138D01*
X80113201Y-95819621D01*
X80058293Y-95864621D01*
X79987768Y-95872792D01*
X79924021Y-95841538D01*
X79903324Y-95817054D01*
X79822822Y-95692617D01*
X79822820Y-95692614D01*
X79820014Y-95688277D01*
X79669670Y-95523051D01*
X79665619Y-95519852D01*
X79665615Y-95519848D01*
X79498414Y-95387800D01*
X79498410Y-95387798D01*
X79494359Y-95384598D01*
X79298789Y-95276638D01*
X79293920Y-95274914D01*
X79293916Y-95274912D01*
X79093087Y-95203795D01*
X79093083Y-95203794D01*
X79088212Y-95202069D01*
X79083119Y-95201162D01*
X79083116Y-95201161D01*
X78873373Y-95163800D01*
X78873367Y-95163799D01*
X78868284Y-95162894D01*
X78794452Y-95161992D01*
X78650081Y-95160228D01*
X78650079Y-95160228D01*
X78644911Y-95160165D01*
X78424091Y-95193955D01*
X78211756Y-95263357D01*
X78181443Y-95279137D01*
X78055675Y-95344608D01*
X78013607Y-95366507D01*
X78009474Y-95369610D01*
X78009471Y-95369612D01*
X77839100Y-95497530D01*
X77834965Y-95500635D01*
X77799987Y-95537237D01*
X77725594Y-95615085D01*
X77664069Y-95650515D01*
X77593157Y-95647058D01*
X77535371Y-95605812D01*
X77509057Y-95539872D01*
X77508500Y-95528034D01*
X77508500Y-88645660D01*
X77528502Y-88577539D01*
X77545405Y-88556565D01*
X78372684Y-87729286D01*
X78434996Y-87695260D01*
X78486896Y-87694910D01*
X78578597Y-87713567D01*
X78583772Y-87713757D01*
X78583774Y-87713757D01*
X78796673Y-87721564D01*
X78796677Y-87721564D01*
X78801837Y-87721753D01*
X78806957Y-87721097D01*
X78806959Y-87721097D01*
X79018288Y-87694025D01*
X79018289Y-87694025D01*
X79023416Y-87693368D01*
X79063264Y-87681413D01*
X79232429Y-87630661D01*
X79232434Y-87630659D01*
X79237384Y-87629174D01*
X79437994Y-87530896D01*
X79619860Y-87401173D01*
X79728091Y-87293319D01*
X79790462Y-87259404D01*
X79861268Y-87264592D01*
X79918030Y-87307238D01*
X79935012Y-87338341D01*
X79973283Y-87440428D01*
X79979385Y-87456705D01*
X80066739Y-87573261D01*
X80183295Y-87660615D01*
X80319684Y-87711745D01*
X80381866Y-87718500D01*
X82178134Y-87718500D01*
X82240316Y-87711745D01*
X82376705Y-87660615D01*
X82493261Y-87573261D01*
X82580615Y-87456705D01*
X82620617Y-87350000D01*
X84286496Y-87350000D01*
X84287186Y-87356565D01*
X84299378Y-87472561D01*
X84306458Y-87539928D01*
X84365473Y-87721556D01*
X84460960Y-87886944D01*
X84588747Y-88028866D01*
X84640616Y-88066551D01*
X84726385Y-88128866D01*
X84743248Y-88141118D01*
X84749276Y-88143802D01*
X84749278Y-88143803D01*
X84807507Y-88169728D01*
X84917712Y-88218794D01*
X85004479Y-88237237D01*
X85098056Y-88257128D01*
X85098061Y-88257128D01*
X85104513Y-88258500D01*
X85295487Y-88258500D01*
X85301939Y-88257128D01*
X85301944Y-88257128D01*
X85395521Y-88237237D01*
X85482288Y-88218794D01*
X85592493Y-88169728D01*
X85650722Y-88143803D01*
X85650724Y-88143802D01*
X85656752Y-88141118D01*
X85673616Y-88128866D01*
X85759384Y-88066551D01*
X85811253Y-88028866D01*
X85939040Y-87886944D01*
X86034527Y-87721556D01*
X86093542Y-87539928D01*
X86100623Y-87472561D01*
X86112814Y-87356565D01*
X86113504Y-87350000D01*
X86103849Y-87258134D01*
X86094232Y-87166635D01*
X86094232Y-87166633D01*
X86093542Y-87160072D01*
X86034527Y-86978444D01*
X85939040Y-86813056D01*
X85831301Y-86693399D01*
X85815675Y-86676045D01*
X85815674Y-86676044D01*
X85811253Y-86671134D01*
X85656752Y-86558882D01*
X85650724Y-86556198D01*
X85650722Y-86556197D01*
X85488319Y-86483891D01*
X85488318Y-86483891D01*
X85482288Y-86481206D01*
X85388888Y-86461353D01*
X85301944Y-86442872D01*
X85301939Y-86442872D01*
X85295487Y-86441500D01*
X85104513Y-86441500D01*
X85098061Y-86442872D01*
X85098056Y-86442872D01*
X85011112Y-86461353D01*
X84917712Y-86481206D01*
X84911682Y-86483891D01*
X84911681Y-86483891D01*
X84749278Y-86556197D01*
X84749276Y-86556198D01*
X84743248Y-86558882D01*
X84588747Y-86671134D01*
X84584326Y-86676044D01*
X84584325Y-86676045D01*
X84568700Y-86693399D01*
X84460960Y-86813056D01*
X84365473Y-86978444D01*
X84306458Y-87160072D01*
X84305768Y-87166633D01*
X84305768Y-87166635D01*
X84296151Y-87258134D01*
X84286496Y-87350000D01*
X82620617Y-87350000D01*
X82631745Y-87320316D01*
X82638500Y-87258134D01*
X82638500Y-85461866D01*
X82631745Y-85399684D01*
X82580615Y-85263295D01*
X82493261Y-85146739D01*
X82376705Y-85059385D01*
X82257687Y-85014767D01*
X82200923Y-84972125D01*
X82176223Y-84905564D01*
X82191430Y-84836215D01*
X82212977Y-84807535D01*
X82314052Y-84706812D01*
X82320730Y-84698965D01*
X82445003Y-84526020D01*
X82450313Y-84517183D01*
X82544670Y-84326267D01*
X82548469Y-84316672D01*
X82610377Y-84112910D01*
X82612555Y-84102837D01*
X82613986Y-84091962D01*
X82611775Y-84077778D01*
X82598617Y-84074000D01*
X77423225Y-84074000D01*
X77409694Y-84077973D01*
X77408257Y-84087966D01*
X77438565Y-84222446D01*
X77441645Y-84232275D01*
X77521770Y-84429603D01*
X77526413Y-84438794D01*
X77637694Y-84620388D01*
X77643777Y-84628699D01*
X77783213Y-84789667D01*
X77790580Y-84796883D01*
X77954434Y-84932916D01*
X77962881Y-84938831D01*
X78031969Y-84979203D01*
X78080693Y-85030842D01*
X78093764Y-85100625D01*
X78067033Y-85166396D01*
X78026584Y-85199752D01*
X78013607Y-85206507D01*
X78009474Y-85209610D01*
X78009471Y-85209612D01*
X77848313Y-85330613D01*
X77834965Y-85340635D01*
X77795525Y-85381907D01*
X77718302Y-85462716D01*
X77680629Y-85502138D01*
X77677715Y-85506410D01*
X77677714Y-85506411D01*
X77662798Y-85528277D01*
X77554743Y-85686680D01*
X77518476Y-85764810D01*
X77477463Y-85853167D01*
X77460688Y-85889305D01*
X77400989Y-86104570D01*
X77377251Y-86326695D01*
X77377548Y-86331848D01*
X77377548Y-86331851D01*
X77386081Y-86479834D01*
X77390110Y-86549715D01*
X77391247Y-86554761D01*
X77391248Y-86554767D01*
X77403946Y-86611110D01*
X77399410Y-86681962D01*
X77370124Y-86727906D01*
X76723095Y-87374935D01*
X76660783Y-87408961D01*
X76589968Y-87403896D01*
X76533132Y-87361349D01*
X76508321Y-87294829D01*
X76508000Y-87285840D01*
X76508000Y-81246695D01*
X77377251Y-81246695D01*
X77377548Y-81251848D01*
X77377548Y-81251851D01*
X77389812Y-81464547D01*
X77390110Y-81469715D01*
X77391247Y-81474761D01*
X77391248Y-81474767D01*
X77406807Y-81543803D01*
X77439222Y-81687639D01*
X77523266Y-81894616D01*
X77574019Y-81977438D01*
X77637291Y-82080688D01*
X77639987Y-82085088D01*
X77786250Y-82253938D01*
X77958126Y-82396632D01*
X78031955Y-82439774D01*
X78080679Y-82491412D01*
X78093750Y-82561195D01*
X78067019Y-82626967D01*
X78026562Y-82660327D01*
X78018457Y-82664546D01*
X78009738Y-82670036D01*
X77839433Y-82797905D01*
X77831726Y-82804748D01*
X77684590Y-82958717D01*
X77678104Y-82966727D01*
X77558098Y-83142649D01*
X77553000Y-83151623D01*
X77463338Y-83344783D01*
X77459775Y-83354470D01*
X77404389Y-83554183D01*
X77405912Y-83562607D01*
X77418292Y-83566000D01*
X82598344Y-83566000D01*
X82611875Y-83562027D01*
X82613180Y-83552947D01*
X82571214Y-83385875D01*
X82567894Y-83376124D01*
X82482972Y-83180814D01*
X82478105Y-83171739D01*
X82362426Y-82992926D01*
X82356136Y-82984757D01*
X82212806Y-82827240D01*
X82205273Y-82820215D01*
X82038139Y-82688222D01*
X82029556Y-82682520D01*
X81992602Y-82662120D01*
X81942631Y-82611687D01*
X81927859Y-82542245D01*
X81952975Y-82475839D01*
X81980327Y-82449232D01*
X82003797Y-82432491D01*
X82159860Y-82321173D01*
X82218475Y-82262763D01*
X82264017Y-82217379D01*
X82318096Y-82163489D01*
X82339364Y-82133892D01*
X82445435Y-81986277D01*
X82448453Y-81982077D01*
X82469320Y-81939857D01*
X82545136Y-81786453D01*
X82545137Y-81786451D01*
X82547430Y-81781811D01*
X82612370Y-81568069D01*
X82641529Y-81346590D01*
X82642010Y-81326902D01*
X82643074Y-81283365D01*
X82643074Y-81283361D01*
X82643156Y-81280000D01*
X82624852Y-81057361D01*
X82570431Y-80840702D01*
X82481354Y-80635840D01*
X82436583Y-80566635D01*
X82362822Y-80452617D01*
X82362820Y-80452614D01*
X82360014Y-80448277D01*
X82209670Y-80283051D01*
X82205619Y-80279852D01*
X82205615Y-80279848D01*
X82038414Y-80147800D01*
X82038410Y-80147798D01*
X82034359Y-80144598D01*
X81993053Y-80121796D01*
X81943084Y-80071364D01*
X81928312Y-80001921D01*
X81953428Y-79935516D01*
X81980780Y-79908909D01*
X82041501Y-79865597D01*
X82159860Y-79781173D01*
X82318096Y-79623489D01*
X82327083Y-79610983D01*
X82445435Y-79446277D01*
X82448453Y-79442077D01*
X82465199Y-79408195D01*
X82545136Y-79246453D01*
X82545137Y-79246451D01*
X82547430Y-79241811D01*
X82549703Y-79234330D01*
X82553186Y-79222868D01*
X82592128Y-79163505D01*
X82656983Y-79134620D01*
X82673743Y-79133500D01*
X87316986Y-79133500D01*
X87385107Y-79153502D01*
X87398467Y-79163703D01*
X87401046Y-79166567D01*
X87406388Y-79170448D01*
X87406390Y-79170450D01*
X87502179Y-79240045D01*
X87555547Y-79278819D01*
X87561575Y-79281503D01*
X87561577Y-79281504D01*
X87723980Y-79353810D01*
X87730011Y-79356495D01*
X87823411Y-79376348D01*
X87910355Y-79394829D01*
X87910360Y-79394829D01*
X87916812Y-79396201D01*
X88107786Y-79396201D01*
X88114238Y-79394829D01*
X88114243Y-79394829D01*
X88239803Y-79368140D01*
X88310594Y-79373542D01*
X88367227Y-79416359D01*
X88391720Y-79482997D01*
X88392000Y-79491387D01*
X88392000Y-79797476D01*
X88371998Y-79865597D01*
X88359642Y-79881779D01*
X88286460Y-79963056D01*
X88251645Y-80023357D01*
X88194811Y-80121797D01*
X88190973Y-80128444D01*
X88131958Y-80310072D01*
X88131268Y-80316633D01*
X88131268Y-80316635D01*
X88114593Y-80475292D01*
X88087580Y-80540949D01*
X88078379Y-80551217D01*
X87956080Y-80673515D01*
X87883241Y-80746354D01*
X87874962Y-80753888D01*
X87868481Y-80758001D01*
X87837112Y-80791406D01*
X87821856Y-80807652D01*
X87819101Y-80810494D01*
X87799364Y-80830231D01*
X87796884Y-80833428D01*
X87789181Y-80842448D01*
X87758913Y-80874680D01*
X87755094Y-80881626D01*
X87755092Y-80881629D01*
X87749151Y-80892435D01*
X87738300Y-80908954D01*
X87725885Y-80924960D01*
X87722740Y-80932229D01*
X87722737Y-80932233D01*
X87708325Y-80965538D01*
X87703108Y-80976188D01*
X87681804Y-81014941D01*
X87679833Y-81022616D01*
X87679833Y-81022617D01*
X87676766Y-81034563D01*
X87670362Y-81053267D01*
X87662318Y-81071856D01*
X87661079Y-81079679D01*
X87661076Y-81079689D01*
X87655400Y-81115525D01*
X87652994Y-81127145D01*
X87641999Y-81169971D01*
X87641999Y-81190225D01*
X87640448Y-81209935D01*
X87637279Y-81229944D01*
X87638025Y-81237836D01*
X87641440Y-81273962D01*
X87641999Y-81285820D01*
X87641999Y-85703214D01*
X87641472Y-85714397D01*
X87639797Y-85721890D01*
X87640046Y-85729816D01*
X87640046Y-85729817D01*
X87641937Y-85789967D01*
X87641999Y-85793926D01*
X87641999Y-85821837D01*
X87642496Y-85825771D01*
X87642496Y-85825772D01*
X87642504Y-85825837D01*
X87643437Y-85837674D01*
X87644826Y-85881870D01*
X87650477Y-85901320D01*
X87654486Y-85920681D01*
X87657025Y-85940778D01*
X87659944Y-85948149D01*
X87659944Y-85948151D01*
X87673303Y-85981893D01*
X87677148Y-85993123D01*
X87689481Y-86035574D01*
X87693514Y-86042393D01*
X87693516Y-86042398D01*
X87699792Y-86053009D01*
X87708487Y-86070757D01*
X87715947Y-86089598D01*
X87720609Y-86096014D01*
X87720609Y-86096015D01*
X87741935Y-86125368D01*
X87748451Y-86135288D01*
X87755019Y-86146393D01*
X87770957Y-86173343D01*
X87785278Y-86187664D01*
X87798118Y-86202697D01*
X87810027Y-86219088D01*
X87816133Y-86224139D01*
X87844104Y-86247279D01*
X87852883Y-86255269D01*
X88268357Y-86670743D01*
X88302383Y-86733055D01*
X88304571Y-86746664D01*
X88321937Y-86911889D01*
X88350040Y-86998381D01*
X88378271Y-87085266D01*
X88380299Y-87156233D01*
X88343636Y-87217031D01*
X88284635Y-87247449D01*
X88142212Y-87277722D01*
X88136182Y-87280407D01*
X88136181Y-87280407D01*
X87973778Y-87352713D01*
X87973776Y-87352714D01*
X87967748Y-87355398D01*
X87962407Y-87359278D01*
X87962406Y-87359279D01*
X87944311Y-87372426D01*
X87813247Y-87467650D01*
X87808826Y-87472560D01*
X87808825Y-87472561D01*
X87718155Y-87573261D01*
X87685460Y-87609572D01*
X87589973Y-87774960D01*
X87530958Y-87956588D01*
X87530268Y-87963149D01*
X87530268Y-87963151D01*
X87522413Y-88037889D01*
X87495400Y-88103546D01*
X87448351Y-88139826D01*
X87299281Y-88206195D01*
X87299274Y-88206199D01*
X87293248Y-88208882D01*
X87287907Y-88212762D01*
X87287906Y-88212763D01*
X87248879Y-88241118D01*
X87138747Y-88321134D01*
X87134326Y-88326044D01*
X87134325Y-88326045D01*
X87105103Y-88358500D01*
X87010960Y-88463056D01*
X86915473Y-88628444D01*
X86856458Y-88810072D01*
X86836496Y-89000000D01*
X86856458Y-89189928D01*
X86915473Y-89371556D01*
X87010960Y-89536944D01*
X87138747Y-89678866D01*
X87293248Y-89791118D01*
X87299276Y-89793802D01*
X87299278Y-89793803D01*
X87461681Y-89866109D01*
X87467712Y-89868794D01*
X87561113Y-89888647D01*
X87648056Y-89907128D01*
X87648061Y-89907128D01*
X87654513Y-89908500D01*
X87845487Y-89908500D01*
X87851939Y-89907128D01*
X87851944Y-89907128D01*
X87938887Y-89888647D01*
X88032288Y-89868794D01*
X88038319Y-89866109D01*
X88200722Y-89793803D01*
X88200724Y-89793802D01*
X88206752Y-89791118D01*
X88361253Y-89678866D01*
X88489040Y-89536944D01*
X88584527Y-89371556D01*
X88643542Y-89189928D01*
X88652087Y-89108627D01*
X88679100Y-89042970D01*
X88726149Y-89006690D01*
X88875219Y-88940321D01*
X88875226Y-88940317D01*
X88881252Y-88937634D01*
X89035753Y-88825382D01*
X89163540Y-88683460D01*
X89164944Y-88684724D01*
X89193120Y-88659199D01*
X89206886Y-88651058D01*
X89221207Y-88636737D01*
X89236241Y-88623896D01*
X89246218Y-88616647D01*
X89252631Y-88611988D01*
X89280822Y-88577911D01*
X89288812Y-88569132D01*
X91907247Y-85950697D01*
X91915537Y-85943153D01*
X91922018Y-85939040D01*
X91927774Y-85932911D01*
X91968658Y-85889373D01*
X91971413Y-85886531D01*
X91991135Y-85866809D01*
X91993612Y-85863616D01*
X92001317Y-85854595D01*
X92026159Y-85828140D01*
X92031586Y-85822361D01*
X92035407Y-85815411D01*
X92041346Y-85804608D01*
X92052202Y-85788081D01*
X92059757Y-85778342D01*
X92059758Y-85778340D01*
X92064614Y-85772080D01*
X92082174Y-85731500D01*
X92087391Y-85720852D01*
X92104875Y-85689049D01*
X92104876Y-85689047D01*
X92108695Y-85682100D01*
X92113733Y-85662477D01*
X92120137Y-85643774D01*
X92125033Y-85632460D01*
X92125033Y-85632459D01*
X92128181Y-85625185D01*
X92129420Y-85617362D01*
X92129423Y-85617352D01*
X92135099Y-85581516D01*
X92137505Y-85569896D01*
X92146528Y-85534751D01*
X92146528Y-85534750D01*
X92148500Y-85527070D01*
X92148500Y-85506816D01*
X92150051Y-85487105D01*
X92151980Y-85474926D01*
X92153220Y-85467097D01*
X92149059Y-85423078D01*
X92148500Y-85411221D01*
X92148500Y-84920695D01*
X92168502Y-84852574D01*
X92222158Y-84806081D01*
X92292432Y-84795977D01*
X92325747Y-84805587D01*
X92467712Y-84868794D01*
X92561112Y-84888647D01*
X92648056Y-84907128D01*
X92648061Y-84907128D01*
X92654513Y-84908500D01*
X92845487Y-84908500D01*
X92851939Y-84907128D01*
X92851944Y-84907128D01*
X92938888Y-84888647D01*
X93032288Y-84868794D01*
X93169879Y-84807535D01*
X93200722Y-84793803D01*
X93200724Y-84793802D01*
X93206752Y-84791118D01*
X93361253Y-84678866D01*
X93489040Y-84536944D01*
X93547314Y-84436010D01*
X93581223Y-84377279D01*
X93581224Y-84377278D01*
X93584527Y-84371556D01*
X93643542Y-84189928D01*
X93663504Y-84000000D01*
X93643542Y-83810072D01*
X93584527Y-83628444D01*
X93489040Y-83463056D01*
X93361253Y-83321134D01*
X93206752Y-83208882D01*
X93200724Y-83206198D01*
X93200722Y-83206197D01*
X93038319Y-83133891D01*
X93038318Y-83133891D01*
X93032288Y-83131206D01*
X92938888Y-83111353D01*
X92851944Y-83092872D01*
X92851939Y-83092872D01*
X92845487Y-83091500D01*
X92654513Y-83091500D01*
X92648061Y-83092872D01*
X92648056Y-83092872D01*
X92561112Y-83111353D01*
X92467712Y-83131206D01*
X92461682Y-83133891D01*
X92461681Y-83133891D01*
X92442010Y-83142649D01*
X92325748Y-83194412D01*
X92255382Y-83203846D01*
X92191085Y-83173740D01*
X92153271Y-83113651D01*
X92148500Y-83079305D01*
X92148500Y-83050000D01*
X105336496Y-83050000D01*
X105337186Y-83056565D01*
X105352666Y-83203846D01*
X105356458Y-83239928D01*
X105415473Y-83421556D01*
X105510960Y-83586944D01*
X105638747Y-83728866D01*
X105793248Y-83841118D01*
X105799276Y-83843802D01*
X105799278Y-83843803D01*
X105944591Y-83908500D01*
X105967712Y-83918794D01*
X106061113Y-83938647D01*
X106148056Y-83957128D01*
X106148061Y-83957128D01*
X106154513Y-83958500D01*
X106345487Y-83958500D01*
X106351939Y-83957128D01*
X106351944Y-83957128D01*
X106438887Y-83938647D01*
X106532288Y-83918794D01*
X106555409Y-83908500D01*
X106700722Y-83843803D01*
X106700724Y-83843802D01*
X106706752Y-83841118D01*
X106861253Y-83728866D01*
X106989040Y-83586944D01*
X107084527Y-83421556D01*
X107143542Y-83239928D01*
X107147335Y-83203846D01*
X107162814Y-83056565D01*
X107163504Y-83050000D01*
X107143542Y-82860072D01*
X107084527Y-82678444D01*
X106989040Y-82513056D01*
X106949169Y-82468774D01*
X106865675Y-82376045D01*
X106865674Y-82376044D01*
X106861253Y-82371134D01*
X106706752Y-82258882D01*
X106700724Y-82256198D01*
X106700722Y-82256197D01*
X106538319Y-82183891D01*
X106538318Y-82183891D01*
X106532288Y-82181206D01*
X106436201Y-82160782D01*
X106351944Y-82142872D01*
X106351939Y-82142872D01*
X106345487Y-82141500D01*
X106154513Y-82141500D01*
X106148061Y-82142872D01*
X106148056Y-82142872D01*
X106063799Y-82160782D01*
X105967712Y-82181206D01*
X105961682Y-82183891D01*
X105961681Y-82183891D01*
X105799278Y-82256197D01*
X105799276Y-82256198D01*
X105793248Y-82258882D01*
X105638747Y-82371134D01*
X105634326Y-82376044D01*
X105634325Y-82376045D01*
X105550832Y-82468774D01*
X105510960Y-82513056D01*
X105415473Y-82678444D01*
X105356458Y-82860072D01*
X105336496Y-83050000D01*
X92148500Y-83050000D01*
X92148500Y-80750000D01*
X94586496Y-80750000D01*
X94587186Y-80756565D01*
X94603203Y-80908954D01*
X94606458Y-80939928D01*
X94665473Y-81121556D01*
X94760960Y-81286944D01*
X94765378Y-81291851D01*
X94765379Y-81291852D01*
X94855704Y-81392168D01*
X94888747Y-81428866D01*
X95043248Y-81541118D01*
X95049276Y-81543802D01*
X95049278Y-81543803D01*
X95209799Y-81615271D01*
X95217712Y-81618794D01*
X95311113Y-81638647D01*
X95398056Y-81657128D01*
X95398061Y-81657128D01*
X95404513Y-81658500D01*
X95595487Y-81658500D01*
X95601939Y-81657128D01*
X95601944Y-81657128D01*
X95688887Y-81638647D01*
X95782288Y-81618794D01*
X95790201Y-81615271D01*
X95950722Y-81543803D01*
X95950724Y-81543802D01*
X95956752Y-81541118D01*
X96111253Y-81428866D01*
X96144296Y-81392168D01*
X96234621Y-81291852D01*
X96234622Y-81291851D01*
X96239040Y-81286944D01*
X96260370Y-81250000D01*
X103336496Y-81250000D01*
X103337186Y-81256565D01*
X103355276Y-81428679D01*
X103356458Y-81439928D01*
X103415473Y-81621556D01*
X103418776Y-81627278D01*
X103418777Y-81627279D01*
X103436803Y-81658500D01*
X103510960Y-81786944D01*
X103515378Y-81791851D01*
X103515379Y-81791852D01*
X103634325Y-81923955D01*
X103638747Y-81928866D01*
X103793248Y-82041118D01*
X103799276Y-82043802D01*
X103799278Y-82043803D01*
X103906408Y-82091500D01*
X103967712Y-82118794D01*
X104061112Y-82138647D01*
X104148056Y-82157128D01*
X104148061Y-82157128D01*
X104154513Y-82158500D01*
X104345487Y-82158500D01*
X104351939Y-82157128D01*
X104351944Y-82157128D01*
X104438888Y-82138647D01*
X104532288Y-82118794D01*
X104593592Y-82091500D01*
X104700722Y-82043803D01*
X104700724Y-82043802D01*
X104706752Y-82041118D01*
X104861253Y-81928866D01*
X104865675Y-81923955D01*
X104984621Y-81791852D01*
X104984622Y-81791851D01*
X104989040Y-81786944D01*
X105063197Y-81658500D01*
X105081223Y-81627279D01*
X105081224Y-81627278D01*
X105084527Y-81621556D01*
X105143542Y-81439928D01*
X105144725Y-81428679D01*
X105162814Y-81256565D01*
X105163504Y-81250000D01*
X105158264Y-81200143D01*
X105144232Y-81066635D01*
X105144232Y-81066633D01*
X105143542Y-81060072D01*
X105084527Y-80878444D01*
X105079018Y-80868901D01*
X105014160Y-80756565D01*
X104989040Y-80713056D01*
X104968216Y-80689928D01*
X104865675Y-80576045D01*
X104865674Y-80576044D01*
X104861253Y-80571134D01*
X104740771Y-80483598D01*
X104712094Y-80462763D01*
X104712093Y-80462762D01*
X104706752Y-80458882D01*
X104700724Y-80456198D01*
X104700722Y-80456197D01*
X104538319Y-80383891D01*
X104538318Y-80383891D01*
X104532288Y-80381206D01*
X104438888Y-80361353D01*
X104351944Y-80342872D01*
X104351939Y-80342872D01*
X104345487Y-80341500D01*
X104154513Y-80341500D01*
X104148061Y-80342872D01*
X104148056Y-80342872D01*
X104061112Y-80361353D01*
X103967712Y-80381206D01*
X103961682Y-80383891D01*
X103961681Y-80383891D01*
X103799278Y-80456197D01*
X103799276Y-80456198D01*
X103793248Y-80458882D01*
X103787907Y-80462762D01*
X103787906Y-80462763D01*
X103759229Y-80483598D01*
X103638747Y-80571134D01*
X103634326Y-80576044D01*
X103634325Y-80576045D01*
X103531785Y-80689928D01*
X103510960Y-80713056D01*
X103485840Y-80756565D01*
X103420983Y-80868901D01*
X103415473Y-80878444D01*
X103356458Y-81060072D01*
X103355768Y-81066633D01*
X103355768Y-81066635D01*
X103341736Y-81200143D01*
X103336496Y-81250000D01*
X96260370Y-81250000D01*
X96334527Y-81121556D01*
X96393542Y-80939928D01*
X96396798Y-80908954D01*
X96412814Y-80756565D01*
X96413504Y-80750000D01*
X96407190Y-80689928D01*
X96394232Y-80566635D01*
X96394232Y-80566633D01*
X96393542Y-80560072D01*
X96334527Y-80378444D01*
X96313990Y-80342872D01*
X96266510Y-80260635D01*
X96239040Y-80213056D01*
X96155277Y-80120027D01*
X96115675Y-80076045D01*
X96115674Y-80076044D01*
X96111253Y-80071134D01*
X95972755Y-79970509D01*
X95962094Y-79962763D01*
X95962093Y-79962762D01*
X95956752Y-79958882D01*
X95950724Y-79956198D01*
X95950722Y-79956197D01*
X95788319Y-79883891D01*
X95788318Y-79883891D01*
X95782288Y-79881206D01*
X95667416Y-79856789D01*
X95601944Y-79842872D01*
X95601939Y-79842872D01*
X95595487Y-79841500D01*
X95404513Y-79841500D01*
X95398061Y-79842872D01*
X95398056Y-79842872D01*
X95332584Y-79856789D01*
X95217712Y-79881206D01*
X95211682Y-79883891D01*
X95211681Y-79883891D01*
X95049278Y-79956197D01*
X95049276Y-79956198D01*
X95043248Y-79958882D01*
X95037907Y-79962762D01*
X95037906Y-79962763D01*
X95027245Y-79970509D01*
X94888747Y-80071134D01*
X94884326Y-80076044D01*
X94884325Y-80076045D01*
X94844724Y-80120027D01*
X94760960Y-80213056D01*
X94733490Y-80260635D01*
X94686011Y-80342872D01*
X94665473Y-80378444D01*
X94606458Y-80560072D01*
X94605768Y-80566633D01*
X94605768Y-80566635D01*
X94592810Y-80689928D01*
X94586496Y-80750000D01*
X92148500Y-80750000D01*
X92148500Y-75500000D01*
X95336496Y-75500000D01*
X95356458Y-75689928D01*
X95415473Y-75871556D01*
X95418776Y-75877278D01*
X95418777Y-75877279D01*
X95439062Y-75912414D01*
X95510960Y-76036944D01*
X95515378Y-76041851D01*
X95515379Y-76041852D01*
X95623166Y-76161562D01*
X95638747Y-76178866D01*
X95793248Y-76291118D01*
X95799276Y-76293802D01*
X95799278Y-76293803D01*
X95804561Y-76296155D01*
X95967712Y-76368794D01*
X96041824Y-76384547D01*
X96148056Y-76407128D01*
X96148061Y-76407128D01*
X96154513Y-76408500D01*
X96345487Y-76408500D01*
X96351939Y-76407128D01*
X96351944Y-76407128D01*
X96458176Y-76384547D01*
X96532288Y-76368794D01*
X96695439Y-76296155D01*
X96700722Y-76293803D01*
X96700724Y-76293802D01*
X96706752Y-76291118D01*
X96861253Y-76178866D01*
X96876834Y-76161562D01*
X96984621Y-76041852D01*
X96984622Y-76041851D01*
X96989040Y-76036944D01*
X97060938Y-75912414D01*
X97081223Y-75877279D01*
X97081224Y-75877278D01*
X97084527Y-75871556D01*
X97143542Y-75689928D01*
X97163504Y-75500000D01*
X97149258Y-75364457D01*
X97144232Y-75316635D01*
X97144232Y-75316633D01*
X97143542Y-75310072D01*
X97084527Y-75128444D01*
X97077806Y-75116802D01*
X97047314Y-75063990D01*
X96989040Y-74963056D01*
X96861253Y-74821134D01*
X96706752Y-74708882D01*
X96700724Y-74706198D01*
X96700722Y-74706197D01*
X96538319Y-74633891D01*
X96538318Y-74633891D01*
X96532288Y-74631206D01*
X96438887Y-74611353D01*
X96351944Y-74592872D01*
X96351939Y-74592872D01*
X96345487Y-74591500D01*
X96154513Y-74591500D01*
X96148061Y-74592872D01*
X96148056Y-74592872D01*
X96061113Y-74611353D01*
X95967712Y-74631206D01*
X95961682Y-74633891D01*
X95961681Y-74633891D01*
X95799278Y-74706197D01*
X95799276Y-74706198D01*
X95793248Y-74708882D01*
X95638747Y-74821134D01*
X95510960Y-74963056D01*
X95452686Y-75063990D01*
X95422195Y-75116802D01*
X95415473Y-75128444D01*
X95356458Y-75310072D01*
X95355768Y-75316633D01*
X95355768Y-75316635D01*
X95350742Y-75364457D01*
X95336496Y-75500000D01*
X92148500Y-75500000D01*
X92148500Y-75030427D01*
X92168502Y-74962306D01*
X92209618Y-74922550D01*
X92212994Y-74920896D01*
X92394860Y-74791173D01*
X92412769Y-74773327D01*
X92538616Y-74647918D01*
X92553096Y-74633489D01*
X92683453Y-74452077D01*
X92711369Y-74395594D01*
X92780136Y-74256453D01*
X92780137Y-74256451D01*
X92782430Y-74251811D01*
X92847370Y-74038069D01*
X92876529Y-73816590D01*
X92878156Y-73750000D01*
X92859852Y-73527361D01*
X92805431Y-73310702D01*
X92716354Y-73105840D01*
X92655318Y-73011492D01*
X92597822Y-72922617D01*
X92597820Y-72922614D01*
X92595014Y-72918277D01*
X92444670Y-72753051D01*
X92440619Y-72749852D01*
X92440615Y-72749848D01*
X92273414Y-72617800D01*
X92273410Y-72617798D01*
X92269359Y-72614598D01*
X92073789Y-72506638D01*
X92068920Y-72504914D01*
X92068916Y-72504912D01*
X91868087Y-72433795D01*
X91868083Y-72433794D01*
X91863212Y-72432069D01*
X91858119Y-72431162D01*
X91858116Y-72431161D01*
X91648373Y-72393800D01*
X91648367Y-72393799D01*
X91643284Y-72392894D01*
X91569452Y-72391992D01*
X91425081Y-72390228D01*
X91425079Y-72390228D01*
X91419911Y-72390165D01*
X91199091Y-72423955D01*
X90986756Y-72493357D01*
X90788607Y-72596507D01*
X90784474Y-72599610D01*
X90784471Y-72599612D01*
X90694892Y-72666870D01*
X90609965Y-72730635D01*
X90537560Y-72806403D01*
X90529283Y-72815064D01*
X90467759Y-72850494D01*
X90396846Y-72847037D01*
X90339060Y-72805791D01*
X90320207Y-72772243D01*
X90278767Y-72661703D01*
X90275615Y-72653295D01*
X90188261Y-72536739D01*
X90071705Y-72449385D01*
X89935316Y-72398255D01*
X89873134Y-72391500D01*
X88076866Y-72391500D01*
X88014684Y-72398255D01*
X87878295Y-72449385D01*
X87761739Y-72536739D01*
X87674385Y-72653295D01*
X87623255Y-72789684D01*
X87616500Y-72851866D01*
X87616500Y-74648134D01*
X87623255Y-74710316D01*
X87674385Y-74846705D01*
X87761739Y-74963261D01*
X87878295Y-75050615D01*
X88014684Y-75101745D01*
X88076866Y-75108500D01*
X89873134Y-75108500D01*
X89935316Y-75101745D01*
X90071705Y-75050615D01*
X90188261Y-74963261D01*
X90275615Y-74846705D01*
X90300906Y-74779242D01*
X90319598Y-74729382D01*
X90362240Y-74672618D01*
X90428802Y-74647918D01*
X90498150Y-74663126D01*
X90532817Y-74691114D01*
X90561250Y-74723938D01*
X90627864Y-74779242D01*
X90709853Y-74847310D01*
X90733126Y-74866632D01*
X90819070Y-74916853D01*
X90867794Y-74968491D01*
X90881500Y-75025641D01*
X90881500Y-82092661D01*
X90861498Y-82160782D01*
X90807842Y-82207275D01*
X90737568Y-82217379D01*
X90704252Y-82207768D01*
X90538323Y-82133892D01*
X90538315Y-82133889D01*
X90532288Y-82131206D01*
X90438888Y-82111353D01*
X90351944Y-82092872D01*
X90351939Y-82092872D01*
X90345487Y-82091500D01*
X90154513Y-82091500D01*
X90148061Y-82092872D01*
X90148056Y-82092872D01*
X90061112Y-82111353D01*
X89967712Y-82131206D01*
X89961682Y-82133891D01*
X89961681Y-82133891D01*
X89799278Y-82206197D01*
X89799276Y-82206198D01*
X89793248Y-82208882D01*
X89638747Y-82321134D01*
X89510960Y-82463056D01*
X89415473Y-82628444D01*
X89356458Y-82810072D01*
X89355768Y-82816633D01*
X89355768Y-82816635D01*
X89351863Y-82853794D01*
X89336496Y-83000000D01*
X89337186Y-83006565D01*
X89354757Y-83173740D01*
X89356458Y-83189928D01*
X89415473Y-83371556D01*
X89510960Y-83536944D01*
X89515378Y-83541851D01*
X89515379Y-83541852D01*
X89555980Y-83586944D01*
X89638747Y-83678866D01*
X89707566Y-83728866D01*
X89781797Y-83782798D01*
X89793248Y-83791118D01*
X89799276Y-83793802D01*
X89799278Y-83793803D01*
X89850560Y-83816635D01*
X89967712Y-83868794D01*
X90061113Y-83888647D01*
X90148056Y-83907128D01*
X90148061Y-83907128D01*
X90154513Y-83908500D01*
X90345487Y-83908500D01*
X90351939Y-83907128D01*
X90351944Y-83907128D01*
X90438887Y-83888647D01*
X90532288Y-83868794D01*
X90538315Y-83866111D01*
X90538323Y-83866108D01*
X90704252Y-83792232D01*
X90774619Y-83782798D01*
X90838916Y-83812905D01*
X90876729Y-83872994D01*
X90881500Y-83907339D01*
X90881500Y-85132445D01*
X90861498Y-85200566D01*
X90844595Y-85221541D01*
X90013628Y-86052507D01*
X89951316Y-86086532D01*
X89880500Y-86081467D01*
X89836721Y-86051682D01*
X89836056Y-86052420D01*
X89831154Y-86048007D01*
X89826732Y-86043095D01*
X89699558Y-85950697D01*
X89677573Y-85934724D01*
X89677572Y-85934723D01*
X89672231Y-85930843D01*
X89666203Y-85928159D01*
X89666201Y-85928158D01*
X89503798Y-85855852D01*
X89503797Y-85855852D01*
X89497767Y-85853167D01*
X89396966Y-85831741D01*
X89317423Y-85814833D01*
X89317418Y-85814833D01*
X89310966Y-85813461D01*
X89255074Y-85813461D01*
X89186953Y-85793459D01*
X89165979Y-85776556D01*
X88945904Y-85556481D01*
X88911878Y-85494169D01*
X88908999Y-85467386D01*
X88908999Y-81564595D01*
X88929001Y-81496474D01*
X88945904Y-81475500D01*
X88975999Y-81445405D01*
X89038311Y-81411379D01*
X89065094Y-81408500D01*
X89120987Y-81408500D01*
X89127439Y-81407128D01*
X89127444Y-81407128D01*
X89214387Y-81388647D01*
X89307788Y-81368794D01*
X89350207Y-81349908D01*
X89476222Y-81293803D01*
X89476224Y-81293802D01*
X89482252Y-81291118D01*
X89636753Y-81178866D01*
X89688505Y-81121390D01*
X89760121Y-81041852D01*
X89760122Y-81041851D01*
X89764540Y-81036944D01*
X89842959Y-80901118D01*
X89856723Y-80877279D01*
X89856724Y-80877278D01*
X89860027Y-80871556D01*
X89919042Y-80689928D01*
X89931012Y-80576045D01*
X89938314Y-80506565D01*
X89939004Y-80500000D01*
X89931269Y-80426403D01*
X89919732Y-80316635D01*
X89919732Y-80316633D01*
X89919042Y-80310072D01*
X89860027Y-80128444D01*
X89856190Y-80121797D01*
X89799355Y-80023357D01*
X89764540Y-79963056D01*
X89691363Y-79881785D01*
X89660647Y-79817779D01*
X89659000Y-79797476D01*
X89659000Y-78555070D01*
X89659527Y-78543887D01*
X89661202Y-78536394D01*
X89659062Y-78468303D01*
X89659000Y-78464346D01*
X89659000Y-78436446D01*
X89658496Y-78432455D01*
X89657563Y-78420613D01*
X89656423Y-78384338D01*
X89656174Y-78376413D01*
X89650521Y-78356954D01*
X89646512Y-78337595D01*
X89645587Y-78330274D01*
X89643974Y-78317505D01*
X89641058Y-78310139D01*
X89641056Y-78310133D01*
X89627700Y-78276400D01*
X89623855Y-78265170D01*
X89613730Y-78230319D01*
X89613730Y-78230318D01*
X89611519Y-78222709D01*
X89601205Y-78205268D01*
X89592508Y-78187515D01*
X89587972Y-78176060D01*
X89585052Y-78168685D01*
X89559063Y-78132914D01*
X89552547Y-78122994D01*
X89530042Y-78084940D01*
X89515721Y-78070619D01*
X89502880Y-78055585D01*
X89495631Y-78045608D01*
X89490972Y-78039195D01*
X89484868Y-78034145D01*
X89484863Y-78034140D01*
X89456902Y-78011009D01*
X89448121Y-78003019D01*
X88552845Y-77107742D01*
X88545311Y-77099463D01*
X88541198Y-77092982D01*
X88491546Y-77046356D01*
X88488705Y-77043602D01*
X88468968Y-77023865D01*
X88465771Y-77021385D01*
X88456749Y-77013680D01*
X88451755Y-77008990D01*
X88424519Y-76983414D01*
X88417573Y-76979595D01*
X88417570Y-76979593D01*
X88406764Y-76973652D01*
X88390245Y-76962801D01*
X88389781Y-76962441D01*
X88374239Y-76950386D01*
X88366970Y-76947241D01*
X88366966Y-76947238D01*
X88333661Y-76932826D01*
X88323011Y-76927609D01*
X88284258Y-76906305D01*
X88264635Y-76901267D01*
X88245932Y-76894863D01*
X88234618Y-76889967D01*
X88234617Y-76889967D01*
X88227343Y-76886819D01*
X88219520Y-76885580D01*
X88219510Y-76885577D01*
X88183674Y-76879901D01*
X88172054Y-76877495D01*
X88136909Y-76868472D01*
X88136908Y-76868472D01*
X88129228Y-76866500D01*
X88108974Y-76866500D01*
X88089263Y-76864949D01*
X88077084Y-76863020D01*
X88069255Y-76861780D01*
X88061363Y-76862526D01*
X88025237Y-76865941D01*
X88013379Y-76866500D01*
X82667172Y-76866500D01*
X82599051Y-76846498D01*
X82552558Y-76792842D01*
X82542454Y-76722568D01*
X82547935Y-76701964D01*
X82547430Y-76701811D01*
X82610865Y-76493023D01*
X82610865Y-76493021D01*
X82612370Y-76488069D01*
X82641529Y-76266590D01*
X82643156Y-76200000D01*
X82624852Y-75977361D01*
X82570431Y-75760702D01*
X82481354Y-75555840D01*
X82360014Y-75368277D01*
X82209670Y-75203051D01*
X82205619Y-75199852D01*
X82205615Y-75199848D01*
X82038414Y-75067800D01*
X82038410Y-75067798D01*
X82034359Y-75064598D01*
X81993053Y-75041796D01*
X81943084Y-74991364D01*
X81928312Y-74921921D01*
X81953428Y-74855516D01*
X81980780Y-74828909D01*
X82038793Y-74787529D01*
X82159860Y-74701173D01*
X82188917Y-74672218D01*
X82314435Y-74547137D01*
X82318096Y-74543489D01*
X82377594Y-74460689D01*
X82445435Y-74366277D01*
X82448453Y-74362077D01*
X82469320Y-74319857D01*
X82545136Y-74166453D01*
X82545137Y-74166451D01*
X82547430Y-74161811D01*
X82612370Y-73948069D01*
X82641529Y-73726590D01*
X82643156Y-73660000D01*
X82624852Y-73437361D01*
X82570431Y-73220702D01*
X82481354Y-73015840D01*
X82377485Y-72855283D01*
X82362822Y-72832617D01*
X82362820Y-72832614D01*
X82360014Y-72828277D01*
X82209670Y-72663051D01*
X82205619Y-72659852D01*
X82205615Y-72659848D01*
X82038414Y-72527800D01*
X82038410Y-72527798D01*
X82034359Y-72524598D01*
X82001825Y-72506638D01*
X81892400Y-72446233D01*
X81838789Y-72416638D01*
X81833920Y-72414914D01*
X81833916Y-72414912D01*
X81633087Y-72343795D01*
X81633083Y-72343794D01*
X81628212Y-72342069D01*
X81623119Y-72341162D01*
X81623116Y-72341161D01*
X81413373Y-72303800D01*
X81413367Y-72303799D01*
X81408284Y-72302894D01*
X81334452Y-72301992D01*
X81190081Y-72300228D01*
X81190079Y-72300228D01*
X81184911Y-72300165D01*
X80964091Y-72333955D01*
X80751756Y-72403357D01*
X80553607Y-72506507D01*
X80549474Y-72509610D01*
X80549471Y-72509612D01*
X80409643Y-72614598D01*
X80374965Y-72640635D01*
X80371393Y-72644373D01*
X80270599Y-72749848D01*
X80220629Y-72802138D01*
X80113201Y-72959621D01*
X80058293Y-73004621D01*
X79987768Y-73012792D01*
X79924021Y-72981538D01*
X79903324Y-72957054D01*
X79822822Y-72832617D01*
X79822820Y-72832614D01*
X79820014Y-72828277D01*
X79669670Y-72663051D01*
X79665619Y-72659852D01*
X79665615Y-72659848D01*
X79498414Y-72527800D01*
X79498410Y-72527798D01*
X79494359Y-72524598D01*
X79461825Y-72506638D01*
X79352400Y-72446233D01*
X79298789Y-72416638D01*
X79293920Y-72414914D01*
X79293916Y-72414912D01*
X79093087Y-72343795D01*
X79093083Y-72343794D01*
X79088212Y-72342069D01*
X79083119Y-72341162D01*
X79083116Y-72341161D01*
X78873373Y-72303800D01*
X78873367Y-72303799D01*
X78868284Y-72302894D01*
X78794452Y-72301992D01*
X78650081Y-72300228D01*
X78650079Y-72300228D01*
X78644911Y-72300165D01*
X78424091Y-72333955D01*
X78211756Y-72403357D01*
X78013607Y-72506507D01*
X78009474Y-72509610D01*
X78009471Y-72509612D01*
X77869643Y-72614598D01*
X77834965Y-72640635D01*
X77831393Y-72644373D01*
X77730599Y-72749848D01*
X77680629Y-72802138D01*
X77554743Y-72986680D01*
X77515523Y-73071172D01*
X77470017Y-73169208D01*
X77460688Y-73189305D01*
X77400989Y-73404570D01*
X77377251Y-73626695D01*
X77377548Y-73631848D01*
X77377548Y-73631851D01*
X77388007Y-73813240D01*
X77390110Y-73849715D01*
X77391247Y-73854761D01*
X77391248Y-73854767D01*
X77411119Y-73942939D01*
X77439222Y-74067639D01*
X77500673Y-74218976D01*
X77515499Y-74255487D01*
X77523266Y-74274616D01*
X77574019Y-74357438D01*
X77637291Y-74460688D01*
X77639987Y-74465088D01*
X77786250Y-74633938D01*
X77958126Y-74776632D01*
X77976774Y-74787529D01*
X78031445Y-74819476D01*
X78080169Y-74871114D01*
X78093240Y-74940897D01*
X78066509Y-75006669D01*
X78026055Y-75040027D01*
X78013607Y-75046507D01*
X78009474Y-75049610D01*
X78009471Y-75049612D01*
X77896106Y-75134729D01*
X77834965Y-75180635D01*
X77831393Y-75184373D01*
X77714620Y-75306569D01*
X77680629Y-75342138D01*
X77554743Y-75526680D01*
X77516208Y-75609697D01*
X77463105Y-75724099D01*
X77460688Y-75729305D01*
X77400989Y-75944570D01*
X77377251Y-76166695D01*
X77377548Y-76171848D01*
X77377548Y-76171851D01*
X77388749Y-76366109D01*
X77390110Y-76389715D01*
X77391247Y-76394761D01*
X77391248Y-76394767D01*
X77408869Y-76472956D01*
X77439222Y-76607639D01*
X77500673Y-76758976D01*
X77514425Y-76792842D01*
X77523266Y-76814616D01*
X77556269Y-76868472D01*
X77624364Y-76979593D01*
X77639987Y-77005088D01*
X77786250Y-77173938D01*
X77933610Y-77296279D01*
X77946615Y-77307075D01*
X77958126Y-77316632D01*
X78028595Y-77357811D01*
X78031445Y-77359476D01*
X78080169Y-77411114D01*
X78093240Y-77480897D01*
X78066509Y-77546669D01*
X78026055Y-77580027D01*
X78013607Y-77586507D01*
X78009474Y-77589610D01*
X78009471Y-77589612D01*
X77839100Y-77717530D01*
X77834965Y-77720635D01*
X77680629Y-77882138D01*
X77554743Y-78066680D01*
X77532152Y-78115348D01*
X77466389Y-78257024D01*
X77460688Y-78269305D01*
X77400989Y-78484570D01*
X77377251Y-78706695D01*
X77390110Y-78929715D01*
X77391247Y-78934761D01*
X77391248Y-78934767D01*
X77415304Y-79041508D01*
X77439222Y-79147639D01*
X77523266Y-79354616D01*
X77560420Y-79415246D01*
X77637291Y-79540688D01*
X77639987Y-79545088D01*
X77786250Y-79713938D01*
X77958126Y-79856632D01*
X78028595Y-79897811D01*
X78031445Y-79899476D01*
X78080169Y-79951114D01*
X78093240Y-80020897D01*
X78066509Y-80086669D01*
X78026055Y-80120027D01*
X78013607Y-80126507D01*
X78009474Y-80129610D01*
X78009471Y-80129612D01*
X77859337Y-80242336D01*
X77834965Y-80260635D01*
X77831393Y-80264373D01*
X77719745Y-80381206D01*
X77680629Y-80422138D01*
X77677720Y-80426403D01*
X77677714Y-80426411D01*
X77652398Y-80463523D01*
X77554743Y-80606680D01*
X77460688Y-80809305D01*
X77400989Y-81024570D01*
X77377251Y-81246695D01*
X76508000Y-81246695D01*
X76508000Y-72134000D01*
X76528002Y-72065879D01*
X76581658Y-72019386D01*
X76634000Y-72008000D01*
X105237390Y-72008000D01*
X105305511Y-72028002D01*
G37*
%TD.AperFunction*%
%TA.AperFunction,Conductor*%
G36*
X94017595Y-94827106D02*
G01*
X94074430Y-94869653D01*
X94099241Y-94936173D01*
X94093395Y-94984098D01*
X94037969Y-95154680D01*
X94037279Y-95161241D01*
X94037279Y-95161243D01*
X94025332Y-95274912D01*
X94018007Y-95344608D01*
X94018697Y-95351173D01*
X94034080Y-95497530D01*
X94037969Y-95534536D01*
X94096984Y-95716164D01*
X94100287Y-95721886D01*
X94100288Y-95721887D01*
X94175393Y-95851972D01*
X94192131Y-95920967D01*
X94175394Y-95977970D01*
X94145834Y-96029169D01*
X94086819Y-96210797D01*
X94086129Y-96217358D01*
X94086129Y-96217360D01*
X94075368Y-96319745D01*
X94066857Y-96400725D01*
X94067547Y-96407290D01*
X94084515Y-96568727D01*
X94086819Y-96590653D01*
X94145834Y-96772281D01*
X94149137Y-96778003D01*
X94149138Y-96778004D01*
X94219256Y-96899451D01*
X94235994Y-96968446D01*
X94228538Y-97005546D01*
X94215631Y-97041009D01*
X94209197Y-97058685D01*
X94186463Y-97238640D01*
X94191971Y-97294820D01*
X94196634Y-97342376D01*
X94183374Y-97412123D01*
X94160330Y-97443766D01*
X86294916Y-105309180D01*
X86232604Y-105343206D01*
X86183725Y-105344132D01*
X85985373Y-105308800D01*
X85985367Y-105308799D01*
X85980284Y-105307894D01*
X85906452Y-105306992D01*
X85762081Y-105305228D01*
X85762079Y-105305228D01*
X85756911Y-105305165D01*
X85536091Y-105338955D01*
X85323756Y-105408357D01*
X85125607Y-105511507D01*
X85121474Y-105514610D01*
X85121471Y-105514612D01*
X84953624Y-105640635D01*
X84946965Y-105645635D01*
X84913920Y-105680215D01*
X84853280Y-105743671D01*
X84792629Y-105807138D01*
X84789720Y-105811403D01*
X84789714Y-105811411D01*
X84704556Y-105936249D01*
X84666743Y-105991680D01*
X84572688Y-106194305D01*
X84512989Y-106409570D01*
X84489251Y-106631695D01*
X84489548Y-106636848D01*
X84489548Y-106636851D01*
X84499416Y-106808000D01*
X84502110Y-106854715D01*
X84503247Y-106859761D01*
X84503248Y-106859767D01*
X84524026Y-106951962D01*
X84551222Y-107072639D01*
X84635266Y-107279616D01*
X84672685Y-107340678D01*
X84749291Y-107465688D01*
X84751987Y-107470088D01*
X84898250Y-107638938D01*
X85070126Y-107781632D01*
X85085935Y-107790870D01*
X85143445Y-107824476D01*
X85192169Y-107876114D01*
X85205240Y-107945897D01*
X85178509Y-108011669D01*
X85138055Y-108045027D01*
X85125607Y-108051507D01*
X85121474Y-108054610D01*
X85121471Y-108054612D01*
X84951100Y-108182530D01*
X84946965Y-108185635D01*
X84914270Y-108219848D01*
X84816780Y-108321866D01*
X84792629Y-108347138D01*
X84666743Y-108531680D01*
X84572688Y-108734305D01*
X84512989Y-108949570D01*
X84489251Y-109171695D01*
X84502110Y-109394715D01*
X84503247Y-109399761D01*
X84503248Y-109399767D01*
X84516597Y-109459000D01*
X84551222Y-109612639D01*
X84635266Y-109819616D01*
X84637965Y-109824020D01*
X84653680Y-109849665D01*
X84672218Y-109918199D01*
X84650762Y-109985876D01*
X84596122Y-110031208D01*
X84546247Y-110041500D01*
X83155660Y-110041500D01*
X83087539Y-110021498D01*
X83066565Y-110004595D01*
X82675405Y-109613435D01*
X82641379Y-109551123D01*
X82638500Y-109524340D01*
X82638500Y-108321866D01*
X82631745Y-108259684D01*
X82580615Y-108123295D01*
X82493261Y-108006739D01*
X82376705Y-107919385D01*
X82257687Y-107874767D01*
X82200923Y-107832125D01*
X82176223Y-107765564D01*
X82191430Y-107696215D01*
X82212977Y-107667535D01*
X82314052Y-107566812D01*
X82320730Y-107558965D01*
X82445003Y-107386020D01*
X82450313Y-107377183D01*
X82544670Y-107186267D01*
X82548469Y-107176672D01*
X82610377Y-106972910D01*
X82612555Y-106962837D01*
X82613986Y-106951962D01*
X82611775Y-106937778D01*
X82598617Y-106934000D01*
X78612000Y-106934000D01*
X78543879Y-106913998D01*
X78497386Y-106860342D01*
X78486000Y-106808000D01*
X78486000Y-106552000D01*
X78506002Y-106483879D01*
X78559658Y-106437386D01*
X78612000Y-106426000D01*
X82598344Y-106426000D01*
X82611875Y-106422027D01*
X82613180Y-106412947D01*
X82571214Y-106245875D01*
X82567894Y-106236124D01*
X82482972Y-106040814D01*
X82478105Y-106031739D01*
X82362426Y-105852926D01*
X82356136Y-105844757D01*
X82212806Y-105687240D01*
X82205273Y-105680215D01*
X82038139Y-105548222D01*
X82029556Y-105542520D01*
X81992602Y-105522120D01*
X81942631Y-105471687D01*
X81927859Y-105402245D01*
X81952975Y-105335839D01*
X81980327Y-105309232D01*
X82022043Y-105279476D01*
X82159860Y-105181173D01*
X82318096Y-105023489D01*
X82332468Y-105003489D01*
X82445435Y-104846277D01*
X82448453Y-104842077D01*
X82450746Y-104837437D01*
X82452446Y-104834608D01*
X82504674Y-104786518D01*
X82560451Y-104773500D01*
X83625862Y-104773500D01*
X83637045Y-104774027D01*
X83644538Y-104775702D01*
X83652464Y-104775453D01*
X83652465Y-104775453D01*
X83712615Y-104773562D01*
X83716574Y-104773500D01*
X83744485Y-104773500D01*
X83748420Y-104773003D01*
X83748485Y-104772995D01*
X83760322Y-104772062D01*
X83792580Y-104771048D01*
X83796599Y-104770922D01*
X83804518Y-104770673D01*
X83823972Y-104765021D01*
X83843329Y-104761013D01*
X83855559Y-104759468D01*
X83855560Y-104759468D01*
X83863426Y-104758474D01*
X83870797Y-104755555D01*
X83870799Y-104755555D01*
X83904541Y-104742196D01*
X83915771Y-104738351D01*
X83950612Y-104728229D01*
X83950613Y-104728229D01*
X83958222Y-104726018D01*
X83965041Y-104721985D01*
X83965046Y-104721983D01*
X83975657Y-104715707D01*
X83993405Y-104707012D01*
X84012246Y-104699552D01*
X84048016Y-104673564D01*
X84057936Y-104667048D01*
X84089164Y-104648580D01*
X84089167Y-104648578D01*
X84095991Y-104644542D01*
X84110312Y-104630221D01*
X84125346Y-104617380D01*
X84135323Y-104610131D01*
X84141736Y-104605472D01*
X84169927Y-104571395D01*
X84177917Y-104562616D01*
X87065406Y-101675127D01*
X87127718Y-101641101D01*
X87198533Y-101646166D01*
X87228562Y-101662286D01*
X87363406Y-101760256D01*
X87368748Y-101764137D01*
X87374776Y-101766821D01*
X87374778Y-101766822D01*
X87537181Y-101839128D01*
X87543212Y-101841813D01*
X87636613Y-101861666D01*
X87723556Y-101880147D01*
X87723561Y-101880147D01*
X87730013Y-101881519D01*
X87920987Y-101881519D01*
X87927439Y-101880147D01*
X87927444Y-101880147D01*
X88014387Y-101861666D01*
X88107788Y-101841813D01*
X88113819Y-101839128D01*
X88276222Y-101766822D01*
X88276224Y-101766821D01*
X88282252Y-101764137D01*
X88436753Y-101651885D01*
X88441175Y-101646974D01*
X88560121Y-101514871D01*
X88560122Y-101514870D01*
X88564540Y-101509963D01*
X88660027Y-101344575D01*
X88719042Y-101162947D01*
X88722347Y-101131500D01*
X88749359Y-101065843D01*
X88758562Y-101055574D01*
X89544056Y-100270080D01*
X89606368Y-100236054D01*
X89633151Y-100233175D01*
X89689044Y-100233175D01*
X89695496Y-100231803D01*
X89695501Y-100231803D01*
X89782445Y-100213322D01*
X89875845Y-100193469D01*
X89921085Y-100173327D01*
X90044279Y-100118478D01*
X90044281Y-100118477D01*
X90050309Y-100115793D01*
X90204810Y-100003541D01*
X90332597Y-99861619D01*
X90428084Y-99696231D01*
X90487099Y-99514603D01*
X90507061Y-99324675D01*
X90506371Y-99318110D01*
X90487789Y-99141310D01*
X90487789Y-99141308D01*
X90487099Y-99134747D01*
X90428084Y-98953119D01*
X90332597Y-98787731D01*
X90232659Y-98676738D01*
X90201941Y-98612731D01*
X90210706Y-98542277D01*
X90237200Y-98503333D01*
X93884467Y-94856067D01*
X93946779Y-94822041D01*
X94017595Y-94827106D01*
G37*
%TD.AperFunction*%
%TD*%
M02*
