%TF.GenerationSoftware,KiCad,Pcbnew,(6.0.0-0)*%
%TF.CreationDate,2023-01-16T12:19:11+01:00*%
%TF.ProjectId,core-v-mini-mcu-spiboot-fpga,636f7265-2d76-42d6-9d69-6e692d6d6375,rev?*%
%TF.SameCoordinates,Original*%
%TF.FileFunction,Copper,L2,Inr*%
%TF.FilePolarity,Positive*%
%FSLAX46Y46*%
G04 Gerber Fmt 4.6, Leading zero omitted, Abs format (unit mm)*
G04 Created by KiCad (PCBNEW (6.0.0-0)) date 2023-01-16 12:19:11*
%MOMM*%
%LPD*%
G01*
G04 APERTURE LIST*
G04 Aperture macros list*
%AMHorizOval*
0 Thick line with rounded ends*
0 $1 width*
0 $2 $3 position (X,Y) of the first rounded end (center of the circle)*
0 $4 $5 position (X,Y) of the second rounded end (center of the circle)*
0 Add line between two ends*
20,1,$1,$2,$3,$4,$5,0*
0 Add two circle primitives to create the rounded ends*
1,1,$1,$2,$3*
1,1,$1,$4,$5*%
G04 Aperture macros list end*
%TA.AperFunction,ComponentPad*%
%ADD10O,1.700000X1.700000*%
%TD*%
%TA.AperFunction,ComponentPad*%
%ADD11R,1.700000X1.700000*%
%TD*%
%TA.AperFunction,ComponentPad*%
%ADD12HorizOval,1.200000X-0.247487X-0.247487X0.247487X0.247487X0*%
%TD*%
%TA.AperFunction,ComponentPad*%
%ADD13HorizOval,1.200000X0.247487X0.247487X-0.247487X-0.247487X0*%
%TD*%
%TA.AperFunction,ComponentPad*%
%ADD14C,1.450000*%
%TD*%
%TA.AperFunction,ViaPad*%
%ADD15C,0.800000*%
%TD*%
%TA.AperFunction,ViaPad*%
%ADD16C,0.600000*%
%TD*%
%TA.AperFunction,Conductor*%
%ADD17C,0.250000*%
%TD*%
G04 APERTURE END LIST*
D10*
%TO.N,/3V3_LDO*%
%TO.C,J2*%
X112450000Y-104120000D03*
%TO.N,+3V3*%
X112450000Y-106660000D03*
D11*
%TO.N,/3V3_PMOD*%
X112450000Y-109200000D03*
%TD*%
D10*
%TO.N,/RX1*%
%TO.C,J1*%
X85852000Y-109205000D03*
%TO.N,/TX1*%
X85852000Y-106665000D03*
%TO.N,/A7*%
X88392000Y-109205000D03*
%TO.N,/A6*%
X88392000Y-106665000D03*
%TO.N,/B5*%
X90932000Y-109205000D03*
%TO.N,/SPI_CS*%
X90932000Y-106665000D03*
%TO.N,/C3*%
X93472000Y-109205000D03*
%TO.N,/C2*%
X93472000Y-106665000D03*
%TO.N,/C5*%
X96012000Y-109205000D03*
%TO.N,/C4*%
X96012000Y-106665000D03*
%TO.N,/C7*%
X98552000Y-109205000D03*
%TO.N,/C6*%
X98552000Y-106665000D03*
%TO.N,/D3*%
X101092000Y-109205000D03*
%TO.N,/D2*%
X101092000Y-106665000D03*
%TO.N,/D5*%
X103632000Y-109205000D03*
%TO.N,/D4*%
X103632000Y-106665000D03*
%TO.N,/D7*%
X106172000Y-109205000D03*
%TO.N,/D6*%
X106172000Y-106665000D03*
%TO.N,GND*%
X108712000Y-109205000D03*
D11*
%TO.N,+3V3*%
X108712000Y-106665000D03*
%TD*%
%TO.N,/FLASH_CS*%
%TO.C,JSPICS1*%
X88975000Y-73750000D03*
D10*
%TO.N,/iCE_SS_B*%
X91515000Y-73750000D03*
%TD*%
D11*
%TO.N,/3V3_PMOD*%
%TO.C,PMOD1*%
X81280000Y-109220000D03*
D10*
X78740000Y-109220000D03*
%TO.N,GND*%
X81280000Y-106680000D03*
X78740000Y-106680000D03*
%TO.N,/A5*%
X81280000Y-104140000D03*
%TO.N,/A4*%
X78740000Y-104140000D03*
%TO.N,/TMS*%
X81280000Y-101600000D03*
%TO.N,/TDO*%
X78740000Y-101600000D03*
%TO.N,/TDI*%
X81280000Y-99060000D03*
%TO.N,/TCK*%
X78740000Y-99060000D03*
%TO.N,/RX0*%
X81280000Y-96520000D03*
%TO.N,/TX0*%
X78740000Y-96520000D03*
%TD*%
D12*
%TO.N,Net-(P1-Pad6)*%
%TO.C,P1*%
X111078217Y-79425514D03*
D13*
X106128470Y-74475767D03*
D14*
X108461922Y-80627596D03*
X104926388Y-77092062D03*
%TD*%
D11*
%TO.N,/3V3_PMOD*%
%TO.C,PMOD2*%
X81280000Y-86360000D03*
D10*
X78740000Y-86360000D03*
%TO.N,GND*%
X81280000Y-83820000D03*
X78740000Y-83820000D03*
%TO.N,/iCE_CRESET*%
X81280000Y-81280000D03*
%TO.N,/iCE_CDONE*%
X78740000Y-81280000D03*
%TO.N,/FLASH_nHLD_nRST*%
X81280000Y-78740000D03*
%TO.N,/FLASH_nWP*%
X78740000Y-78740000D03*
%TO.N,/FLASH_MISO*%
X81280000Y-76200000D03*
%TO.N,/FLASH_MOSI*%
X78740000Y-76200000D03*
%TO.N,/FLASH_SCK*%
X81280000Y-73660000D03*
%TO.N,/FLASH_CS*%
X78740000Y-73660000D03*
%TD*%
D15*
%TO.N,GND*%
X87500000Y-84250000D03*
D16*
%TO.N,/RX1*%
X96750000Y-96500000D03*
%TO.N,/TX1*%
X95000000Y-97250000D03*
D15*
%TO.N,+3V3*%
X85200000Y-87350000D03*
D16*
%TO.N,/A4*%
X94500000Y-91450000D03*
%TO.N,/A5*%
X94700000Y-92500000D03*
D15*
%TO.N,GND*%
X110250000Y-104050000D03*
X111850000Y-96250000D03*
X113550000Y-97650000D03*
D16*
%TO.N,+5V*%
X111000000Y-97300000D03*
X109100000Y-97300000D03*
X110000000Y-80700000D03*
D15*
%TO.N,GND*%
X105250000Y-86450000D03*
X104150000Y-85350000D03*
X104250000Y-91000000D03*
X109600000Y-92100000D03*
X109500000Y-88850000D03*
%TO.N,/VCORE*%
X105500000Y-87450000D03*
X103250000Y-91050000D03*
%TO.N,+3V3*%
X106250000Y-83050000D03*
%TO.N,/VCORE*%
X101250000Y-92000000D03*
X92160180Y-94072795D03*
X97283226Y-87535325D03*
%TO.N,GND*%
X96598430Y-86807273D03*
X94750000Y-99500000D03*
X85000000Y-94500000D03*
X91739375Y-102464514D03*
X101000000Y-82750000D03*
X100250000Y-90500000D03*
X89500000Y-84250000D03*
X99750000Y-77000000D03*
X100750000Y-101500000D03*
X111888123Y-85778922D03*
X91626968Y-89610996D03*
X104500000Y-79000000D03*
X90500000Y-91500000D03*
X83500000Y-81000000D03*
X98275979Y-100447559D03*
%TO.N,+3V3*%
X96250000Y-75500000D03*
X95500000Y-80750000D03*
X97250000Y-99750000D03*
X90250000Y-83000000D03*
X98250000Y-94750000D03*
X89593557Y-99324675D03*
X87825500Y-100973019D03*
X87750000Y-89000000D03*
X104250000Y-81250000D03*
X92750000Y-84000000D03*
%TO.N,/A6*%
X95152962Y-93765920D03*
%TO.N,/A7*%
X95593575Y-94607000D03*
%TO.N,/B5*%
X94980361Y-96400725D03*
%TO.N,/iCE_SS_B*%
X88424500Y-88146516D03*
%TO.N,/TCK*%
X95896260Y-86004568D03*
%TO.N,/TDI*%
X95900892Y-88156858D03*
%TO.N,/TDO*%
X95255997Y-88853755D03*
%TO.N,/TMS*%
X94959746Y-89755858D03*
%TO.N,/FLASH_MOSI*%
X89025500Y-80500000D03*
X89215479Y-86721961D03*
%TO.N,/FLASH_nHLD_nRST*%
X88012299Y-78487701D03*
%TO.N,/SPI_CS*%
X94931511Y-95344608D03*
%TD*%
D17*
%TO.N,/B5*%
X92699510Y-98681576D02*
X94980361Y-96400725D01*
X90932000Y-109188000D02*
X92297489Y-107822511D01*
X92297489Y-107822511D02*
X92297489Y-102860290D01*
X92297489Y-102860290D02*
X92699510Y-102458269D01*
X92699510Y-102458269D02*
X92699510Y-98681576D01*
%TO.N,/A6*%
X90294958Y-98044738D02*
X94573776Y-93765920D01*
%TO.N,/A7*%
X89724501Y-107855499D02*
X89724501Y-100819677D01*
X94368400Y-94607000D02*
X95593575Y-94607000D01*
X90744469Y-98230931D02*
X94368400Y-94607000D01*
%TO.N,/A6*%
X89274599Y-100633875D02*
X90294958Y-99613516D01*
X89274599Y-105765401D02*
X89274599Y-100633875D01*
X94573776Y-93765920D02*
X95152962Y-93765920D01*
X90294958Y-99613516D02*
X90294958Y-98044738D01*
%TO.N,/A7*%
X88392000Y-109188000D02*
X89724501Y-107855499D01*
X89724501Y-100819677D02*
X90744469Y-99799709D01*
X90744469Y-99799709D02*
X90744469Y-98230931D01*
%TO.N,/A6*%
X88392000Y-106648000D02*
X89274599Y-105765401D01*
%TO.N,/SPI_CS*%
X91193979Y-99082140D02*
X94931511Y-95344608D01*
X90931994Y-106647994D02*
X90931994Y-100247887D01*
X91193980Y-99985901D02*
X91193979Y-99082140D01*
X90932000Y-106648000D02*
X90931994Y-106647994D01*
X90931994Y-100247887D02*
X91193980Y-99985901D01*
%TD*%
%TA.AperFunction,Conductor*%
%TO.N,+3V3*%
G36*
X105305511Y-72028002D02*
G01*
X105326485Y-72044905D01*
X106212371Y-72930791D01*
X106246397Y-72993103D01*
X106241332Y-73063918D01*
X106198785Y-73120754D01*
X106149796Y-73143063D01*
X106039255Y-73166862D01*
X106033743Y-73169207D01*
X106033741Y-73169208D01*
X105986511Y-73189305D01*
X105844621Y-73249680D01*
X105669158Y-73367808D01*
X105665033Y-73371549D01*
X105059787Y-73976794D01*
X104958903Y-74098959D01*
X104857487Y-74284583D01*
X104814211Y-74419778D01*
X104799576Y-74465499D01*
X104793002Y-74486035D01*
X104792288Y-74491981D01*
X104770588Y-74672618D01*
X104767773Y-74696047D01*
X104768196Y-74702022D01*
X104768196Y-74702025D01*
X104779852Y-74866632D01*
X104782713Y-74907042D01*
X104784260Y-74912835D01*
X104784260Y-74912836D01*
X104834929Y-75102598D01*
X104837280Y-75111404D01*
X104839894Y-75116799D01*
X104839895Y-75116802D01*
X104883533Y-75206870D01*
X104929507Y-75301761D01*
X105056066Y-75471244D01*
X105212389Y-75613736D01*
X105217503Y-75616864D01*
X105217506Y-75616866D01*
X105277559Y-75653594D01*
X105325236Y-75706200D01*
X105336904Y-75776231D01*
X105308858Y-75841453D01*
X105250002Y-75881159D01*
X105179207Y-75882791D01*
X105146716Y-75874085D01*
X105146714Y-75874085D01*
X105141401Y-75872661D01*
X104926388Y-75853850D01*
X104711375Y-75872661D01*
X104706062Y-75874085D01*
X104706060Y-75874085D01*
X104508205Y-75927100D01*
X104508203Y-75927101D01*
X104502895Y-75928523D01*
X104497914Y-75930845D01*
X104497913Y-75930846D01*
X104312269Y-76017413D01*
X104312264Y-76017416D01*
X104307282Y-76019739D01*
X104208294Y-76089052D01*
X104144257Y-76133891D01*
X104130481Y-76143537D01*
X103977863Y-76296155D01*
X103974706Y-76300663D01*
X103974704Y-76300666D01*
X103923378Y-76373968D01*
X103854065Y-76472956D01*
X103851742Y-76477938D01*
X103851739Y-76477943D01*
X103778629Y-76634729D01*
X103762849Y-76668569D01*
X103761427Y-76673877D01*
X103761426Y-76673879D01*
X103708411Y-76871734D01*
X103706987Y-76877049D01*
X103688176Y-77092062D01*
X103706987Y-77307075D01*
X103708411Y-77312388D01*
X103708411Y-77312390D01*
X103754222Y-77483357D01*
X103762849Y-77515555D01*
X103765171Y-77520536D01*
X103765172Y-77520537D01*
X103851739Y-77706181D01*
X103851742Y-77706186D01*
X103854065Y-77711168D01*
X103874147Y-77739848D01*
X103972660Y-77880538D01*
X103977863Y-77887969D01*
X104090421Y-78000527D01*
X104124447Y-78062839D01*
X104119382Y-78133654D01*
X104076835Y-78190490D01*
X104052578Y-78204727D01*
X104049285Y-78206193D01*
X104049276Y-78206198D01*
X104043248Y-78208882D01*
X103888747Y-78321134D01*
X103760960Y-78463056D01*
X103665473Y-78628444D01*
X103606458Y-78810072D01*
X103605768Y-78816633D01*
X103605768Y-78816635D01*
X103594426Y-78924547D01*
X103586496Y-79000000D01*
X103587186Y-79006565D01*
X103604003Y-79166567D01*
X103606458Y-79189928D01*
X103665473Y-79371556D01*
X103668776Y-79377278D01*
X103668777Y-79377279D01*
X103687449Y-79409619D01*
X103760960Y-79536944D01*
X103888747Y-79678866D01*
X104043248Y-79791118D01*
X104049276Y-79793802D01*
X104049278Y-79793803D01*
X104211681Y-79866109D01*
X104217712Y-79868794D01*
X104311113Y-79888647D01*
X104398056Y-79907128D01*
X104398061Y-79907128D01*
X104404513Y-79908500D01*
X104595487Y-79908500D01*
X104601939Y-79907128D01*
X104601944Y-79907128D01*
X104688887Y-79888647D01*
X104782288Y-79868794D01*
X104788319Y-79866109D01*
X104950722Y-79793803D01*
X104950724Y-79793802D01*
X104956752Y-79791118D01*
X105111253Y-79678866D01*
X105239040Y-79536944D01*
X105312551Y-79409619D01*
X105331223Y-79377279D01*
X105331224Y-79377278D01*
X105334527Y-79371556D01*
X105393542Y-79189928D01*
X105395998Y-79166567D01*
X105412814Y-79006565D01*
X105413504Y-79000000D01*
X105405574Y-78924547D01*
X105394232Y-78816635D01*
X105394232Y-78816633D01*
X105393542Y-78810072D01*
X105334527Y-78628444D01*
X105239040Y-78463056D01*
X105237455Y-78461296D01*
X105214125Y-78395910D01*
X105230204Y-78326758D01*
X105281117Y-78277277D01*
X105307309Y-78267008D01*
X105344569Y-78257025D01*
X105344576Y-78257023D01*
X105349881Y-78255601D01*
X105354863Y-78253278D01*
X105540507Y-78166711D01*
X105540512Y-78166708D01*
X105545494Y-78164385D01*
X105647739Y-78092792D01*
X105717784Y-78043746D01*
X105717787Y-78043744D01*
X105722295Y-78040587D01*
X105874913Y-77887969D01*
X105880117Y-77880538D01*
X105978629Y-77739848D01*
X105998711Y-77711168D01*
X106001034Y-77706186D01*
X106001037Y-77706181D01*
X106087604Y-77520537D01*
X106087605Y-77520536D01*
X106089927Y-77515555D01*
X106098555Y-77483357D01*
X106144365Y-77312390D01*
X106144365Y-77312388D01*
X106145789Y-77307075D01*
X106164600Y-77092062D01*
X106145789Y-76877049D01*
X106144365Y-76871734D01*
X106091350Y-76673879D01*
X106091349Y-76673877D01*
X106089927Y-76668569D01*
X106074147Y-76634729D01*
X106001037Y-76477943D01*
X106001034Y-76477938D01*
X105998711Y-76472956D01*
X105929398Y-76373968D01*
X105878072Y-76300666D01*
X105878070Y-76300663D01*
X105874913Y-76296155D01*
X105722295Y-76143537D01*
X105717784Y-76140378D01*
X105572275Y-76038491D01*
X105527947Y-75983034D01*
X105520638Y-75912414D01*
X105552669Y-75849054D01*
X105613870Y-75813069D01*
X105665666Y-75811061D01*
X105799429Y-75833806D01*
X105878584Y-75832079D01*
X106004902Y-75829322D01*
X106004903Y-75829322D01*
X106010900Y-75829191D01*
X106016760Y-75827929D01*
X106016763Y-75827929D01*
X106154162Y-75798348D01*
X106217685Y-75784672D01*
X106223197Y-75782327D01*
X106223199Y-75782326D01*
X106389870Y-75711406D01*
X106412319Y-75701854D01*
X106587782Y-75583726D01*
X106591907Y-75579985D01*
X107197153Y-74974740D01*
X107206633Y-74963261D01*
X107253058Y-74907042D01*
X107298037Y-74852575D01*
X107399453Y-74666951D01*
X107463938Y-74465499D01*
X107464653Y-74459543D01*
X107465014Y-74457890D01*
X107499069Y-74395594D01*
X107561398Y-74361599D01*
X107632211Y-74366697D01*
X107677217Y-74395637D01*
X111162118Y-77880538D01*
X111196144Y-77942850D01*
X111191079Y-78013665D01*
X111148532Y-78070501D01*
X111099543Y-78092810D01*
X110989002Y-78116609D01*
X110983490Y-78118954D01*
X110983488Y-78118955D01*
X110954697Y-78131206D01*
X110794368Y-78199427D01*
X110618905Y-78317555D01*
X110614780Y-78321296D01*
X110009534Y-78926541D01*
X109908650Y-79048706D01*
X109807234Y-79234330D01*
X109770263Y-79349829D01*
X109749323Y-79415246D01*
X109742749Y-79435782D01*
X109739073Y-79466380D01*
X109720200Y-79623489D01*
X109717520Y-79645794D01*
X109717943Y-79651769D01*
X109717943Y-79651772D01*
X109719862Y-79678866D01*
X109729936Y-79821134D01*
X109731211Y-79839145D01*
X109716071Y-79908509D01*
X109665833Y-79958675D01*
X109660011Y-79961628D01*
X109653579Y-79963818D01*
X109647580Y-79967509D01*
X109641204Y-79970509D01*
X109640411Y-79968824D01*
X109580930Y-79985020D01*
X109513218Y-79963676D01*
X109480207Y-79931316D01*
X109413606Y-79836200D01*
X109413604Y-79836197D01*
X109410447Y-79831689D01*
X109257829Y-79679071D01*
X109081028Y-79555273D01*
X109076046Y-79552950D01*
X109076041Y-79552947D01*
X108890397Y-79466380D01*
X108890396Y-79466379D01*
X108885415Y-79464057D01*
X108880107Y-79462635D01*
X108880105Y-79462634D01*
X108682250Y-79409619D01*
X108682248Y-79409619D01*
X108676935Y-79408195D01*
X108461922Y-79389384D01*
X108246909Y-79408195D01*
X108241596Y-79409619D01*
X108241594Y-79409619D01*
X108043739Y-79462634D01*
X108043737Y-79462635D01*
X108038429Y-79464057D01*
X108033448Y-79466379D01*
X108033447Y-79466380D01*
X107847803Y-79552947D01*
X107847798Y-79552950D01*
X107842816Y-79555273D01*
X107666015Y-79679071D01*
X107513397Y-79831689D01*
X107510240Y-79836197D01*
X107510238Y-79836200D01*
X107486455Y-79870166D01*
X107389599Y-80008490D01*
X107387276Y-80013472D01*
X107387273Y-80013477D01*
X107321508Y-80154511D01*
X107298383Y-80204103D01*
X107296961Y-80209411D01*
X107296960Y-80209413D01*
X107265709Y-80326045D01*
X107242521Y-80412583D01*
X107223710Y-80627596D01*
X107242521Y-80842609D01*
X107243945Y-80847922D01*
X107243945Y-80847924D01*
X107282935Y-80993435D01*
X107298383Y-81051089D01*
X107300705Y-81056070D01*
X107300706Y-81056071D01*
X107387273Y-81241715D01*
X107387276Y-81241720D01*
X107389599Y-81246702D01*
X107417982Y-81287237D01*
X107508568Y-81416606D01*
X107513397Y-81423503D01*
X107666015Y-81576121D01*
X107842816Y-81699919D01*
X107847798Y-81702242D01*
X107847803Y-81702245D01*
X108033447Y-81788812D01*
X108038429Y-81791135D01*
X108043737Y-81792557D01*
X108043739Y-81792558D01*
X108241594Y-81845573D01*
X108241596Y-81845573D01*
X108246909Y-81846997D01*
X108461922Y-81865808D01*
X108676935Y-81846997D01*
X108682248Y-81845573D01*
X108682250Y-81845573D01*
X108880105Y-81792558D01*
X108880107Y-81792557D01*
X108885415Y-81791135D01*
X108890397Y-81788812D01*
X109076041Y-81702245D01*
X109076046Y-81702242D01*
X109081028Y-81699919D01*
X109257829Y-81576121D01*
X109410447Y-81423503D01*
X109413600Y-81419000D01*
X109415609Y-81416606D01*
X109474720Y-81377282D01*
X109545708Y-81376158D01*
X109581119Y-81392168D01*
X109633159Y-81426222D01*
X109639763Y-81428678D01*
X109639765Y-81428679D01*
X109796558Y-81486990D01*
X109796560Y-81486990D01*
X109803168Y-81489448D01*
X109886995Y-81500633D01*
X109975980Y-81512507D01*
X109975984Y-81512507D01*
X109982961Y-81513438D01*
X109989972Y-81512800D01*
X109989976Y-81512800D01*
X110132459Y-81499832D01*
X110163600Y-81496998D01*
X110170302Y-81494820D01*
X110170304Y-81494820D01*
X110329409Y-81443124D01*
X110329412Y-81443123D01*
X110336108Y-81440947D01*
X110461650Y-81366109D01*
X110485860Y-81351677D01*
X110485862Y-81351676D01*
X110491912Y-81348069D01*
X110623266Y-81222982D01*
X110723643Y-81071902D01*
X110788055Y-80902338D01*
X110790009Y-80888435D01*
X110819296Y-80823761D01*
X110878899Y-80785187D01*
X110912034Y-80779999D01*
X110954649Y-80779069D01*
X110954650Y-80779069D01*
X110960647Y-80778938D01*
X110966507Y-80777676D01*
X110966510Y-80777676D01*
X111081437Y-80752933D01*
X111167432Y-80734419D01*
X111172944Y-80732074D01*
X111172946Y-80732073D01*
X111287416Y-80683365D01*
X111362066Y-80651601D01*
X111537529Y-80533473D01*
X111541654Y-80529732D01*
X112146900Y-79924487D01*
X112158124Y-79910896D01*
X112192891Y-79868794D01*
X112247784Y-79802322D01*
X112349200Y-79616698D01*
X112413685Y-79415246D01*
X112414400Y-79409290D01*
X112414761Y-79407637D01*
X112448816Y-79345341D01*
X112511145Y-79311346D01*
X112581958Y-79316444D01*
X112626964Y-79345384D01*
X113955095Y-80673515D01*
X113989121Y-80735827D01*
X113992000Y-80762610D01*
X113992000Y-96660401D01*
X113971998Y-96728522D01*
X113918342Y-96775015D01*
X113848068Y-96785119D01*
X113833430Y-96781714D01*
X113832288Y-96781206D01*
X113801021Y-96774560D01*
X113651944Y-96742872D01*
X113651939Y-96742872D01*
X113645487Y-96741500D01*
X113454513Y-96741500D01*
X113448061Y-96742872D01*
X113448056Y-96742872D01*
X113362190Y-96761124D01*
X113267712Y-96781206D01*
X113261682Y-96783891D01*
X113261681Y-96783891D01*
X113099278Y-96856197D01*
X113099276Y-96856198D01*
X113093248Y-96858882D01*
X113087907Y-96862762D01*
X113087906Y-96862763D01*
X113067247Y-96877773D01*
X112938747Y-96971134D01*
X112934326Y-96976044D01*
X112934325Y-96976045D01*
X112873316Y-97043803D01*
X112810960Y-97113056D01*
X112783726Y-97160227D01*
X112721066Y-97268757D01*
X112715473Y-97278444D01*
X112656458Y-97460072D01*
X112655768Y-97466633D01*
X112655768Y-97466635D01*
X112646215Y-97557529D01*
X112636496Y-97650000D01*
X112637186Y-97656565D01*
X112655188Y-97827841D01*
X112656458Y-97839928D01*
X112715473Y-98021556D01*
X112718776Y-98027278D01*
X112718777Y-98027279D01*
X112749537Y-98080557D01*
X112810960Y-98186944D01*
X112938747Y-98328866D01*
X113093248Y-98441118D01*
X113099276Y-98443802D01*
X113099278Y-98443803D01*
X113261681Y-98516109D01*
X113267712Y-98518794D01*
X113361113Y-98538647D01*
X113448056Y-98557128D01*
X113448061Y-98557128D01*
X113454513Y-98558500D01*
X113645487Y-98558500D01*
X113651939Y-98557128D01*
X113651944Y-98557128D01*
X113825833Y-98520166D01*
X113825832Y-98520166D01*
X113827809Y-98519746D01*
X113827811Y-98519746D01*
X113832288Y-98518794D01*
X113832462Y-98519613D01*
X113898028Y-98517738D01*
X113958827Y-98554398D01*
X113990154Y-98618110D01*
X113992000Y-98639599D01*
X113992000Y-103663403D01*
X113971998Y-103731524D01*
X113918342Y-103778017D01*
X113848068Y-103788121D01*
X113783488Y-103758627D01*
X113743796Y-103694098D01*
X113741692Y-103685722D01*
X113741692Y-103685721D01*
X113740431Y-103680702D01*
X113651354Y-103475840D01*
X113574053Y-103356351D01*
X113532822Y-103292617D01*
X113532820Y-103292614D01*
X113530014Y-103288277D01*
X113379670Y-103123051D01*
X113375619Y-103119852D01*
X113375615Y-103119848D01*
X113208414Y-102987800D01*
X113208410Y-102987798D01*
X113204359Y-102984598D01*
X113008789Y-102876638D01*
X113003920Y-102874914D01*
X113003916Y-102874912D01*
X112803087Y-102803795D01*
X112803083Y-102803794D01*
X112798212Y-102802069D01*
X112793119Y-102801162D01*
X112793116Y-102801161D01*
X112583373Y-102763800D01*
X112583367Y-102763799D01*
X112578284Y-102762894D01*
X112504452Y-102761992D01*
X112360081Y-102760228D01*
X112360079Y-102760228D01*
X112354911Y-102760165D01*
X112134091Y-102793955D01*
X111921756Y-102863357D01*
X111723607Y-102966507D01*
X111719474Y-102969610D01*
X111719471Y-102969612D01*
X111564738Y-103085789D01*
X111544965Y-103100635D01*
X111390629Y-103262138D01*
X111387715Y-103266410D01*
X111387714Y-103266411D01*
X111326361Y-103356351D01*
X111264743Y-103446680D01*
X111231278Y-103518774D01*
X111226917Y-103528170D01*
X111180092Y-103581536D01*
X111111849Y-103601117D01*
X111043854Y-103580693D01*
X111003510Y-103538119D01*
X110992341Y-103518774D01*
X110989040Y-103513056D01*
X110861253Y-103371134D01*
X110738761Y-103282138D01*
X110712094Y-103262763D01*
X110712093Y-103262762D01*
X110706752Y-103258882D01*
X110700724Y-103256198D01*
X110700722Y-103256197D01*
X110538319Y-103183891D01*
X110538318Y-103183891D01*
X110532288Y-103181206D01*
X110438887Y-103161353D01*
X110351944Y-103142872D01*
X110351939Y-103142872D01*
X110345487Y-103141500D01*
X110154513Y-103141500D01*
X110148061Y-103142872D01*
X110148056Y-103142872D01*
X110061112Y-103161353D01*
X109967712Y-103181206D01*
X109961682Y-103183891D01*
X109961681Y-103183891D01*
X109799278Y-103256197D01*
X109799276Y-103256198D01*
X109793248Y-103258882D01*
X109787907Y-103262762D01*
X109787906Y-103262763D01*
X109761239Y-103282138D01*
X109638747Y-103371134D01*
X109510960Y-103513056D01*
X109415473Y-103678444D01*
X109356458Y-103860072D01*
X109336496Y-104050000D01*
X109356458Y-104239928D01*
X109415473Y-104421556D01*
X109510960Y-104586944D01*
X109515378Y-104591851D01*
X109515379Y-104591852D01*
X109521894Y-104599088D01*
X109638747Y-104728866D01*
X109793248Y-104841118D01*
X109799276Y-104843802D01*
X109799278Y-104843803D01*
X109961681Y-104916109D01*
X109967712Y-104918794D01*
X110061112Y-104938647D01*
X110148056Y-104957128D01*
X110148061Y-104957128D01*
X110154513Y-104958500D01*
X110345487Y-104958500D01*
X110351939Y-104957128D01*
X110351944Y-104957128D01*
X110438888Y-104938647D01*
X110532288Y-104918794D01*
X110538319Y-104916109D01*
X110700722Y-104843803D01*
X110700724Y-104843802D01*
X110706752Y-104841118D01*
X110861253Y-104728866D01*
X110981370Y-104595462D01*
X111041815Y-104558223D01*
X111112798Y-104559575D01*
X111171783Y-104599088D01*
X111191748Y-104632369D01*
X111233266Y-104734616D01*
X111235965Y-104739020D01*
X111344485Y-104916109D01*
X111349987Y-104925088D01*
X111496250Y-105093938D01*
X111668126Y-105236632D01*
X111702352Y-105256632D01*
X111741955Y-105279774D01*
X111790679Y-105331412D01*
X111803750Y-105401195D01*
X111777019Y-105466967D01*
X111736562Y-105500327D01*
X111728457Y-105504546D01*
X111719738Y-105510036D01*
X111549433Y-105637905D01*
X111541726Y-105644748D01*
X111394590Y-105798717D01*
X111388104Y-105806727D01*
X111268098Y-105982649D01*
X111263000Y-105991623D01*
X111173338Y-106184783D01*
X111169775Y-106194470D01*
X111114389Y-106394183D01*
X111115912Y-106402607D01*
X111128292Y-106406000D01*
X112578000Y-106406000D01*
X112646121Y-106426002D01*
X112692614Y-106479658D01*
X112704000Y-106532000D01*
X112704000Y-106788000D01*
X112683998Y-106856121D01*
X112630342Y-106902614D01*
X112578000Y-106914000D01*
X111133225Y-106914000D01*
X111119694Y-106917973D01*
X111118257Y-106927966D01*
X111148565Y-107062446D01*
X111151645Y-107072275D01*
X111231770Y-107269603D01*
X111236413Y-107278794D01*
X111347694Y-107460388D01*
X111353777Y-107468699D01*
X111493213Y-107629667D01*
X111500577Y-107636879D01*
X111505522Y-107640985D01*
X111545156Y-107699889D01*
X111546653Y-107770870D01*
X111509537Y-107831392D01*
X111469264Y-107855910D01*
X111361705Y-107896232D01*
X111361704Y-107896233D01*
X111353295Y-107899385D01*
X111236739Y-107986739D01*
X111149385Y-108103295D01*
X111098255Y-108239684D01*
X111091500Y-108301866D01*
X111091500Y-110098134D01*
X111098255Y-110160316D01*
X111149385Y-110296705D01*
X111236739Y-110413261D01*
X111353295Y-110500615D01*
X111489684Y-110551745D01*
X111551866Y-110558500D01*
X113348134Y-110558500D01*
X113410316Y-110551745D01*
X113546705Y-110500615D01*
X113663261Y-110413261D01*
X113741927Y-110308297D01*
X113745231Y-110303889D01*
X113745231Y-110303888D01*
X113750615Y-110296705D01*
X113753767Y-110288297D01*
X113755480Y-110285169D01*
X113805738Y-110235023D01*
X113875129Y-110220009D01*
X113941622Y-110244894D01*
X113984105Y-110301778D01*
X113992000Y-110345678D01*
X113992000Y-110866000D01*
X113971998Y-110934121D01*
X113918342Y-110980614D01*
X113866000Y-110992000D01*
X76634000Y-110992000D01*
X76565879Y-110971998D01*
X76519386Y-110918342D01*
X76508000Y-110866000D01*
X76508000Y-109186695D01*
X77377251Y-109186695D01*
X77390110Y-109409715D01*
X77391247Y-109414761D01*
X77391248Y-109414767D01*
X77407739Y-109487939D01*
X77439222Y-109627639D01*
X77523266Y-109834616D01*
X77525965Y-109839020D01*
X77628099Y-110005688D01*
X77639987Y-110025088D01*
X77786250Y-110193938D01*
X77958126Y-110336632D01*
X78151000Y-110449338D01*
X78359692Y-110529030D01*
X78364760Y-110530061D01*
X78364763Y-110530062D01*
X78471339Y-110551745D01*
X78578597Y-110573567D01*
X78583772Y-110573757D01*
X78583774Y-110573757D01*
X78796673Y-110581564D01*
X78796677Y-110581564D01*
X78801837Y-110581753D01*
X78806957Y-110581097D01*
X78806959Y-110581097D01*
X79018288Y-110554025D01*
X79018289Y-110554025D01*
X79023416Y-110553368D01*
X79038072Y-110548971D01*
X79232429Y-110490661D01*
X79232434Y-110490659D01*
X79237384Y-110489174D01*
X79437994Y-110390896D01*
X79619860Y-110261173D01*
X79728091Y-110153319D01*
X79790462Y-110119404D01*
X79861268Y-110124592D01*
X79918030Y-110167238D01*
X79935012Y-110198341D01*
X79957201Y-110257529D01*
X79979385Y-110316705D01*
X80066739Y-110433261D01*
X80183295Y-110520615D01*
X80319684Y-110571745D01*
X80381866Y-110578500D01*
X82178134Y-110578500D01*
X82240316Y-110571745D01*
X82376705Y-110520615D01*
X82493261Y-110433261D01*
X82580615Y-110316705D01*
X82631745Y-110180316D01*
X82638500Y-110118134D01*
X82638500Y-109171695D01*
X84489251Y-109171695D01*
X84489548Y-109176848D01*
X84489548Y-109176851D01*
X84495011Y-109271590D01*
X84502110Y-109394715D01*
X84503247Y-109399761D01*
X84503248Y-109399767D01*
X84505490Y-109409715D01*
X84551222Y-109612639D01*
X84635266Y-109819616D01*
X84681877Y-109895678D01*
X84749291Y-110005688D01*
X84751987Y-110010088D01*
X84898250Y-110178938D01*
X85070126Y-110321632D01*
X85263000Y-110434338D01*
X85471692Y-110514030D01*
X85476760Y-110515061D01*
X85476763Y-110515062D01*
X85550491Y-110530062D01*
X85690597Y-110558567D01*
X85695772Y-110558757D01*
X85695774Y-110558757D01*
X85908673Y-110566564D01*
X85908677Y-110566564D01*
X85913837Y-110566753D01*
X85918957Y-110566097D01*
X85918959Y-110566097D01*
X86130288Y-110539025D01*
X86130289Y-110539025D01*
X86135416Y-110538368D01*
X86140366Y-110536883D01*
X86344429Y-110475661D01*
X86344434Y-110475659D01*
X86349384Y-110474174D01*
X86549994Y-110375896D01*
X86731860Y-110246173D01*
X86779860Y-110198341D01*
X86825901Y-110152460D01*
X86890096Y-110088489D01*
X86949594Y-110005689D01*
X87020453Y-109907077D01*
X87021776Y-109908028D01*
X87068645Y-109864857D01*
X87138580Y-109852625D01*
X87204026Y-109880144D01*
X87231875Y-109911994D01*
X87291987Y-110010088D01*
X87438250Y-110178938D01*
X87610126Y-110321632D01*
X87803000Y-110434338D01*
X88011692Y-110514030D01*
X88016760Y-110515061D01*
X88016763Y-110515062D01*
X88090491Y-110530062D01*
X88230597Y-110558567D01*
X88235772Y-110558757D01*
X88235774Y-110558757D01*
X88448673Y-110566564D01*
X88448677Y-110566564D01*
X88453837Y-110566753D01*
X88458957Y-110566097D01*
X88458959Y-110566097D01*
X88670288Y-110539025D01*
X88670289Y-110539025D01*
X88675416Y-110538368D01*
X88680366Y-110536883D01*
X88884429Y-110475661D01*
X88884434Y-110475659D01*
X88889384Y-110474174D01*
X89089994Y-110375896D01*
X89271860Y-110246173D01*
X89319860Y-110198341D01*
X89365901Y-110152460D01*
X89430096Y-110088489D01*
X89489594Y-110005689D01*
X89560453Y-109907077D01*
X89561776Y-109908028D01*
X89608645Y-109864857D01*
X89678580Y-109852625D01*
X89744026Y-109880144D01*
X89771875Y-109911994D01*
X89831987Y-110010088D01*
X89978250Y-110178938D01*
X90150126Y-110321632D01*
X90343000Y-110434338D01*
X90551692Y-110514030D01*
X90556760Y-110515061D01*
X90556763Y-110515062D01*
X90630491Y-110530062D01*
X90770597Y-110558567D01*
X90775772Y-110558757D01*
X90775774Y-110558757D01*
X90988673Y-110566564D01*
X90988677Y-110566564D01*
X90993837Y-110566753D01*
X90998957Y-110566097D01*
X90998959Y-110566097D01*
X91210288Y-110539025D01*
X91210289Y-110539025D01*
X91215416Y-110538368D01*
X91220366Y-110536883D01*
X91424429Y-110475661D01*
X91424434Y-110475659D01*
X91429384Y-110474174D01*
X91629994Y-110375896D01*
X91811860Y-110246173D01*
X91859860Y-110198341D01*
X91905901Y-110152460D01*
X91970096Y-110088489D01*
X92029594Y-110005689D01*
X92100453Y-109907077D01*
X92101776Y-109908028D01*
X92148645Y-109864857D01*
X92218580Y-109852625D01*
X92284026Y-109880144D01*
X92311875Y-109911994D01*
X92371987Y-110010088D01*
X92518250Y-110178938D01*
X92690126Y-110321632D01*
X92883000Y-110434338D01*
X93091692Y-110514030D01*
X93096760Y-110515061D01*
X93096763Y-110515062D01*
X93170491Y-110530062D01*
X93310597Y-110558567D01*
X93315772Y-110558757D01*
X93315774Y-110558757D01*
X93528673Y-110566564D01*
X93528677Y-110566564D01*
X93533837Y-110566753D01*
X93538957Y-110566097D01*
X93538959Y-110566097D01*
X93750288Y-110539025D01*
X93750289Y-110539025D01*
X93755416Y-110538368D01*
X93760366Y-110536883D01*
X93964429Y-110475661D01*
X93964434Y-110475659D01*
X93969384Y-110474174D01*
X94169994Y-110375896D01*
X94351860Y-110246173D01*
X94399860Y-110198341D01*
X94445901Y-110152460D01*
X94510096Y-110088489D01*
X94569594Y-110005689D01*
X94640453Y-109907077D01*
X94641776Y-109908028D01*
X94688645Y-109864857D01*
X94758580Y-109852625D01*
X94824026Y-109880144D01*
X94851875Y-109911994D01*
X94911987Y-110010088D01*
X95058250Y-110178938D01*
X95230126Y-110321632D01*
X95423000Y-110434338D01*
X95631692Y-110514030D01*
X95636760Y-110515061D01*
X95636763Y-110515062D01*
X95710491Y-110530062D01*
X95850597Y-110558567D01*
X95855772Y-110558757D01*
X95855774Y-110558757D01*
X96068673Y-110566564D01*
X96068677Y-110566564D01*
X96073837Y-110566753D01*
X96078957Y-110566097D01*
X96078959Y-110566097D01*
X96290288Y-110539025D01*
X96290289Y-110539025D01*
X96295416Y-110538368D01*
X96300366Y-110536883D01*
X96504429Y-110475661D01*
X96504434Y-110475659D01*
X96509384Y-110474174D01*
X96709994Y-110375896D01*
X96891860Y-110246173D01*
X96939860Y-110198341D01*
X96985901Y-110152460D01*
X97050096Y-110088489D01*
X97109594Y-110005689D01*
X97180453Y-109907077D01*
X97181776Y-109908028D01*
X97228645Y-109864857D01*
X97298580Y-109852625D01*
X97364026Y-109880144D01*
X97391875Y-109911994D01*
X97451987Y-110010088D01*
X97598250Y-110178938D01*
X97770126Y-110321632D01*
X97963000Y-110434338D01*
X98171692Y-110514030D01*
X98176760Y-110515061D01*
X98176763Y-110515062D01*
X98250491Y-110530062D01*
X98390597Y-110558567D01*
X98395772Y-110558757D01*
X98395774Y-110558757D01*
X98608673Y-110566564D01*
X98608677Y-110566564D01*
X98613837Y-110566753D01*
X98618957Y-110566097D01*
X98618959Y-110566097D01*
X98830288Y-110539025D01*
X98830289Y-110539025D01*
X98835416Y-110538368D01*
X98840366Y-110536883D01*
X99044429Y-110475661D01*
X99044434Y-110475659D01*
X99049384Y-110474174D01*
X99249994Y-110375896D01*
X99431860Y-110246173D01*
X99479860Y-110198341D01*
X99525901Y-110152460D01*
X99590096Y-110088489D01*
X99649594Y-110005689D01*
X99720453Y-109907077D01*
X99721776Y-109908028D01*
X99768645Y-109864857D01*
X99838580Y-109852625D01*
X99904026Y-109880144D01*
X99931875Y-109911994D01*
X99991987Y-110010088D01*
X100138250Y-110178938D01*
X100310126Y-110321632D01*
X100503000Y-110434338D01*
X100711692Y-110514030D01*
X100716760Y-110515061D01*
X100716763Y-110515062D01*
X100790491Y-110530062D01*
X100930597Y-110558567D01*
X100935772Y-110558757D01*
X100935774Y-110558757D01*
X101148673Y-110566564D01*
X101148677Y-110566564D01*
X101153837Y-110566753D01*
X101158957Y-110566097D01*
X101158959Y-110566097D01*
X101370288Y-110539025D01*
X101370289Y-110539025D01*
X101375416Y-110538368D01*
X101380366Y-110536883D01*
X101584429Y-110475661D01*
X101584434Y-110475659D01*
X101589384Y-110474174D01*
X101789994Y-110375896D01*
X101971860Y-110246173D01*
X102019860Y-110198341D01*
X102065901Y-110152460D01*
X102130096Y-110088489D01*
X102189594Y-110005689D01*
X102260453Y-109907077D01*
X102261776Y-109908028D01*
X102308645Y-109864857D01*
X102378580Y-109852625D01*
X102444026Y-109880144D01*
X102471875Y-109911994D01*
X102531987Y-110010088D01*
X102678250Y-110178938D01*
X102850126Y-110321632D01*
X103043000Y-110434338D01*
X103251692Y-110514030D01*
X103256760Y-110515061D01*
X103256763Y-110515062D01*
X103330491Y-110530062D01*
X103470597Y-110558567D01*
X103475772Y-110558757D01*
X103475774Y-110558757D01*
X103688673Y-110566564D01*
X103688677Y-110566564D01*
X103693837Y-110566753D01*
X103698957Y-110566097D01*
X103698959Y-110566097D01*
X103910288Y-110539025D01*
X103910289Y-110539025D01*
X103915416Y-110538368D01*
X103920366Y-110536883D01*
X104124429Y-110475661D01*
X104124434Y-110475659D01*
X104129384Y-110474174D01*
X104329994Y-110375896D01*
X104511860Y-110246173D01*
X104559860Y-110198341D01*
X104605901Y-110152460D01*
X104670096Y-110088489D01*
X104729594Y-110005689D01*
X104800453Y-109907077D01*
X104801776Y-109908028D01*
X104848645Y-109864857D01*
X104918580Y-109852625D01*
X104984026Y-109880144D01*
X105011875Y-109911994D01*
X105071987Y-110010088D01*
X105218250Y-110178938D01*
X105390126Y-110321632D01*
X105583000Y-110434338D01*
X105791692Y-110514030D01*
X105796760Y-110515061D01*
X105796763Y-110515062D01*
X105870491Y-110530062D01*
X106010597Y-110558567D01*
X106015772Y-110558757D01*
X106015774Y-110558757D01*
X106228673Y-110566564D01*
X106228677Y-110566564D01*
X106233837Y-110566753D01*
X106238957Y-110566097D01*
X106238959Y-110566097D01*
X106450288Y-110539025D01*
X106450289Y-110539025D01*
X106455416Y-110538368D01*
X106460366Y-110536883D01*
X106664429Y-110475661D01*
X106664434Y-110475659D01*
X106669384Y-110474174D01*
X106869994Y-110375896D01*
X107051860Y-110246173D01*
X107099860Y-110198341D01*
X107145901Y-110152460D01*
X107210096Y-110088489D01*
X107269594Y-110005689D01*
X107340453Y-109907077D01*
X107341776Y-109908028D01*
X107388645Y-109864857D01*
X107458580Y-109852625D01*
X107524026Y-109880144D01*
X107551875Y-109911994D01*
X107611987Y-110010088D01*
X107758250Y-110178938D01*
X107930126Y-110321632D01*
X108123000Y-110434338D01*
X108331692Y-110514030D01*
X108336760Y-110515061D01*
X108336763Y-110515062D01*
X108410491Y-110530062D01*
X108550597Y-110558567D01*
X108555772Y-110558757D01*
X108555774Y-110558757D01*
X108768673Y-110566564D01*
X108768677Y-110566564D01*
X108773837Y-110566753D01*
X108778957Y-110566097D01*
X108778959Y-110566097D01*
X108990288Y-110539025D01*
X108990289Y-110539025D01*
X108995416Y-110538368D01*
X109000366Y-110536883D01*
X109204429Y-110475661D01*
X109204434Y-110475659D01*
X109209384Y-110474174D01*
X109409994Y-110375896D01*
X109591860Y-110246173D01*
X109639860Y-110198341D01*
X109685901Y-110152460D01*
X109750096Y-110088489D01*
X109809594Y-110005689D01*
X109877435Y-109911277D01*
X109880453Y-109907077D01*
X109901320Y-109864857D01*
X109977136Y-109711453D01*
X109977137Y-109711451D01*
X109979430Y-109706811D01*
X110044370Y-109493069D01*
X110073529Y-109271590D01*
X110075156Y-109205000D01*
X110056852Y-108982361D01*
X110002431Y-108765702D01*
X109913354Y-108560840D01*
X109792014Y-108373277D01*
X109788538Y-108369457D01*
X109788533Y-108369450D01*
X109644435Y-108211088D01*
X109613383Y-108147242D01*
X109621779Y-108076744D01*
X109666956Y-108021976D01*
X109693400Y-108008307D01*
X109800052Y-107968325D01*
X109815649Y-107959786D01*
X109917724Y-107883285D01*
X109930285Y-107870724D01*
X110006786Y-107768649D01*
X110015324Y-107753054D01*
X110060478Y-107632606D01*
X110064105Y-107617351D01*
X110069631Y-107566486D01*
X110070000Y-107559672D01*
X110070000Y-106937115D01*
X110065525Y-106921876D01*
X110064135Y-106920671D01*
X110056452Y-106919000D01*
X108584000Y-106919000D01*
X108515879Y-106898998D01*
X108469386Y-106845342D01*
X108458000Y-106793000D01*
X108458000Y-106392885D01*
X108966000Y-106392885D01*
X108970475Y-106408124D01*
X108971865Y-106409329D01*
X108979548Y-106411000D01*
X110051884Y-106411000D01*
X110067123Y-106406525D01*
X110068328Y-106405135D01*
X110069999Y-106397452D01*
X110069999Y-105770331D01*
X110069629Y-105763510D01*
X110064105Y-105712648D01*
X110060479Y-105697396D01*
X110015324Y-105576946D01*
X110006786Y-105561351D01*
X109930285Y-105459276D01*
X109917724Y-105446715D01*
X109815649Y-105370214D01*
X109800054Y-105361676D01*
X109679606Y-105316522D01*
X109664351Y-105312895D01*
X109613486Y-105307369D01*
X109606672Y-105307000D01*
X108984115Y-105307000D01*
X108968876Y-105311475D01*
X108967671Y-105312865D01*
X108966000Y-105320548D01*
X108966000Y-106392885D01*
X108458000Y-106392885D01*
X108458000Y-105325116D01*
X108453525Y-105309877D01*
X108452135Y-105308672D01*
X108444452Y-105307001D01*
X107817331Y-105307001D01*
X107810510Y-105307371D01*
X107759648Y-105312895D01*
X107744396Y-105316521D01*
X107623946Y-105361676D01*
X107608351Y-105370214D01*
X107506276Y-105446715D01*
X107493715Y-105459276D01*
X107417214Y-105561351D01*
X107408676Y-105576946D01*
X107367297Y-105687322D01*
X107324655Y-105744087D01*
X107258093Y-105768786D01*
X107188744Y-105753578D01*
X107156121Y-105727891D01*
X107105151Y-105671876D01*
X107105145Y-105671870D01*
X107101670Y-105668051D01*
X107097619Y-105664852D01*
X107097615Y-105664848D01*
X106930414Y-105532800D01*
X106930410Y-105532798D01*
X106926359Y-105529598D01*
X106912228Y-105521797D01*
X106848593Y-105486669D01*
X106730789Y-105421638D01*
X106725920Y-105419914D01*
X106725916Y-105419912D01*
X106525087Y-105348795D01*
X106525083Y-105348794D01*
X106520212Y-105347069D01*
X106515119Y-105346162D01*
X106515116Y-105346161D01*
X106305373Y-105308800D01*
X106305367Y-105308799D01*
X106300284Y-105307894D01*
X106226452Y-105306992D01*
X106082081Y-105305228D01*
X106082079Y-105305228D01*
X106076911Y-105305165D01*
X105856091Y-105338955D01*
X105643756Y-105408357D01*
X105614941Y-105423357D01*
X105467084Y-105500327D01*
X105445607Y-105511507D01*
X105441474Y-105514610D01*
X105441471Y-105514612D01*
X105358450Y-105576946D01*
X105266965Y-105645635D01*
X105112629Y-105807138D01*
X105005201Y-105964621D01*
X104950293Y-106009621D01*
X104879768Y-106017792D01*
X104816021Y-105986538D01*
X104795324Y-105962054D01*
X104714822Y-105837617D01*
X104714820Y-105837614D01*
X104712014Y-105833277D01*
X104561670Y-105668051D01*
X104557619Y-105664852D01*
X104557615Y-105664848D01*
X104390414Y-105532800D01*
X104390410Y-105532798D01*
X104386359Y-105529598D01*
X104372228Y-105521797D01*
X104308593Y-105486669D01*
X104190789Y-105421638D01*
X104185920Y-105419914D01*
X104185916Y-105419912D01*
X103985087Y-105348795D01*
X103985083Y-105348794D01*
X103980212Y-105347069D01*
X103975119Y-105346162D01*
X103975116Y-105346161D01*
X103765373Y-105308800D01*
X103765367Y-105308799D01*
X103760284Y-105307894D01*
X103686452Y-105306992D01*
X103542081Y-105305228D01*
X103542079Y-105305228D01*
X103536911Y-105305165D01*
X103316091Y-105338955D01*
X103103756Y-105408357D01*
X103074941Y-105423357D01*
X102927084Y-105500327D01*
X102905607Y-105511507D01*
X102901474Y-105514610D01*
X102901471Y-105514612D01*
X102818450Y-105576946D01*
X102726965Y-105645635D01*
X102572629Y-105807138D01*
X102465201Y-105964621D01*
X102410293Y-106009621D01*
X102339768Y-106017792D01*
X102276021Y-105986538D01*
X102255324Y-105962054D01*
X102174822Y-105837617D01*
X102174820Y-105837614D01*
X102172014Y-105833277D01*
X102021670Y-105668051D01*
X102017619Y-105664852D01*
X102017615Y-105664848D01*
X101850414Y-105532800D01*
X101850410Y-105532798D01*
X101846359Y-105529598D01*
X101832228Y-105521797D01*
X101768593Y-105486669D01*
X101650789Y-105421638D01*
X101645920Y-105419914D01*
X101645916Y-105419912D01*
X101445087Y-105348795D01*
X101445083Y-105348794D01*
X101440212Y-105347069D01*
X101435119Y-105346162D01*
X101435116Y-105346161D01*
X101225373Y-105308800D01*
X101225367Y-105308799D01*
X101220284Y-105307894D01*
X101146452Y-105306992D01*
X101002081Y-105305228D01*
X101002079Y-105305228D01*
X100996911Y-105305165D01*
X100776091Y-105338955D01*
X100563756Y-105408357D01*
X100534941Y-105423357D01*
X100387084Y-105500327D01*
X100365607Y-105511507D01*
X100361474Y-105514610D01*
X100361471Y-105514612D01*
X100278450Y-105576946D01*
X100186965Y-105645635D01*
X100032629Y-105807138D01*
X99925201Y-105964621D01*
X99870293Y-106009621D01*
X99799768Y-106017792D01*
X99736021Y-105986538D01*
X99715324Y-105962054D01*
X99634822Y-105837617D01*
X99634820Y-105837614D01*
X99632014Y-105833277D01*
X99481670Y-105668051D01*
X99477619Y-105664852D01*
X99477615Y-105664848D01*
X99310414Y-105532800D01*
X99310410Y-105532798D01*
X99306359Y-105529598D01*
X99292228Y-105521797D01*
X99228593Y-105486669D01*
X99110789Y-105421638D01*
X99105920Y-105419914D01*
X99105916Y-105419912D01*
X98905087Y-105348795D01*
X98905083Y-105348794D01*
X98900212Y-105347069D01*
X98895119Y-105346162D01*
X98895116Y-105346161D01*
X98685373Y-105308800D01*
X98685367Y-105308799D01*
X98680284Y-105307894D01*
X98606452Y-105306992D01*
X98462081Y-105305228D01*
X98462079Y-105305228D01*
X98456911Y-105305165D01*
X98236091Y-105338955D01*
X98023756Y-105408357D01*
X97994941Y-105423357D01*
X97847084Y-105500327D01*
X97825607Y-105511507D01*
X97821474Y-105514610D01*
X97821471Y-105514612D01*
X97738450Y-105576946D01*
X97646965Y-105645635D01*
X97492629Y-105807138D01*
X97385201Y-105964621D01*
X97330293Y-106009621D01*
X97259768Y-106017792D01*
X97196021Y-105986538D01*
X97175324Y-105962054D01*
X97094822Y-105837617D01*
X97094820Y-105837614D01*
X97092014Y-105833277D01*
X96941670Y-105668051D01*
X96937619Y-105664852D01*
X96937615Y-105664848D01*
X96770414Y-105532800D01*
X96770410Y-105532798D01*
X96766359Y-105529598D01*
X96752228Y-105521797D01*
X96688593Y-105486669D01*
X96570789Y-105421638D01*
X96565920Y-105419914D01*
X96565916Y-105419912D01*
X96365087Y-105348795D01*
X96365083Y-105348794D01*
X96360212Y-105347069D01*
X96355119Y-105346162D01*
X96355116Y-105346161D01*
X96145373Y-105308800D01*
X96145367Y-105308799D01*
X96140284Y-105307894D01*
X96066452Y-105306992D01*
X95922081Y-105305228D01*
X95922079Y-105305228D01*
X95916911Y-105305165D01*
X95696091Y-105338955D01*
X95483756Y-105408357D01*
X95454941Y-105423357D01*
X95307084Y-105500327D01*
X95285607Y-105511507D01*
X95281474Y-105514610D01*
X95281471Y-105514612D01*
X95198450Y-105576946D01*
X95106965Y-105645635D01*
X94952629Y-105807138D01*
X94845201Y-105964621D01*
X94790293Y-106009621D01*
X94719768Y-106017792D01*
X94656021Y-105986538D01*
X94635324Y-105962054D01*
X94554822Y-105837617D01*
X94554820Y-105837614D01*
X94552014Y-105833277D01*
X94401670Y-105668051D01*
X94397619Y-105664852D01*
X94397615Y-105664848D01*
X94230414Y-105532800D01*
X94230410Y-105532798D01*
X94226359Y-105529598D01*
X94212228Y-105521797D01*
X94148593Y-105486669D01*
X94030789Y-105421638D01*
X94025920Y-105419914D01*
X94025916Y-105419912D01*
X93825087Y-105348795D01*
X93825083Y-105348794D01*
X93820212Y-105347069D01*
X93815119Y-105346162D01*
X93815116Y-105346161D01*
X93605373Y-105308800D01*
X93605367Y-105308799D01*
X93600284Y-105307894D01*
X93526452Y-105306992D01*
X93382081Y-105305228D01*
X93382079Y-105305228D01*
X93376911Y-105305165D01*
X93156091Y-105338955D01*
X93118891Y-105351114D01*
X93096134Y-105358552D01*
X93025170Y-105360703D01*
X92964308Y-105324147D01*
X92932872Y-105260490D01*
X92930989Y-105238787D01*
X92930989Y-103174884D01*
X92950991Y-103106763D01*
X92967894Y-103085789D01*
X93091757Y-102961926D01*
X93100047Y-102954382D01*
X93106528Y-102950269D01*
X93153169Y-102900601D01*
X93155924Y-102897759D01*
X93175645Y-102878038D01*
X93178122Y-102874845D01*
X93185827Y-102865824D01*
X93210669Y-102839369D01*
X93216096Y-102833590D01*
X93219917Y-102826640D01*
X93225856Y-102815837D01*
X93236712Y-102799310D01*
X93244267Y-102789571D01*
X93244268Y-102789569D01*
X93249124Y-102783309D01*
X93266684Y-102742729D01*
X93271901Y-102732081D01*
X93289385Y-102700278D01*
X93289386Y-102700276D01*
X93293205Y-102693329D01*
X93298243Y-102673706D01*
X93304647Y-102655003D01*
X93309543Y-102643689D01*
X93309543Y-102643688D01*
X93312691Y-102636414D01*
X93313930Y-102628591D01*
X93313933Y-102628581D01*
X93319609Y-102592745D01*
X93322015Y-102581125D01*
X93331038Y-102545980D01*
X93331038Y-102545979D01*
X93333010Y-102538299D01*
X93333010Y-102518045D01*
X93334561Y-102498334D01*
X93336490Y-102486155D01*
X93337730Y-102478326D01*
X93333569Y-102434307D01*
X93333010Y-102422450D01*
X93333010Y-101500000D01*
X99836496Y-101500000D01*
X99837186Y-101506565D01*
X99848632Y-101615464D01*
X99856458Y-101689928D01*
X99915473Y-101871556D01*
X100010960Y-102036944D01*
X100138747Y-102178866D01*
X100293248Y-102291118D01*
X100299276Y-102293802D01*
X100299278Y-102293803D01*
X100328906Y-102306994D01*
X100467712Y-102368794D01*
X100561113Y-102388647D01*
X100648056Y-102407128D01*
X100648061Y-102407128D01*
X100654513Y-102408500D01*
X100845487Y-102408500D01*
X100851939Y-102407128D01*
X100851944Y-102407128D01*
X100938887Y-102388647D01*
X101032288Y-102368794D01*
X101171094Y-102306994D01*
X101200722Y-102293803D01*
X101200724Y-102293802D01*
X101206752Y-102291118D01*
X101361253Y-102178866D01*
X101489040Y-102036944D01*
X101584527Y-101871556D01*
X101643542Y-101689928D01*
X101651369Y-101615464D01*
X101662814Y-101506565D01*
X101663504Y-101500000D01*
X101661650Y-101482356D01*
X101644232Y-101316635D01*
X101644232Y-101316633D01*
X101643542Y-101310072D01*
X101584527Y-101128444D01*
X101489040Y-100963056D01*
X101361253Y-100821134D01*
X101206752Y-100708882D01*
X101200724Y-100706198D01*
X101200722Y-100706197D01*
X101038319Y-100633891D01*
X101038318Y-100633891D01*
X101032288Y-100631206D01*
X100917797Y-100606870D01*
X100851944Y-100592872D01*
X100851939Y-100592872D01*
X100845487Y-100591500D01*
X100654513Y-100591500D01*
X100648061Y-100592872D01*
X100648056Y-100592872D01*
X100582203Y-100606870D01*
X100467712Y-100631206D01*
X100461682Y-100633891D01*
X100461681Y-100633891D01*
X100299278Y-100706197D01*
X100299276Y-100706198D01*
X100293248Y-100708882D01*
X100138747Y-100821134D01*
X100010960Y-100963056D01*
X99915473Y-101128444D01*
X99856458Y-101310072D01*
X99855768Y-101316633D01*
X99855768Y-101316635D01*
X99838350Y-101482356D01*
X99836496Y-101500000D01*
X93333010Y-101500000D01*
X93333010Y-100447559D01*
X97362475Y-100447559D01*
X97363165Y-100454124D01*
X97381633Y-100629834D01*
X97382437Y-100637487D01*
X97441452Y-100819115D01*
X97536939Y-100984503D01*
X97664726Y-101126425D01*
X97819227Y-101238677D01*
X97825255Y-101241361D01*
X97825257Y-101241362D01*
X97987660Y-101313668D01*
X97993691Y-101316353D01*
X98087092Y-101336206D01*
X98174035Y-101354687D01*
X98174040Y-101354687D01*
X98180492Y-101356059D01*
X98371466Y-101356059D01*
X98377918Y-101354687D01*
X98377923Y-101354687D01*
X98464866Y-101336206D01*
X98558267Y-101316353D01*
X98564298Y-101313668D01*
X98726701Y-101241362D01*
X98726703Y-101241361D01*
X98732731Y-101238677D01*
X98887232Y-101126425D01*
X99015019Y-100984503D01*
X99110506Y-100819115D01*
X99169521Y-100637487D01*
X99170326Y-100629834D01*
X99188793Y-100454124D01*
X99189483Y-100447559D01*
X99187432Y-100428041D01*
X99170211Y-100264194D01*
X99170211Y-100264192D01*
X99169521Y-100257631D01*
X99110506Y-100076003D01*
X99104691Y-100065930D01*
X99070065Y-100005958D01*
X99015019Y-99910615D01*
X98974027Y-99865088D01*
X98891654Y-99773604D01*
X98891653Y-99773603D01*
X98887232Y-99768693D01*
X98732731Y-99656441D01*
X98726703Y-99653757D01*
X98726701Y-99653756D01*
X98564298Y-99581450D01*
X98564297Y-99581450D01*
X98558267Y-99578765D01*
X98455199Y-99556857D01*
X98377923Y-99540431D01*
X98377918Y-99540431D01*
X98371466Y-99539059D01*
X98180492Y-99539059D01*
X98174040Y-99540431D01*
X98174035Y-99540431D01*
X98096759Y-99556857D01*
X97993691Y-99578765D01*
X97987661Y-99581450D01*
X97987660Y-99581450D01*
X97825257Y-99653756D01*
X97825255Y-99653757D01*
X97819227Y-99656441D01*
X97664726Y-99768693D01*
X97660305Y-99773603D01*
X97660304Y-99773604D01*
X97577932Y-99865088D01*
X97536939Y-99910615D01*
X97481893Y-100005958D01*
X97447268Y-100065930D01*
X97441452Y-100076003D01*
X97382437Y-100257631D01*
X97381747Y-100264192D01*
X97381747Y-100264194D01*
X97364526Y-100428041D01*
X97362475Y-100447559D01*
X93333010Y-100447559D01*
X93333010Y-99500000D01*
X93836496Y-99500000D01*
X93837186Y-99506565D01*
X93855312Y-99679020D01*
X93856458Y-99689928D01*
X93915473Y-99871556D01*
X94010960Y-100036944D01*
X94015378Y-100041851D01*
X94015379Y-100041852D01*
X94105440Y-100141875D01*
X94138747Y-100178866D01*
X94293248Y-100291118D01*
X94299276Y-100293802D01*
X94299278Y-100293803D01*
X94461681Y-100366109D01*
X94467712Y-100368794D01*
X94561113Y-100388647D01*
X94648056Y-100407128D01*
X94648061Y-100407128D01*
X94654513Y-100408500D01*
X94845487Y-100408500D01*
X94851939Y-100407128D01*
X94851944Y-100407128D01*
X94938887Y-100388647D01*
X95032288Y-100368794D01*
X95038319Y-100366109D01*
X95200722Y-100293803D01*
X95200724Y-100293802D01*
X95206752Y-100291118D01*
X95361253Y-100178866D01*
X95394560Y-100141875D01*
X95484621Y-100041852D01*
X95484622Y-100041851D01*
X95489040Y-100036944D01*
X95584527Y-99871556D01*
X95643542Y-99689928D01*
X95644689Y-99679020D01*
X95662814Y-99506565D01*
X95663504Y-99500000D01*
X95648056Y-99353023D01*
X95644232Y-99316635D01*
X95644232Y-99316633D01*
X95643542Y-99310072D01*
X95584527Y-99128444D01*
X95571577Y-99106013D01*
X95525782Y-99026695D01*
X95489040Y-98963056D01*
X95361253Y-98821134D01*
X95206752Y-98708882D01*
X95200724Y-98706198D01*
X95200722Y-98706197D01*
X95038319Y-98633891D01*
X95038318Y-98633891D01*
X95032288Y-98631206D01*
X94938888Y-98611353D01*
X94851944Y-98592872D01*
X94851939Y-98592872D01*
X94845487Y-98591500D01*
X94654513Y-98591500D01*
X94648061Y-98592872D01*
X94648056Y-98592872D01*
X94561112Y-98611353D01*
X94467712Y-98631206D01*
X94461682Y-98633891D01*
X94461681Y-98633891D01*
X94299278Y-98706197D01*
X94299276Y-98706198D01*
X94293248Y-98708882D01*
X94138747Y-98821134D01*
X94010960Y-98963056D01*
X93974218Y-99026695D01*
X93928424Y-99106013D01*
X93915473Y-99128444D01*
X93856458Y-99310072D01*
X93855768Y-99316633D01*
X93855768Y-99316635D01*
X93851944Y-99353023D01*
X93836496Y-99500000D01*
X93333010Y-99500000D01*
X93333010Y-98996170D01*
X93353012Y-98928049D01*
X93369915Y-98907075D01*
X94359838Y-97917152D01*
X94422150Y-97883126D01*
X94492965Y-97888191D01*
X94517921Y-97900813D01*
X94633159Y-97976222D01*
X94639763Y-97978678D01*
X94639765Y-97978679D01*
X94796558Y-98036990D01*
X94796560Y-98036990D01*
X94803168Y-98039448D01*
X94886995Y-98050633D01*
X94975980Y-98062507D01*
X94975984Y-98062507D01*
X94982961Y-98063438D01*
X94989972Y-98062800D01*
X94989976Y-98062800D01*
X95132459Y-98049832D01*
X95163600Y-98046998D01*
X95170302Y-98044820D01*
X95170304Y-98044820D01*
X95329409Y-97993124D01*
X95329412Y-97993123D01*
X95336108Y-97990947D01*
X95451593Y-97922104D01*
X95485860Y-97901677D01*
X95485862Y-97901676D01*
X95491912Y-97898069D01*
X95623266Y-97772982D01*
X95723643Y-97621902D01*
X95771710Y-97495366D01*
X95785555Y-97458920D01*
X95785556Y-97458918D01*
X95788055Y-97452338D01*
X95795510Y-97399292D01*
X95812748Y-97276639D01*
X95812748Y-97276636D01*
X95813299Y-97272717D01*
X95813616Y-97250000D01*
X95793397Y-97069745D01*
X95755839Y-96961893D01*
X95752325Y-96890986D01*
X95765711Y-96857458D01*
X95768681Y-96852314D01*
X95785286Y-96823553D01*
X95836668Y-96774560D01*
X95906382Y-96761124D01*
X95972293Y-96787510D01*
X96008785Y-96833703D01*
X96009195Y-96834590D01*
X96011418Y-96841273D01*
X96015065Y-96847295D01*
X96015066Y-96847297D01*
X96074153Y-96944861D01*
X96105380Y-96996424D01*
X96231382Y-97126902D01*
X96280723Y-97159190D01*
X96376825Y-97222077D01*
X96383159Y-97226222D01*
X96389763Y-97228678D01*
X96389765Y-97228679D01*
X96546558Y-97286990D01*
X96546560Y-97286990D01*
X96553168Y-97289448D01*
X96632250Y-97300000D01*
X96725980Y-97312507D01*
X96725984Y-97312507D01*
X96732961Y-97313438D01*
X96739972Y-97312800D01*
X96739976Y-97312800D01*
X96882459Y-97299832D01*
X96913600Y-97296998D01*
X96920302Y-97294820D01*
X96920304Y-97294820D01*
X96939324Y-97288640D01*
X108286463Y-97288640D01*
X108304163Y-97469160D01*
X108361418Y-97641273D01*
X108365065Y-97647295D01*
X108365066Y-97647297D01*
X108446597Y-97781921D01*
X108455380Y-97796424D01*
X108460269Y-97801487D01*
X108460270Y-97801488D01*
X108508435Y-97851364D01*
X108581382Y-97926902D01*
X108587278Y-97930760D01*
X108726029Y-98021556D01*
X108733159Y-98026222D01*
X108739763Y-98028678D01*
X108739765Y-98028679D01*
X108896558Y-98086990D01*
X108896560Y-98086990D01*
X108903168Y-98089448D01*
X108986995Y-98100633D01*
X109075980Y-98112507D01*
X109075984Y-98112507D01*
X109082961Y-98113438D01*
X109089972Y-98112800D01*
X109089976Y-98112800D01*
X109232459Y-98099832D01*
X109263600Y-98096998D01*
X109270302Y-98094820D01*
X109270304Y-98094820D01*
X109429409Y-98043124D01*
X109429412Y-98043123D01*
X109436108Y-98040947D01*
X109591912Y-97948069D01*
X109723266Y-97822982D01*
X109823643Y-97671902D01*
X109888055Y-97502338D01*
X109889785Y-97490031D01*
X109912748Y-97326639D01*
X109912748Y-97326636D01*
X109913299Y-97322717D01*
X109913616Y-97300000D01*
X109912342Y-97288640D01*
X110186463Y-97288640D01*
X110204163Y-97469160D01*
X110261418Y-97641273D01*
X110265065Y-97647295D01*
X110265066Y-97647297D01*
X110346597Y-97781921D01*
X110355380Y-97796424D01*
X110360269Y-97801487D01*
X110360270Y-97801488D01*
X110408435Y-97851364D01*
X110481382Y-97926902D01*
X110487278Y-97930760D01*
X110626029Y-98021556D01*
X110633159Y-98026222D01*
X110639763Y-98028678D01*
X110639765Y-98028679D01*
X110796558Y-98086990D01*
X110796560Y-98086990D01*
X110803168Y-98089448D01*
X110886995Y-98100633D01*
X110975980Y-98112507D01*
X110975984Y-98112507D01*
X110982961Y-98113438D01*
X110989972Y-98112800D01*
X110989976Y-98112800D01*
X111132459Y-98099832D01*
X111163600Y-98096998D01*
X111170302Y-98094820D01*
X111170304Y-98094820D01*
X111329409Y-98043124D01*
X111329412Y-98043123D01*
X111336108Y-98040947D01*
X111491912Y-97948069D01*
X111623266Y-97822982D01*
X111723643Y-97671902D01*
X111788055Y-97502338D01*
X111789785Y-97490031D01*
X111812748Y-97326639D01*
X111812748Y-97326636D01*
X111813299Y-97322717D01*
X111813616Y-97300000D01*
X111813174Y-97296062D01*
X111812981Y-97292111D01*
X111814593Y-97292032D01*
X111825745Y-97228604D01*
X111873891Y-97176426D01*
X111932427Y-97160227D01*
X111932318Y-97159190D01*
X111938536Y-97158537D01*
X111938668Y-97158500D01*
X111945487Y-97158500D01*
X111951939Y-97157128D01*
X111951944Y-97157128D01*
X112038887Y-97138647D01*
X112132288Y-97118794D01*
X112138319Y-97116109D01*
X112300722Y-97043803D01*
X112300724Y-97043802D01*
X112306752Y-97041118D01*
X112461253Y-96928866D01*
X112512544Y-96871902D01*
X112584621Y-96791852D01*
X112584622Y-96791851D01*
X112589040Y-96786944D01*
X112684527Y-96621556D01*
X112743542Y-96439928D01*
X112747663Y-96400725D01*
X112762814Y-96256565D01*
X112762814Y-96256564D01*
X112763504Y-96250000D01*
X112752202Y-96142469D01*
X112744232Y-96066635D01*
X112744232Y-96066633D01*
X112743542Y-96060072D01*
X112684527Y-95878444D01*
X112676070Y-95863795D01*
X112647314Y-95813990D01*
X112589040Y-95713056D01*
X112584381Y-95707881D01*
X112465675Y-95576045D01*
X112465674Y-95576044D01*
X112461253Y-95571134D01*
X112306752Y-95458882D01*
X112300724Y-95456198D01*
X112300722Y-95456197D01*
X112138319Y-95383891D01*
X112138318Y-95383891D01*
X112132288Y-95381206D01*
X112038887Y-95361353D01*
X111951944Y-95342872D01*
X111951939Y-95342872D01*
X111945487Y-95341500D01*
X111754513Y-95341500D01*
X111748061Y-95342872D01*
X111748056Y-95342872D01*
X111661112Y-95361353D01*
X111567712Y-95381206D01*
X111561682Y-95383891D01*
X111561681Y-95383891D01*
X111399278Y-95456197D01*
X111399276Y-95456198D01*
X111393248Y-95458882D01*
X111238747Y-95571134D01*
X111234326Y-95576044D01*
X111234325Y-95576045D01*
X111115620Y-95707881D01*
X111110960Y-95713056D01*
X111052686Y-95813990D01*
X111023931Y-95863795D01*
X111015473Y-95878444D01*
X110956458Y-96060072D01*
X110955768Y-96066633D01*
X110955768Y-96066635D01*
X110947798Y-96142469D01*
X110936496Y-96250000D01*
X110943827Y-96319745D01*
X110948657Y-96365703D01*
X110935885Y-96435542D01*
X110887383Y-96487388D01*
X110836515Y-96504184D01*
X110832297Y-96504627D01*
X110832294Y-96504628D01*
X110825288Y-96505364D01*
X110653579Y-96563818D01*
X110647575Y-96567512D01*
X110505095Y-96655166D01*
X110505092Y-96655168D01*
X110499088Y-96658862D01*
X110494053Y-96663793D01*
X110494050Y-96663795D01*
X110375148Y-96780233D01*
X110369493Y-96785771D01*
X110271235Y-96938238D01*
X110268826Y-96944858D01*
X110268824Y-96944861D01*
X110211606Y-97102066D01*
X110209197Y-97108685D01*
X110186463Y-97288640D01*
X109912342Y-97288640D01*
X109893397Y-97119745D01*
X109891068Y-97113056D01*
X109836064Y-96955106D01*
X109836062Y-96955103D01*
X109833745Y-96948448D01*
X109780204Y-96862763D01*
X109741359Y-96800598D01*
X109737626Y-96794624D01*
X109732664Y-96789627D01*
X109614778Y-96670915D01*
X109614774Y-96670912D01*
X109609815Y-96665918D01*
X109598697Y-96658862D01*
X109530008Y-96615271D01*
X109456666Y-96568727D01*
X109427463Y-96558328D01*
X109292425Y-96510243D01*
X109292420Y-96510242D01*
X109285790Y-96507881D01*
X109278802Y-96507048D01*
X109278799Y-96507047D01*
X109155698Y-96492368D01*
X109105680Y-96486404D01*
X109098677Y-96487140D01*
X109098676Y-96487140D01*
X108932288Y-96504628D01*
X108932286Y-96504629D01*
X108925288Y-96505364D01*
X108753579Y-96563818D01*
X108747575Y-96567512D01*
X108605095Y-96655166D01*
X108605092Y-96655168D01*
X108599088Y-96658862D01*
X108594053Y-96663793D01*
X108594050Y-96663795D01*
X108475148Y-96780233D01*
X108469493Y-96785771D01*
X108371235Y-96938238D01*
X108368826Y-96944858D01*
X108368824Y-96944861D01*
X108311606Y-97102066D01*
X108309197Y-97108685D01*
X108286463Y-97288640D01*
X96939324Y-97288640D01*
X97079409Y-97243124D01*
X97079412Y-97243123D01*
X97086108Y-97240947D01*
X97221517Y-97160227D01*
X97235860Y-97151677D01*
X97235862Y-97151676D01*
X97241912Y-97148069D01*
X97373266Y-97022982D01*
X97473643Y-96871902D01*
X97515724Y-96761124D01*
X97535555Y-96708920D01*
X97535556Y-96708918D01*
X97538055Y-96702338D01*
X97542718Y-96669160D01*
X97562748Y-96526639D01*
X97562748Y-96526636D01*
X97563299Y-96522717D01*
X97563506Y-96507881D01*
X97563561Y-96503962D01*
X97563561Y-96503957D01*
X97563616Y-96500000D01*
X97543397Y-96319745D01*
X97541080Y-96313091D01*
X97486064Y-96155106D01*
X97486062Y-96155103D01*
X97483745Y-96148448D01*
X97428522Y-96060072D01*
X97391359Y-96000598D01*
X97387626Y-95994624D01*
X97373941Y-95980843D01*
X97264778Y-95870915D01*
X97264774Y-95870912D01*
X97259815Y-95865918D01*
X97248697Y-95858862D01*
X97182817Y-95817054D01*
X97106666Y-95768727D01*
X97077463Y-95758328D01*
X96942425Y-95710243D01*
X96942420Y-95710242D01*
X96935790Y-95707881D01*
X96928802Y-95707048D01*
X96928799Y-95707047D01*
X96805698Y-95692368D01*
X96755680Y-95686404D01*
X96748677Y-95687140D01*
X96748676Y-95687140D01*
X96582288Y-95704628D01*
X96582286Y-95704629D01*
X96575288Y-95705364D01*
X96403579Y-95763818D01*
X96397575Y-95767512D01*
X96255095Y-95855166D01*
X96255092Y-95855168D01*
X96249088Y-95858862D01*
X96244053Y-95863793D01*
X96244050Y-95863795D01*
X96124525Y-95980843D01*
X96119493Y-95985771D01*
X96115677Y-95991693D01*
X96051357Y-96091497D01*
X95997643Y-96137922D01*
X95927356Y-96147937D01*
X95862813Y-96118362D01*
X95825613Y-96062177D01*
X95816931Y-96035456D01*
X95816930Y-96035454D01*
X95814888Y-96029169D01*
X95798393Y-96000598D01*
X95736479Y-95893361D01*
X95719741Y-95824366D01*
X95736478Y-95767363D01*
X95766038Y-95716164D01*
X95821438Y-95545660D01*
X95861512Y-95487055D01*
X95890022Y-95469490D01*
X96044297Y-95400803D01*
X96044299Y-95400802D01*
X96050327Y-95398118D01*
X96064529Y-95387800D01*
X96128255Y-95341500D01*
X96204828Y-95285866D01*
X96281097Y-95201161D01*
X96328196Y-95148852D01*
X96328197Y-95148851D01*
X96332615Y-95143944D01*
X96397693Y-95031226D01*
X96424798Y-94984279D01*
X96424799Y-94984278D01*
X96428102Y-94978556D01*
X96487117Y-94796928D01*
X96507079Y-94607000D01*
X96487117Y-94417072D01*
X96428102Y-94235444D01*
X96332615Y-94070056D01*
X96241421Y-93968774D01*
X96209250Y-93933045D01*
X96209249Y-93933044D01*
X96204828Y-93928134D01*
X96133883Y-93876589D01*
X96117715Y-93864842D01*
X96074361Y-93808619D01*
X96066422Y-93766343D01*
X96066466Y-93765920D01*
X96059066Y-93695516D01*
X96047194Y-93582555D01*
X96047194Y-93582553D01*
X96046504Y-93575992D01*
X95987489Y-93394364D01*
X95892002Y-93228976D01*
X95869515Y-93204001D01*
X95768637Y-93091965D01*
X95768636Y-93091964D01*
X95764215Y-93087054D01*
X95609714Y-92974802D01*
X95603686Y-92972118D01*
X95603684Y-92972117D01*
X95525978Y-92937520D01*
X95471882Y-92891539D01*
X95451233Y-92823612D01*
X95459439Y-92777669D01*
X95485555Y-92708920D01*
X95485556Y-92708918D01*
X95488055Y-92702338D01*
X95491354Y-92678866D01*
X95512748Y-92526639D01*
X95512748Y-92526636D01*
X95513299Y-92522717D01*
X95513616Y-92500000D01*
X95493397Y-92319745D01*
X95491080Y-92313091D01*
X95436064Y-92155106D01*
X95436062Y-92155103D01*
X95433745Y-92148448D01*
X95359372Y-92029425D01*
X95341359Y-92000598D01*
X95337626Y-91994624D01*
X95264941Y-91921430D01*
X95231134Y-91858999D01*
X95236559Y-91787902D01*
X95285555Y-91658921D01*
X95285556Y-91658916D01*
X95288055Y-91652338D01*
X95291413Y-91628444D01*
X95312748Y-91476639D01*
X95312748Y-91476636D01*
X95313299Y-91472717D01*
X95313616Y-91450000D01*
X95293397Y-91269745D01*
X95291080Y-91263091D01*
X95236064Y-91105106D01*
X95236062Y-91105103D01*
X95233745Y-91098448D01*
X95230009Y-91092469D01*
X95141359Y-90950598D01*
X95137626Y-90944624D01*
X95095794Y-90902499D01*
X95056299Y-90862727D01*
X95022491Y-90800297D01*
X95027803Y-90729499D01*
X95070547Y-90672812D01*
X95119507Y-90650696D01*
X95242034Y-90624652D01*
X95248065Y-90621967D01*
X95410468Y-90549661D01*
X95410470Y-90549660D01*
X95416498Y-90546976D01*
X95481155Y-90500000D01*
X99336496Y-90500000D01*
X99337186Y-90506565D01*
X99353771Y-90664358D01*
X99356458Y-90689928D01*
X99415473Y-90871556D01*
X99510960Y-91036944D01*
X99515378Y-91041851D01*
X99515379Y-91041852D01*
X99566338Y-91098448D01*
X99638747Y-91178866D01*
X99793248Y-91291118D01*
X99799276Y-91293802D01*
X99799278Y-91293803D01*
X99959799Y-91365271D01*
X99967712Y-91368794D01*
X100061113Y-91388647D01*
X100148056Y-91407128D01*
X100148061Y-91407128D01*
X100154513Y-91408500D01*
X100324220Y-91408500D01*
X100392341Y-91428502D01*
X100438834Y-91482158D01*
X100448938Y-91552432D01*
X100433338Y-91597501D01*
X100415473Y-91628444D01*
X100356458Y-91810072D01*
X100355768Y-91816633D01*
X100355768Y-91816635D01*
X100346257Y-91907128D01*
X100336496Y-92000000D01*
X100356458Y-92189928D01*
X100415473Y-92371556D01*
X100418776Y-92377278D01*
X100418777Y-92377279D01*
X100436803Y-92408500D01*
X100510960Y-92536944D01*
X100638747Y-92678866D01*
X100680113Y-92708920D01*
X100776385Y-92778866D01*
X100793248Y-92791118D01*
X100799276Y-92793802D01*
X100799278Y-92793803D01*
X100961681Y-92866109D01*
X100967712Y-92868794D01*
X101054479Y-92887237D01*
X101148056Y-92907128D01*
X101148061Y-92907128D01*
X101154513Y-92908500D01*
X101345487Y-92908500D01*
X101351939Y-92907128D01*
X101351944Y-92907128D01*
X101445521Y-92887237D01*
X101532288Y-92868794D01*
X101538319Y-92866109D01*
X101700722Y-92793803D01*
X101700724Y-92793802D01*
X101706752Y-92791118D01*
X101723616Y-92778866D01*
X101819887Y-92708920D01*
X101861253Y-92678866D01*
X101989040Y-92536944D01*
X102063197Y-92408500D01*
X102081223Y-92377279D01*
X102081224Y-92377278D01*
X102084527Y-92371556D01*
X102143542Y-92189928D01*
X102152994Y-92100000D01*
X108686496Y-92100000D01*
X108687186Y-92106565D01*
X108696608Y-92196206D01*
X108706458Y-92289928D01*
X108765473Y-92471556D01*
X108768776Y-92477278D01*
X108768777Y-92477279D01*
X108781895Y-92500000D01*
X108860960Y-92636944D01*
X108988747Y-92778866D01*
X109065444Y-92834590D01*
X109116800Y-92871902D01*
X109143248Y-92891118D01*
X109149276Y-92893802D01*
X109149278Y-92893803D01*
X109247469Y-92937520D01*
X109317712Y-92968794D01*
X109411112Y-92988647D01*
X109498056Y-93007128D01*
X109498061Y-93007128D01*
X109504513Y-93008500D01*
X109695487Y-93008500D01*
X109701939Y-93007128D01*
X109701944Y-93007128D01*
X109788888Y-92988647D01*
X109882288Y-92968794D01*
X109952531Y-92937520D01*
X110050722Y-92893803D01*
X110050724Y-92893802D01*
X110056752Y-92891118D01*
X110083201Y-92871902D01*
X110134556Y-92834590D01*
X110211253Y-92778866D01*
X110339040Y-92636944D01*
X110418105Y-92500000D01*
X110431223Y-92477279D01*
X110431224Y-92477278D01*
X110434527Y-92471556D01*
X110493542Y-92289928D01*
X110503393Y-92196206D01*
X110512814Y-92106565D01*
X110513504Y-92100000D01*
X110511076Y-92076902D01*
X110494232Y-91916635D01*
X110494232Y-91916633D01*
X110493542Y-91910072D01*
X110434527Y-91728444D01*
X110339040Y-91563056D01*
X110257699Y-91472717D01*
X110215675Y-91426045D01*
X110215674Y-91426044D01*
X110211253Y-91421134D01*
X110074217Y-91321571D01*
X110062094Y-91312763D01*
X110062093Y-91312762D01*
X110056752Y-91308882D01*
X110050724Y-91306198D01*
X110050722Y-91306197D01*
X109888319Y-91233891D01*
X109888318Y-91233891D01*
X109882288Y-91231206D01*
X109788888Y-91211353D01*
X109701944Y-91192872D01*
X109701939Y-91192872D01*
X109695487Y-91191500D01*
X109504513Y-91191500D01*
X109498061Y-91192872D01*
X109498056Y-91192872D01*
X109411112Y-91211353D01*
X109317712Y-91231206D01*
X109311682Y-91233891D01*
X109311681Y-91233891D01*
X109149278Y-91306197D01*
X109149276Y-91306198D01*
X109143248Y-91308882D01*
X109137907Y-91312762D01*
X109137906Y-91312763D01*
X109125783Y-91321571D01*
X108988747Y-91421134D01*
X108984326Y-91426044D01*
X108984325Y-91426045D01*
X108942302Y-91472717D01*
X108860960Y-91563056D01*
X108765473Y-91728444D01*
X108706458Y-91910072D01*
X108705768Y-91916633D01*
X108705768Y-91916635D01*
X108688924Y-92076902D01*
X108686496Y-92100000D01*
X102152994Y-92100000D01*
X102163504Y-92000000D01*
X102153743Y-91907128D01*
X102144232Y-91816635D01*
X102144232Y-91816633D01*
X102143542Y-91810072D01*
X102084527Y-91628444D01*
X101989040Y-91463056D01*
X101977285Y-91450000D01*
X101865675Y-91326045D01*
X101865674Y-91326044D01*
X101861253Y-91321134D01*
X101706752Y-91208882D01*
X101700724Y-91206198D01*
X101700722Y-91206197D01*
X101538319Y-91133891D01*
X101538318Y-91133891D01*
X101532288Y-91131206D01*
X101438888Y-91111353D01*
X101351944Y-91092872D01*
X101351939Y-91092872D01*
X101345487Y-91091500D01*
X101175780Y-91091500D01*
X101107659Y-91071498D01*
X101089031Y-91050000D01*
X102336496Y-91050000D01*
X102337186Y-91056565D01*
X102338756Y-91071498D01*
X102356458Y-91239928D01*
X102415473Y-91421556D01*
X102418776Y-91427278D01*
X102418777Y-91427279D01*
X102431895Y-91450000D01*
X102510960Y-91586944D01*
X102515378Y-91591851D01*
X102515379Y-91591852D01*
X102533656Y-91612151D01*
X102638747Y-91728866D01*
X102720003Y-91787902D01*
X102766800Y-91821902D01*
X102793248Y-91841118D01*
X102799276Y-91843802D01*
X102799278Y-91843803D01*
X102944591Y-91908500D01*
X102967712Y-91918794D01*
X103061113Y-91938647D01*
X103148056Y-91957128D01*
X103148061Y-91957128D01*
X103154513Y-91958500D01*
X103345487Y-91958500D01*
X103351939Y-91957128D01*
X103351944Y-91957128D01*
X103438887Y-91938647D01*
X103532288Y-91918794D01*
X103555409Y-91908500D01*
X103700724Y-91843802D01*
X103700725Y-91843801D01*
X103706752Y-91841118D01*
X103712089Y-91837240D01*
X103712093Y-91837238D01*
X103723436Y-91828997D01*
X103790304Y-91805139D01*
X103848744Y-91815827D01*
X103961677Y-91866108D01*
X103961685Y-91866111D01*
X103967712Y-91868794D01*
X104061113Y-91888647D01*
X104148056Y-91907128D01*
X104148061Y-91907128D01*
X104154513Y-91908500D01*
X104345487Y-91908500D01*
X104351939Y-91907128D01*
X104351944Y-91907128D01*
X104438887Y-91888647D01*
X104532288Y-91868794D01*
X104588419Y-91843803D01*
X104700722Y-91793803D01*
X104700724Y-91793802D01*
X104706752Y-91791118D01*
X104861253Y-91678866D01*
X104911808Y-91622719D01*
X104984621Y-91541852D01*
X104984622Y-91541851D01*
X104989040Y-91536944D01*
X105063197Y-91408500D01*
X105081223Y-91377279D01*
X105081224Y-91377278D01*
X105084527Y-91371556D01*
X105143542Y-91189928D01*
X105163504Y-91000000D01*
X105143542Y-90810072D01*
X105084527Y-90628444D01*
X105080788Y-90621967D01*
X105047117Y-90563648D01*
X104989040Y-90463056D01*
X104861253Y-90321134D01*
X104706752Y-90208882D01*
X104700724Y-90206198D01*
X104700722Y-90206197D01*
X104538319Y-90133891D01*
X104538318Y-90133891D01*
X104532288Y-90131206D01*
X104438888Y-90111353D01*
X104351944Y-90092872D01*
X104351939Y-90092872D01*
X104345487Y-90091500D01*
X104154513Y-90091500D01*
X104148061Y-90092872D01*
X104148056Y-90092872D01*
X104061112Y-90111353D01*
X103967712Y-90131206D01*
X103961682Y-90133891D01*
X103961681Y-90133891D01*
X103799279Y-90206197D01*
X103793248Y-90208882D01*
X103787911Y-90212760D01*
X103787907Y-90212762D01*
X103776564Y-90221003D01*
X103709696Y-90244861D01*
X103651256Y-90234173D01*
X103538323Y-90183892D01*
X103538315Y-90183889D01*
X103532288Y-90181206D01*
X103438887Y-90161353D01*
X103351944Y-90142872D01*
X103351939Y-90142872D01*
X103345487Y-90141500D01*
X103154513Y-90141500D01*
X103148061Y-90142872D01*
X103148056Y-90142872D01*
X103061113Y-90161353D01*
X102967712Y-90181206D01*
X102961682Y-90183891D01*
X102961681Y-90183891D01*
X102799278Y-90256197D01*
X102799276Y-90256198D01*
X102793248Y-90258882D01*
X102638747Y-90371134D01*
X102634326Y-90376044D01*
X102634325Y-90376045D01*
X102516805Y-90506565D01*
X102510960Y-90513056D01*
X102507659Y-90518774D01*
X102423606Y-90664358D01*
X102415473Y-90678444D01*
X102356458Y-90860072D01*
X102336496Y-91050000D01*
X101089031Y-91050000D01*
X101061166Y-91017842D01*
X101051062Y-90947568D01*
X101066662Y-90902499D01*
X101081222Y-90877281D01*
X101081223Y-90877278D01*
X101084527Y-90871556D01*
X101143542Y-90689928D01*
X101146230Y-90664358D01*
X101162814Y-90506565D01*
X101163504Y-90500000D01*
X101143542Y-90310072D01*
X101084527Y-90128444D01*
X101063990Y-90092872D01*
X100992341Y-89968774D01*
X100989040Y-89963056D01*
X100861253Y-89821134D01*
X100706752Y-89708882D01*
X100700724Y-89706198D01*
X100700722Y-89706197D01*
X100538319Y-89633891D01*
X100538318Y-89633891D01*
X100532288Y-89631206D01*
X100437208Y-89610996D01*
X100351944Y-89592872D01*
X100351939Y-89592872D01*
X100345487Y-89591500D01*
X100154513Y-89591500D01*
X100148061Y-89592872D01*
X100148056Y-89592872D01*
X100062792Y-89610996D01*
X99967712Y-89631206D01*
X99961682Y-89633891D01*
X99961681Y-89633891D01*
X99799278Y-89706197D01*
X99799276Y-89706198D01*
X99793248Y-89708882D01*
X99638747Y-89821134D01*
X99510960Y-89963056D01*
X99507659Y-89968774D01*
X99436011Y-90092872D01*
X99415473Y-90128444D01*
X99356458Y-90310072D01*
X99336496Y-90500000D01*
X95481155Y-90500000D01*
X95570999Y-90434724D01*
X95698786Y-90292802D01*
X95785724Y-90142222D01*
X95790969Y-90133137D01*
X95790970Y-90133136D01*
X95794273Y-90127414D01*
X95853288Y-89945786D01*
X95873250Y-89755858D01*
X95857476Y-89605778D01*
X95870248Y-89535940D01*
X95889146Y-89508303D01*
X95995037Y-89390699D01*
X96090524Y-89225311D01*
X96133363Y-89093467D01*
X96173437Y-89034861D01*
X96201948Y-89017296D01*
X96351611Y-88950663D01*
X96351618Y-88950659D01*
X96357644Y-88947976D01*
X96371879Y-88937634D01*
X96483460Y-88856565D01*
X96492496Y-88850000D01*
X108586496Y-88850000D01*
X108587186Y-88856565D01*
X108604958Y-89025652D01*
X108606458Y-89039928D01*
X108665473Y-89221556D01*
X108760960Y-89386944D01*
X108765378Y-89391851D01*
X108765379Y-89391852D01*
X108884325Y-89523955D01*
X108888747Y-89528866D01*
X109043248Y-89641118D01*
X109049276Y-89643802D01*
X109049278Y-89643803D01*
X109195449Y-89708882D01*
X109217712Y-89718794D01*
X109311113Y-89738647D01*
X109398056Y-89757128D01*
X109398061Y-89757128D01*
X109404513Y-89758500D01*
X109595487Y-89758500D01*
X109601939Y-89757128D01*
X109601944Y-89757128D01*
X109688887Y-89738647D01*
X109782288Y-89718794D01*
X109804551Y-89708882D01*
X109950722Y-89643803D01*
X109950724Y-89643802D01*
X109956752Y-89641118D01*
X110111253Y-89528866D01*
X110115675Y-89523955D01*
X110234621Y-89391852D01*
X110234622Y-89391851D01*
X110239040Y-89386944D01*
X110334527Y-89221556D01*
X110393542Y-89039928D01*
X110395043Y-89025652D01*
X110412814Y-88856565D01*
X110413504Y-88850000D01*
X110395399Y-88677742D01*
X110394232Y-88666635D01*
X110394232Y-88666633D01*
X110393542Y-88660072D01*
X110334527Y-88478444D01*
X110239040Y-88313056D01*
X110176685Y-88243803D01*
X110115675Y-88176045D01*
X110115674Y-88176044D01*
X110111253Y-88171134D01*
X109975178Y-88072269D01*
X109962094Y-88062763D01*
X109962093Y-88062762D01*
X109956752Y-88058882D01*
X109950724Y-88056198D01*
X109950722Y-88056197D01*
X109788319Y-87983891D01*
X109788318Y-87983891D01*
X109782288Y-87981206D01*
X109688887Y-87961353D01*
X109601944Y-87942872D01*
X109601939Y-87942872D01*
X109595487Y-87941500D01*
X109404513Y-87941500D01*
X109398061Y-87942872D01*
X109398056Y-87942872D01*
X109311113Y-87961353D01*
X109217712Y-87981206D01*
X109211682Y-87983891D01*
X109211681Y-87983891D01*
X109049278Y-88056197D01*
X109049276Y-88056198D01*
X109043248Y-88058882D01*
X109037907Y-88062762D01*
X109037906Y-88062763D01*
X109024822Y-88072269D01*
X108888747Y-88171134D01*
X108884326Y-88176044D01*
X108884325Y-88176045D01*
X108823316Y-88243803D01*
X108760960Y-88313056D01*
X108665473Y-88478444D01*
X108606458Y-88660072D01*
X108605768Y-88666633D01*
X108605768Y-88666635D01*
X108604601Y-88677742D01*
X108586496Y-88850000D01*
X96492496Y-88850000D01*
X96512145Y-88835724D01*
X96593935Y-88744887D01*
X96635513Y-88698710D01*
X96635514Y-88698709D01*
X96639932Y-88693802D01*
X96735419Y-88528414D01*
X96761015Y-88449639D01*
X96801087Y-88391034D01*
X96866484Y-88363397D01*
X96932095Y-88373469D01*
X96994903Y-88401433D01*
X96994911Y-88401436D01*
X97000938Y-88404119D01*
X97094338Y-88423972D01*
X97181282Y-88442453D01*
X97181287Y-88442453D01*
X97187739Y-88443825D01*
X97378713Y-88443825D01*
X97385165Y-88442453D01*
X97385170Y-88442453D01*
X97472114Y-88423972D01*
X97565514Y-88404119D01*
X97594904Y-88391034D01*
X97733948Y-88329128D01*
X97733950Y-88329127D01*
X97739978Y-88326443D01*
X97750534Y-88318774D01*
X97795383Y-88286189D01*
X97894479Y-88214191D01*
X98022266Y-88072269D01*
X98097766Y-87941500D01*
X98114449Y-87912604D01*
X98114450Y-87912603D01*
X98117753Y-87906881D01*
X98176768Y-87725253D01*
X98183231Y-87663767D01*
X98196040Y-87541890D01*
X98196730Y-87535325D01*
X98176768Y-87345397D01*
X98117753Y-87163769D01*
X98101112Y-87134945D01*
X98025567Y-87004099D01*
X98022266Y-86998381D01*
X97894479Y-86856459D01*
X97739978Y-86744207D01*
X97733950Y-86741523D01*
X97733948Y-86741522D01*
X97571549Y-86669218D01*
X97565514Y-86666531D01*
X97561664Y-86665713D01*
X97503876Y-86626199D01*
X97481584Y-86585374D01*
X97434999Y-86442002D01*
X97432957Y-86435717D01*
X97337470Y-86270329D01*
X97274843Y-86200774D01*
X97214105Y-86133318D01*
X97214104Y-86133317D01*
X97209683Y-86128407D01*
X97055182Y-86016155D01*
X97049154Y-86013471D01*
X97049152Y-86013470D01*
X96886746Y-85941163D01*
X96886747Y-85941163D01*
X96880718Y-85938479D01*
X96877084Y-85937707D01*
X96819361Y-85898240D01*
X96791591Y-85831650D01*
X96790494Y-85821213D01*
X96790492Y-85821202D01*
X96789802Y-85814640D01*
X96778197Y-85778922D01*
X96732829Y-85639297D01*
X96730787Y-85633012D01*
X96635300Y-85467624D01*
X96630116Y-85461866D01*
X96529391Y-85350000D01*
X103236496Y-85350000D01*
X103237186Y-85356565D01*
X103249460Y-85473342D01*
X103256458Y-85539928D01*
X103315473Y-85721556D01*
X103410960Y-85886944D01*
X103415378Y-85891851D01*
X103415379Y-85891852D01*
X103421131Y-85898240D01*
X103538747Y-86028866D01*
X103693248Y-86141118D01*
X103699276Y-86143802D01*
X103699278Y-86143803D01*
X103827238Y-86200774D01*
X103867712Y-86218794D01*
X103961112Y-86238647D01*
X104048056Y-86257128D01*
X104048061Y-86257128D01*
X104054513Y-86258500D01*
X104216686Y-86258500D01*
X104284807Y-86278502D01*
X104331300Y-86332158D01*
X104341996Y-86397670D01*
X104336496Y-86450000D01*
X104337186Y-86456565D01*
X104349113Y-86570040D01*
X104356458Y-86639928D01*
X104415473Y-86821556D01*
X104510960Y-86986944D01*
X104588194Y-87072721D01*
X104597671Y-87083246D01*
X104628388Y-87147254D01*
X104623867Y-87206492D01*
X104606458Y-87260072D01*
X104605768Y-87266633D01*
X104605768Y-87266635D01*
X104599105Y-87330031D01*
X104586496Y-87450000D01*
X104587186Y-87456565D01*
X104604472Y-87621028D01*
X104606458Y-87639928D01*
X104665473Y-87821556D01*
X104760960Y-87986944D01*
X104765378Y-87991851D01*
X104765379Y-87991852D01*
X104825733Y-88058882D01*
X104888747Y-88128866D01*
X105043248Y-88241118D01*
X105049276Y-88243802D01*
X105049278Y-88243803D01*
X105202234Y-88311903D01*
X105217712Y-88318794D01*
X105311112Y-88338647D01*
X105398056Y-88357128D01*
X105398061Y-88357128D01*
X105404513Y-88358500D01*
X105595487Y-88358500D01*
X105601939Y-88357128D01*
X105601944Y-88357128D01*
X105688888Y-88338647D01*
X105782288Y-88318794D01*
X105797766Y-88311903D01*
X105950722Y-88243803D01*
X105950724Y-88243802D01*
X105956752Y-88241118D01*
X106111253Y-88128866D01*
X106174267Y-88058882D01*
X106234621Y-87991852D01*
X106234622Y-87991851D01*
X106239040Y-87986944D01*
X106334527Y-87821556D01*
X106393542Y-87639928D01*
X106395529Y-87621028D01*
X106412814Y-87456565D01*
X106413504Y-87450000D01*
X106400895Y-87330031D01*
X106394232Y-87266635D01*
X106394232Y-87266633D01*
X106393542Y-87260072D01*
X106334527Y-87078444D01*
X106325078Y-87062077D01*
X106291246Y-87003480D01*
X106239040Y-86913056D01*
X106152329Y-86816753D01*
X106121612Y-86752746D01*
X106126133Y-86693508D01*
X106140566Y-86649088D01*
X106143542Y-86639928D01*
X106150888Y-86570040D01*
X106162814Y-86456565D01*
X106163504Y-86450000D01*
X106152435Y-86344682D01*
X106144232Y-86266635D01*
X106144232Y-86266633D01*
X106143542Y-86260072D01*
X106084527Y-86078444D01*
X105989040Y-85913056D01*
X105972150Y-85894297D01*
X105868265Y-85778922D01*
X110974619Y-85778922D01*
X110975309Y-85785487D01*
X110986221Y-85889305D01*
X110994581Y-85968850D01*
X111053596Y-86150478D01*
X111056899Y-86156200D01*
X111056900Y-86156201D01*
X111073537Y-86185017D01*
X111149083Y-86315866D01*
X111153501Y-86320773D01*
X111153502Y-86320774D01*
X111269858Y-86450000D01*
X111276870Y-86457788D01*
X111370418Y-86525755D01*
X111410350Y-86554767D01*
X111431371Y-86570040D01*
X111437399Y-86572724D01*
X111437401Y-86572725D01*
X111599804Y-86645031D01*
X111605835Y-86647716D01*
X111693134Y-86666272D01*
X111786179Y-86686050D01*
X111786184Y-86686050D01*
X111792636Y-86687422D01*
X111983610Y-86687422D01*
X111990062Y-86686050D01*
X111990067Y-86686050D01*
X112083112Y-86666272D01*
X112170411Y-86647716D01*
X112176442Y-86645031D01*
X112338845Y-86572725D01*
X112338847Y-86572724D01*
X112344875Y-86570040D01*
X112365897Y-86554767D01*
X112405828Y-86525755D01*
X112499376Y-86457788D01*
X112506388Y-86450000D01*
X112622744Y-86320774D01*
X112622745Y-86320773D01*
X112627163Y-86315866D01*
X112702709Y-86185017D01*
X112719346Y-86156201D01*
X112719347Y-86156200D01*
X112722650Y-86150478D01*
X112781665Y-85968850D01*
X112790026Y-85889305D01*
X112800937Y-85785487D01*
X112801627Y-85778922D01*
X112789418Y-85662763D01*
X112782355Y-85595557D01*
X112782355Y-85595555D01*
X112781665Y-85588994D01*
X112722650Y-85407366D01*
X112699273Y-85366875D01*
X112639470Y-85263295D01*
X112627163Y-85241978D01*
X112609269Y-85222104D01*
X112503798Y-85104967D01*
X112503797Y-85104966D01*
X112499376Y-85100056D01*
X112400280Y-85028058D01*
X112350217Y-84991685D01*
X112350216Y-84991684D01*
X112344875Y-84987804D01*
X112338847Y-84985120D01*
X112338845Y-84985119D01*
X112176442Y-84912813D01*
X112176441Y-84912813D01*
X112170411Y-84910128D01*
X112077010Y-84890275D01*
X111990067Y-84871794D01*
X111990062Y-84871794D01*
X111983610Y-84870422D01*
X111792636Y-84870422D01*
X111786184Y-84871794D01*
X111786179Y-84871794D01*
X111699236Y-84890275D01*
X111605835Y-84910128D01*
X111599805Y-84912813D01*
X111599804Y-84912813D01*
X111437401Y-84985119D01*
X111437399Y-84985120D01*
X111431371Y-84987804D01*
X111426030Y-84991684D01*
X111426029Y-84991685D01*
X111375966Y-85028058D01*
X111276870Y-85100056D01*
X111272449Y-85104966D01*
X111272448Y-85104967D01*
X111166978Y-85222104D01*
X111149083Y-85241978D01*
X111136776Y-85263295D01*
X111076974Y-85366875D01*
X111053596Y-85407366D01*
X110994581Y-85588994D01*
X110993891Y-85595555D01*
X110993891Y-85595557D01*
X110986828Y-85662763D01*
X110974619Y-85778922D01*
X105868265Y-85778922D01*
X105865675Y-85776045D01*
X105865674Y-85776044D01*
X105861253Y-85771134D01*
X105706752Y-85658882D01*
X105700724Y-85656198D01*
X105700722Y-85656197D01*
X105538319Y-85583891D01*
X105538318Y-85583891D01*
X105532288Y-85581206D01*
X105438888Y-85561353D01*
X105351944Y-85542872D01*
X105351939Y-85542872D01*
X105345487Y-85541500D01*
X105183314Y-85541500D01*
X105115193Y-85521498D01*
X105068700Y-85467842D01*
X105058004Y-85402330D01*
X105062814Y-85356565D01*
X105063504Y-85350000D01*
X105051635Y-85237070D01*
X105044232Y-85166635D01*
X105044232Y-85166633D01*
X105043542Y-85160072D01*
X104984527Y-84978444D01*
X104889040Y-84813056D01*
X104761253Y-84671134D01*
X104606752Y-84558882D01*
X104600724Y-84556198D01*
X104600722Y-84556197D01*
X104438319Y-84483891D01*
X104438318Y-84483891D01*
X104432288Y-84481206D01*
X104338888Y-84461353D01*
X104251944Y-84442872D01*
X104251939Y-84442872D01*
X104245487Y-84441500D01*
X104054513Y-84441500D01*
X104048061Y-84442872D01*
X104048056Y-84442872D01*
X103961112Y-84461353D01*
X103867712Y-84481206D01*
X103861682Y-84483891D01*
X103861681Y-84483891D01*
X103699278Y-84556197D01*
X103699276Y-84556198D01*
X103693248Y-84558882D01*
X103538747Y-84671134D01*
X103410960Y-84813056D01*
X103315473Y-84978444D01*
X103256458Y-85160072D01*
X103255768Y-85166633D01*
X103255768Y-85166635D01*
X103248365Y-85237070D01*
X103236496Y-85350000D01*
X96529391Y-85350000D01*
X96511935Y-85330613D01*
X96511934Y-85330612D01*
X96507513Y-85325702D01*
X96353012Y-85213450D01*
X96346984Y-85210766D01*
X96346982Y-85210765D01*
X96184579Y-85138459D01*
X96184578Y-85138459D01*
X96178548Y-85135774D01*
X96085147Y-85115921D01*
X95998204Y-85097440D01*
X95998199Y-85097440D01*
X95991747Y-85096068D01*
X95800773Y-85096068D01*
X95794321Y-85097440D01*
X95794316Y-85097440D01*
X95707373Y-85115921D01*
X95613972Y-85135774D01*
X95607942Y-85138459D01*
X95607941Y-85138459D01*
X95445538Y-85210765D01*
X95445536Y-85210766D01*
X95439508Y-85213450D01*
X95285007Y-85325702D01*
X95280586Y-85330612D01*
X95280585Y-85330613D01*
X95162405Y-85461866D01*
X95157220Y-85467624D01*
X95061733Y-85633012D01*
X95002718Y-85814640D01*
X95002028Y-85821201D01*
X95002028Y-85821203D01*
X94995364Y-85884610D01*
X94982756Y-86004568D01*
X94983446Y-86011133D01*
X94998092Y-86150478D01*
X95002718Y-86194496D01*
X95061733Y-86376124D01*
X95065036Y-86381846D01*
X95065037Y-86381847D01*
X95092835Y-86429994D01*
X95157220Y-86541512D01*
X95285007Y-86683434D01*
X95439508Y-86795686D01*
X95445536Y-86798370D01*
X95445538Y-86798371D01*
X95497613Y-86821556D01*
X95613972Y-86873362D01*
X95617606Y-86874134D01*
X95675329Y-86913601D01*
X95703099Y-86980191D01*
X95704196Y-86990628D01*
X95704198Y-86990639D01*
X95704888Y-86997201D01*
X95706928Y-87003478D01*
X95706928Y-87003480D01*
X95744473Y-87119030D01*
X95746501Y-87189997D01*
X95709838Y-87250795D01*
X95650837Y-87281213D01*
X95639331Y-87283658D01*
X95625062Y-87286691D01*
X95625059Y-87286692D01*
X95618604Y-87288064D01*
X95612574Y-87290749D01*
X95612573Y-87290749D01*
X95450170Y-87363055D01*
X95450168Y-87363056D01*
X95444140Y-87365740D01*
X95289639Y-87477992D01*
X95285218Y-87482902D01*
X95285217Y-87482903D01*
X95203859Y-87573261D01*
X95161852Y-87619914D01*
X95066365Y-87785302D01*
X95054585Y-87821556D01*
X95023526Y-87917146D01*
X94983452Y-87975752D01*
X94954941Y-87993317D01*
X94805278Y-88059950D01*
X94805271Y-88059954D01*
X94799245Y-88062637D01*
X94644744Y-88174889D01*
X94640323Y-88179799D01*
X94640322Y-88179800D01*
X94582694Y-88243803D01*
X94516957Y-88316811D01*
X94421470Y-88482199D01*
X94362455Y-88663827D01*
X94361765Y-88670388D01*
X94361765Y-88670390D01*
X94353935Y-88744887D01*
X94342493Y-88853755D01*
X94352679Y-88950663D01*
X94358267Y-89003834D01*
X94345495Y-89073673D01*
X94326597Y-89101310D01*
X94220706Y-89218914D01*
X94125219Y-89384302D01*
X94066204Y-89565930D01*
X94065514Y-89572491D01*
X94065514Y-89572493D01*
X94051179Y-89708882D01*
X94046242Y-89755858D01*
X94066204Y-89945786D01*
X94125219Y-90127414D01*
X94128522Y-90133136D01*
X94128523Y-90133137D01*
X94133768Y-90142222D01*
X94220706Y-90292802D01*
X94348493Y-90434724D01*
X94353837Y-90438607D01*
X94358744Y-90443025D01*
X94357315Y-90444612D01*
X94394573Y-90492913D01*
X94400659Y-90563648D01*
X94367537Y-90626445D01*
X94317770Y-90657923D01*
X94160250Y-90711547D01*
X94153579Y-90713818D01*
X94147575Y-90717512D01*
X94005095Y-90805166D01*
X94005092Y-90805168D01*
X93999088Y-90808862D01*
X93994053Y-90813793D01*
X93994050Y-90813795D01*
X93903469Y-90902499D01*
X93869493Y-90935771D01*
X93771235Y-91088238D01*
X93768826Y-91094858D01*
X93768824Y-91094861D01*
X93718413Y-91233365D01*
X93709197Y-91258685D01*
X93686463Y-91438640D01*
X93704163Y-91619160D01*
X93761418Y-91791273D01*
X93765065Y-91797295D01*
X93765066Y-91797297D01*
X93839478Y-91920166D01*
X93855380Y-91946424D01*
X93865717Y-91957128D01*
X93935533Y-92029425D01*
X93968465Y-92092322D01*
X93963297Y-92160047D01*
X93956448Y-92178866D01*
X93909197Y-92308685D01*
X93886463Y-92488640D01*
X93904163Y-92669160D01*
X93961418Y-92841273D01*
X93965065Y-92847295D01*
X93965066Y-92847297D01*
X94044636Y-92978683D01*
X94055380Y-92996424D01*
X94060269Y-93001487D01*
X94060270Y-93001488D01*
X94160747Y-93105534D01*
X94193679Y-93168430D01*
X94187379Y-93239147D01*
X94148256Y-93289718D01*
X94148861Y-93290362D01*
X94144830Y-93294147D01*
X94144175Y-93294994D01*
X94143085Y-93295786D01*
X94143083Y-93295788D01*
X94136669Y-93300448D01*
X94108488Y-93334513D01*
X94100498Y-93343293D01*
X93288089Y-94155702D01*
X93225777Y-94189728D01*
X93154962Y-94184663D01*
X93098126Y-94142116D01*
X93073373Y-94075752D01*
X93073684Y-94072795D01*
X93053722Y-93882867D01*
X92994707Y-93701239D01*
X92899220Y-93535851D01*
X92771433Y-93393929D01*
X92635261Y-93294994D01*
X92622274Y-93285558D01*
X92622273Y-93285557D01*
X92616932Y-93281677D01*
X92610904Y-93278993D01*
X92610902Y-93278992D01*
X92448499Y-93206686D01*
X92448498Y-93206686D01*
X92442468Y-93204001D01*
X92349068Y-93184148D01*
X92262124Y-93165667D01*
X92262119Y-93165667D01*
X92255667Y-93164295D01*
X92064693Y-93164295D01*
X92058241Y-93165667D01*
X92058236Y-93165667D01*
X91971292Y-93184148D01*
X91877892Y-93204001D01*
X91871862Y-93206686D01*
X91871861Y-93206686D01*
X91709458Y-93278992D01*
X91709456Y-93278993D01*
X91703428Y-93281677D01*
X91698087Y-93285557D01*
X91698086Y-93285558D01*
X91685099Y-93294994D01*
X91548927Y-93393929D01*
X91421140Y-93535851D01*
X91325653Y-93701239D01*
X91266638Y-93882867D01*
X91246676Y-94072795D01*
X91266638Y-94262723D01*
X91325653Y-94444351D01*
X91421140Y-94609739D01*
X91548927Y-94751661D01*
X91703428Y-94863913D01*
X91709456Y-94866597D01*
X91709458Y-94866598D01*
X91871861Y-94938904D01*
X91877892Y-94941589D01*
X91971292Y-94961442D01*
X92058236Y-94979923D01*
X92058241Y-94979923D01*
X92064693Y-94981295D01*
X92158306Y-94981295D01*
X92226427Y-95001297D01*
X92272920Y-95054953D01*
X92283024Y-95125227D01*
X92253530Y-95189807D01*
X92247401Y-95196390D01*
X89902705Y-97541086D01*
X89894419Y-97548626D01*
X89887940Y-97552738D01*
X89882515Y-97558515D01*
X89841315Y-97602389D01*
X89838560Y-97605231D01*
X89818823Y-97624968D01*
X89816343Y-97628165D01*
X89808640Y-97637185D01*
X89778372Y-97669417D01*
X89774553Y-97676363D01*
X89774551Y-97676366D01*
X89768610Y-97687172D01*
X89757759Y-97703691D01*
X89745344Y-97719697D01*
X89742199Y-97726966D01*
X89742196Y-97726970D01*
X89727784Y-97760275D01*
X89722567Y-97770925D01*
X89701263Y-97809678D01*
X89699292Y-97817353D01*
X89699292Y-97817354D01*
X89696225Y-97829300D01*
X89689821Y-97848004D01*
X89681777Y-97866593D01*
X89680538Y-97874416D01*
X89680535Y-97874426D01*
X89674859Y-97910262D01*
X89672453Y-97921882D01*
X89670934Y-97927800D01*
X89661458Y-97964708D01*
X89661458Y-97984962D01*
X89659907Y-98004672D01*
X89656738Y-98024681D01*
X89657484Y-98032573D01*
X89660899Y-98068699D01*
X89661458Y-98080557D01*
X89661458Y-99298921D01*
X89641456Y-99367042D01*
X89624553Y-99388017D01*
X89250492Y-99762077D01*
X88882341Y-100130228D01*
X88874062Y-100137762D01*
X88867581Y-100141875D01*
X88829198Y-100182749D01*
X88820956Y-100191526D01*
X88818201Y-100194368D01*
X88798464Y-100214105D01*
X88795984Y-100217302D01*
X88788281Y-100226322D01*
X88758013Y-100258554D01*
X88754194Y-100265500D01*
X88754192Y-100265503D01*
X88748251Y-100276309D01*
X88737400Y-100292828D01*
X88724985Y-100308834D01*
X88721840Y-100316103D01*
X88721837Y-100316107D01*
X88707425Y-100349412D01*
X88702208Y-100360062D01*
X88680904Y-100398815D01*
X88678933Y-100406490D01*
X88678933Y-100406491D01*
X88675866Y-100418437D01*
X88669462Y-100437141D01*
X88661418Y-100455730D01*
X88660179Y-100463553D01*
X88660176Y-100463563D01*
X88654500Y-100499399D01*
X88652094Y-100511019D01*
X88641099Y-100553845D01*
X88641099Y-100574099D01*
X88639548Y-100593809D01*
X88636379Y-100613818D01*
X88637125Y-100621710D01*
X88640540Y-100657836D01*
X88641099Y-100669694D01*
X88641099Y-105181821D01*
X88621097Y-105249942D01*
X88567441Y-105296435D01*
X88513561Y-105307812D01*
X88408598Y-105306530D01*
X88302080Y-105305228D01*
X88302078Y-105305228D01*
X88296911Y-105305165D01*
X88076091Y-105338955D01*
X87863756Y-105408357D01*
X87834941Y-105423357D01*
X87687084Y-105500327D01*
X87665607Y-105511507D01*
X87661474Y-105514610D01*
X87661471Y-105514612D01*
X87578450Y-105576946D01*
X87486965Y-105645635D01*
X87332629Y-105807138D01*
X87225201Y-105964621D01*
X87170293Y-106009621D01*
X87099768Y-106017792D01*
X87036021Y-105986538D01*
X87015324Y-105962054D01*
X86934822Y-105837617D01*
X86934820Y-105837614D01*
X86932014Y-105833277D01*
X86781670Y-105668051D01*
X86777619Y-105664852D01*
X86777615Y-105664848D01*
X86610414Y-105532800D01*
X86610410Y-105532798D01*
X86606359Y-105529598D01*
X86592228Y-105521797D01*
X86528593Y-105486669D01*
X86410789Y-105421638D01*
X86405920Y-105419914D01*
X86405916Y-105419912D01*
X86205087Y-105348795D01*
X86205083Y-105348794D01*
X86200212Y-105347069D01*
X86195119Y-105346162D01*
X86195116Y-105346161D01*
X85985373Y-105308800D01*
X85985367Y-105308799D01*
X85980284Y-105307894D01*
X85906452Y-105306992D01*
X85762081Y-105305228D01*
X85762079Y-105305228D01*
X85756911Y-105305165D01*
X85536091Y-105338955D01*
X85323756Y-105408357D01*
X85294941Y-105423357D01*
X85147084Y-105500327D01*
X85125607Y-105511507D01*
X85121474Y-105514610D01*
X85121471Y-105514612D01*
X85038450Y-105576946D01*
X84946965Y-105645635D01*
X84792629Y-105807138D01*
X84789720Y-105811403D01*
X84789714Y-105811411D01*
X84774798Y-105833277D01*
X84666743Y-105991680D01*
X84572688Y-106194305D01*
X84512989Y-106409570D01*
X84489251Y-106631695D01*
X84489548Y-106636848D01*
X84489548Y-106636851D01*
X84495876Y-106746590D01*
X84502110Y-106854715D01*
X84503247Y-106859761D01*
X84503248Y-106859767D01*
X84518618Y-106927966D01*
X84551222Y-107072639D01*
X84635266Y-107279616D01*
X84681549Y-107355144D01*
X84749291Y-107465688D01*
X84751987Y-107470088D01*
X84898250Y-107638938D01*
X85070126Y-107781632D01*
X85086279Y-107791071D01*
X85143445Y-107824476D01*
X85192169Y-107876114D01*
X85205240Y-107945897D01*
X85178509Y-108011669D01*
X85138055Y-108045027D01*
X85125607Y-108051507D01*
X85121474Y-108054610D01*
X85121471Y-108054612D01*
X84951100Y-108182530D01*
X84946965Y-108185635D01*
X84943393Y-108189373D01*
X84816780Y-108321866D01*
X84792629Y-108347138D01*
X84666743Y-108531680D01*
X84572688Y-108734305D01*
X84512989Y-108949570D01*
X84489251Y-109171695D01*
X82638500Y-109171695D01*
X82638500Y-108321866D01*
X82631745Y-108259684D01*
X82580615Y-108123295D01*
X82493261Y-108006739D01*
X82376705Y-107919385D01*
X82349905Y-107909338D01*
X82258203Y-107874960D01*
X82201439Y-107832318D01*
X82176739Y-107765756D01*
X82191947Y-107696408D01*
X82213493Y-107667727D01*
X82244449Y-107636879D01*
X82318096Y-107563489D01*
X82331891Y-107544292D01*
X82445435Y-107386277D01*
X82448453Y-107382077D01*
X82453437Y-107371994D01*
X82545136Y-107186453D01*
X82545137Y-107186451D01*
X82547430Y-107181811D01*
X82612370Y-106968069D01*
X82641529Y-106746590D01*
X82641611Y-106743240D01*
X82643074Y-106683365D01*
X82643074Y-106683361D01*
X82643156Y-106680000D01*
X82624852Y-106457361D01*
X82570431Y-106240702D01*
X82481354Y-106035840D01*
X82360014Y-105848277D01*
X82209670Y-105683051D01*
X82205619Y-105679852D01*
X82205615Y-105679848D01*
X82038414Y-105547800D01*
X82038410Y-105547798D01*
X82034359Y-105544598D01*
X81993053Y-105521796D01*
X81943084Y-105471364D01*
X81928312Y-105401921D01*
X81953428Y-105335516D01*
X81980780Y-105308909D01*
X82048661Y-105260490D01*
X82159860Y-105181173D01*
X82318096Y-105023489D01*
X82332468Y-105003489D01*
X82445435Y-104846277D01*
X82448453Y-104842077D01*
X82460631Y-104817438D01*
X82545136Y-104646453D01*
X82545137Y-104646451D01*
X82547430Y-104641811D01*
X82612370Y-104428069D01*
X82641529Y-104206590D01*
X82643156Y-104140000D01*
X82624852Y-103917361D01*
X82570431Y-103700702D01*
X82481354Y-103495840D01*
X82398166Y-103367251D01*
X82362822Y-103312617D01*
X82362820Y-103312614D01*
X82360014Y-103308277D01*
X82209670Y-103143051D01*
X82205619Y-103139852D01*
X82205615Y-103139848D01*
X82038414Y-103007800D01*
X82038410Y-103007798D01*
X82034359Y-103004598D01*
X81993053Y-102981796D01*
X81943084Y-102931364D01*
X81928312Y-102861921D01*
X81953428Y-102795516D01*
X81980780Y-102768909D01*
X82032411Y-102732081D01*
X82159860Y-102641173D01*
X82318096Y-102483489D01*
X82377594Y-102400689D01*
X82445435Y-102306277D01*
X82448453Y-102302077D01*
X82452543Y-102293803D01*
X82545136Y-102106453D01*
X82545137Y-102106451D01*
X82547430Y-102101811D01*
X82612370Y-101888069D01*
X82641529Y-101666590D01*
X82643156Y-101600000D01*
X82624852Y-101377361D01*
X82570431Y-101160702D01*
X82481354Y-100955840D01*
X82360014Y-100768277D01*
X82209670Y-100603051D01*
X82205619Y-100599852D01*
X82205615Y-100599848D01*
X82038414Y-100467800D01*
X82038410Y-100467798D01*
X82034359Y-100464598D01*
X81993053Y-100441796D01*
X81943084Y-100391364D01*
X81928312Y-100321921D01*
X81953428Y-100255516D01*
X81980780Y-100228909D01*
X82045648Y-100182639D01*
X82159860Y-100101173D01*
X82195227Y-100065930D01*
X82314435Y-99947137D01*
X82318096Y-99943489D01*
X82337610Y-99916333D01*
X82445435Y-99766277D01*
X82448453Y-99762077D01*
X82469320Y-99719857D01*
X82545136Y-99566453D01*
X82545137Y-99566451D01*
X82547430Y-99561811D01*
X82612370Y-99348069D01*
X82641529Y-99126590D01*
X82643156Y-99060000D01*
X82624852Y-98837361D01*
X82570431Y-98620702D01*
X82481354Y-98415840D01*
X82360014Y-98228277D01*
X82209670Y-98063051D01*
X82205619Y-98059852D01*
X82205615Y-98059848D01*
X82038414Y-97927800D01*
X82038410Y-97927798D01*
X82034359Y-97924598D01*
X81993053Y-97901796D01*
X81943084Y-97851364D01*
X81928312Y-97781921D01*
X81953428Y-97715516D01*
X81980780Y-97688909D01*
X82047563Y-97641273D01*
X82159860Y-97561173D01*
X82172001Y-97549075D01*
X82314435Y-97407137D01*
X82318096Y-97403489D01*
X82377594Y-97320689D01*
X82445435Y-97226277D01*
X82448453Y-97222077D01*
X82469320Y-97179857D01*
X82545136Y-97026453D01*
X82545137Y-97026451D01*
X82547430Y-97021811D01*
X82596932Y-96858882D01*
X82610865Y-96813023D01*
X82610865Y-96813021D01*
X82612370Y-96808069D01*
X82641529Y-96586590D01*
X82641873Y-96572506D01*
X82643074Y-96523365D01*
X82643074Y-96523361D01*
X82643156Y-96520000D01*
X82624852Y-96297361D01*
X82570431Y-96080702D01*
X82481354Y-95875840D01*
X82414504Y-95772506D01*
X82362822Y-95692617D01*
X82362820Y-95692614D01*
X82360014Y-95688277D01*
X82209670Y-95523051D01*
X82205619Y-95519852D01*
X82205615Y-95519848D01*
X82038414Y-95387800D01*
X82038410Y-95387798D01*
X82034359Y-95384598D01*
X82028215Y-95381206D01*
X81869883Y-95293803D01*
X81838789Y-95276638D01*
X81833920Y-95274914D01*
X81833916Y-95274912D01*
X81633087Y-95203795D01*
X81633083Y-95203794D01*
X81628212Y-95202069D01*
X81623119Y-95201162D01*
X81623116Y-95201161D01*
X81413373Y-95163800D01*
X81413367Y-95163799D01*
X81408284Y-95162894D01*
X81334452Y-95161992D01*
X81190081Y-95160228D01*
X81190079Y-95160228D01*
X81184911Y-95160165D01*
X80964091Y-95193955D01*
X80751756Y-95263357D01*
X80553607Y-95366507D01*
X80549474Y-95369610D01*
X80549471Y-95369612D01*
X80379100Y-95497530D01*
X80374965Y-95500635D01*
X80220629Y-95662138D01*
X80113201Y-95819621D01*
X80058293Y-95864621D01*
X79987768Y-95872792D01*
X79924021Y-95841538D01*
X79903324Y-95817054D01*
X79822822Y-95692617D01*
X79822820Y-95692614D01*
X79820014Y-95688277D01*
X79669670Y-95523051D01*
X79665619Y-95519852D01*
X79665615Y-95519848D01*
X79498414Y-95387800D01*
X79498410Y-95387798D01*
X79494359Y-95384598D01*
X79488215Y-95381206D01*
X79329883Y-95293803D01*
X79298789Y-95276638D01*
X79293920Y-95274914D01*
X79293916Y-95274912D01*
X79093087Y-95203795D01*
X79093083Y-95203794D01*
X79088212Y-95202069D01*
X79083119Y-95201162D01*
X79083116Y-95201161D01*
X78873373Y-95163800D01*
X78873367Y-95163799D01*
X78868284Y-95162894D01*
X78794452Y-95161992D01*
X78650081Y-95160228D01*
X78650079Y-95160228D01*
X78644911Y-95160165D01*
X78424091Y-95193955D01*
X78211756Y-95263357D01*
X78013607Y-95366507D01*
X78009474Y-95369610D01*
X78009471Y-95369612D01*
X77839100Y-95497530D01*
X77834965Y-95500635D01*
X77680629Y-95662138D01*
X77677720Y-95666403D01*
X77677714Y-95666411D01*
X77639874Y-95721882D01*
X77554743Y-95846680D01*
X77507715Y-95947993D01*
X77470035Y-96029169D01*
X77460688Y-96049305D01*
X77400989Y-96264570D01*
X77377251Y-96486695D01*
X77377548Y-96491848D01*
X77377548Y-96491851D01*
X77385027Y-96621556D01*
X77390110Y-96709715D01*
X77391247Y-96714761D01*
X77391248Y-96714767D01*
X77409245Y-96794624D01*
X77439222Y-96927639D01*
X77479346Y-97026453D01*
X77520134Y-97126902D01*
X77523266Y-97134616D01*
X77574019Y-97217438D01*
X77637291Y-97320688D01*
X77639987Y-97325088D01*
X77786250Y-97493938D01*
X77958126Y-97636632D01*
X78007210Y-97665314D01*
X78031445Y-97679476D01*
X78080169Y-97731114D01*
X78093240Y-97800897D01*
X78066509Y-97866669D01*
X78026055Y-97900027D01*
X78013607Y-97906507D01*
X78009474Y-97909610D01*
X78009471Y-97909612D01*
X77839100Y-98037530D01*
X77834965Y-98040635D01*
X77831393Y-98044373D01*
X77690459Y-98191852D01*
X77680629Y-98202138D01*
X77554743Y-98386680D01*
X77460688Y-98589305D01*
X77400989Y-98804570D01*
X77377251Y-99026695D01*
X77377548Y-99031848D01*
X77377548Y-99031851D01*
X77383011Y-99126590D01*
X77390110Y-99249715D01*
X77391247Y-99254761D01*
X77391248Y-99254767D01*
X77401199Y-99298921D01*
X77439222Y-99467639D01*
X77523266Y-99674616D01*
X77574019Y-99757438D01*
X77637291Y-99860688D01*
X77639987Y-99865088D01*
X77786250Y-100033938D01*
X77958126Y-100176632D01*
X77968406Y-100182639D01*
X78031445Y-100219476D01*
X78080169Y-100271114D01*
X78093240Y-100340897D01*
X78066509Y-100406669D01*
X78026055Y-100440027D01*
X78013607Y-100446507D01*
X78009474Y-100449610D01*
X78009471Y-100449612D01*
X77843670Y-100574099D01*
X77834965Y-100580635D01*
X77680629Y-100742138D01*
X77677720Y-100746403D01*
X77677714Y-100746411D01*
X77592556Y-100871249D01*
X77554743Y-100926680D01*
X77460688Y-101129305D01*
X77400989Y-101344570D01*
X77377251Y-101566695D01*
X77377548Y-101571848D01*
X77377548Y-101571851D01*
X77383011Y-101666590D01*
X77390110Y-101789715D01*
X77391247Y-101794761D01*
X77391248Y-101794767D01*
X77408554Y-101871556D01*
X77439222Y-102007639D01*
X77477461Y-102101811D01*
X77508750Y-102178866D01*
X77523266Y-102214616D01*
X77567768Y-102287237D01*
X77637291Y-102400688D01*
X77639987Y-102405088D01*
X77786250Y-102573938D01*
X77958126Y-102716632D01*
X77984564Y-102732081D01*
X78031445Y-102759476D01*
X78080169Y-102811114D01*
X78093240Y-102880897D01*
X78066509Y-102946669D01*
X78026055Y-102980027D01*
X78013607Y-102986507D01*
X78009474Y-102989610D01*
X78009471Y-102989612D01*
X77839100Y-103117530D01*
X77834965Y-103120635D01*
X77831393Y-103124373D01*
X77703313Y-103258401D01*
X77680629Y-103282138D01*
X77554743Y-103466680D01*
X77521582Y-103538119D01*
X77463428Y-103663403D01*
X77460688Y-103669305D01*
X77400989Y-103884570D01*
X77377251Y-104106695D01*
X77377548Y-104111848D01*
X77377548Y-104111851D01*
X77384933Y-104239928D01*
X77390110Y-104329715D01*
X77391247Y-104334761D01*
X77391248Y-104334767D01*
X77411119Y-104422939D01*
X77439222Y-104547639D01*
X77523266Y-104754616D01*
X77561763Y-104817438D01*
X77637291Y-104940688D01*
X77639987Y-104945088D01*
X77786250Y-105113938D01*
X77958126Y-105256632D01*
X78016762Y-105290896D01*
X78031445Y-105299476D01*
X78080169Y-105351114D01*
X78093240Y-105420897D01*
X78066509Y-105486669D01*
X78026055Y-105520027D01*
X78013607Y-105526507D01*
X78009474Y-105529610D01*
X78009471Y-105529612D01*
X77839100Y-105657530D01*
X77834965Y-105660635D01*
X77831393Y-105664373D01*
X77690888Y-105811403D01*
X77680629Y-105822138D01*
X77554743Y-106006680D01*
X77539003Y-106040590D01*
X77465334Y-106199297D01*
X77460688Y-106209305D01*
X77400989Y-106424570D01*
X77377251Y-106646695D01*
X77377548Y-106651848D01*
X77377548Y-106651851D01*
X77383011Y-106746590D01*
X77390110Y-106869715D01*
X77391247Y-106874761D01*
X77391248Y-106874767D01*
X77405299Y-106937115D01*
X77439222Y-107087639D01*
X77523266Y-107294616D01*
X77561607Y-107357183D01*
X77637291Y-107480688D01*
X77639987Y-107485088D01*
X77786250Y-107653938D01*
X77958126Y-107796632D01*
X78017611Y-107831392D01*
X78031445Y-107839476D01*
X78080169Y-107891114D01*
X78093240Y-107960897D01*
X78066509Y-108026669D01*
X78026055Y-108060027D01*
X78013607Y-108066507D01*
X78009474Y-108069610D01*
X78009471Y-108069612D01*
X77839100Y-108197530D01*
X77834965Y-108200635D01*
X77785607Y-108252285D01*
X77690888Y-108351403D01*
X77680629Y-108362138D01*
X77554743Y-108546680D01*
X77507715Y-108647993D01*
X77465334Y-108739297D01*
X77460688Y-108749305D01*
X77400989Y-108964570D01*
X77377251Y-109186695D01*
X76508000Y-109186695D01*
X76508000Y-94500000D01*
X84086496Y-94500000D01*
X84106458Y-94689928D01*
X84165473Y-94871556D01*
X84260960Y-95036944D01*
X84265378Y-95041851D01*
X84265379Y-95041852D01*
X84384325Y-95173955D01*
X84388747Y-95178866D01*
X84420683Y-95202069D01*
X84526758Y-95279137D01*
X84543248Y-95291118D01*
X84549276Y-95293802D01*
X84549278Y-95293803D01*
X84656408Y-95341500D01*
X84717712Y-95368794D01*
X84792064Y-95384598D01*
X84898056Y-95407128D01*
X84898061Y-95407128D01*
X84904513Y-95408500D01*
X85095487Y-95408500D01*
X85101939Y-95407128D01*
X85101944Y-95407128D01*
X85207936Y-95384598D01*
X85282288Y-95368794D01*
X85343592Y-95341500D01*
X85450722Y-95293803D01*
X85450724Y-95293802D01*
X85456752Y-95291118D01*
X85473243Y-95279137D01*
X85579317Y-95202069D01*
X85611253Y-95178866D01*
X85615675Y-95173955D01*
X85734621Y-95041852D01*
X85734622Y-95041851D01*
X85739040Y-95036944D01*
X85834527Y-94871556D01*
X85893542Y-94689928D01*
X85913504Y-94500000D01*
X85893542Y-94310072D01*
X85834527Y-94128444D01*
X85739040Y-93963056D01*
X85611253Y-93821134D01*
X85456752Y-93708882D01*
X85450724Y-93706198D01*
X85450722Y-93706197D01*
X85288319Y-93633891D01*
X85288318Y-93633891D01*
X85282288Y-93631206D01*
X85188887Y-93611353D01*
X85101944Y-93592872D01*
X85101939Y-93592872D01*
X85095487Y-93591500D01*
X84904513Y-93591500D01*
X84898061Y-93592872D01*
X84898056Y-93592872D01*
X84811113Y-93611353D01*
X84717712Y-93631206D01*
X84711682Y-93633891D01*
X84711681Y-93633891D01*
X84549278Y-93706197D01*
X84549276Y-93706198D01*
X84543248Y-93708882D01*
X84388747Y-93821134D01*
X84260960Y-93963056D01*
X84165473Y-94128444D01*
X84106458Y-94310072D01*
X84086496Y-94500000D01*
X76508000Y-94500000D01*
X76508000Y-91500000D01*
X89586496Y-91500000D01*
X89587186Y-91506565D01*
X89599723Y-91625844D01*
X89606458Y-91689928D01*
X89665473Y-91871556D01*
X89668776Y-91877278D01*
X89668777Y-91877279D01*
X89686803Y-91908500D01*
X89760960Y-92036944D01*
X89765378Y-92041851D01*
X89765379Y-92041852D01*
X89867353Y-92155106D01*
X89888747Y-92178866D01*
X90043248Y-92291118D01*
X90049276Y-92293802D01*
X90049278Y-92293803D01*
X90209799Y-92365271D01*
X90217712Y-92368794D01*
X90311113Y-92388647D01*
X90398056Y-92407128D01*
X90398061Y-92407128D01*
X90404513Y-92408500D01*
X90595487Y-92408500D01*
X90601939Y-92407128D01*
X90601944Y-92407128D01*
X90688887Y-92388647D01*
X90782288Y-92368794D01*
X90790201Y-92365271D01*
X90950722Y-92293803D01*
X90950724Y-92293802D01*
X90956752Y-92291118D01*
X91111253Y-92178866D01*
X91132647Y-92155106D01*
X91234621Y-92041852D01*
X91234622Y-92041851D01*
X91239040Y-92036944D01*
X91313197Y-91908500D01*
X91331223Y-91877279D01*
X91331224Y-91877278D01*
X91334527Y-91871556D01*
X91393542Y-91689928D01*
X91400278Y-91625844D01*
X91412814Y-91506565D01*
X91413504Y-91500000D01*
X91411049Y-91476639D01*
X91394232Y-91316635D01*
X91394232Y-91316633D01*
X91393542Y-91310072D01*
X91334527Y-91128444D01*
X91313990Y-91092872D01*
X91264160Y-91006565D01*
X91239040Y-90963056D01*
X91148704Y-90862727D01*
X91115675Y-90826045D01*
X91115674Y-90826044D01*
X91111253Y-90821134D01*
X90985129Y-90729499D01*
X90962094Y-90712763D01*
X90962093Y-90712762D01*
X90956752Y-90708882D01*
X90950724Y-90706198D01*
X90950722Y-90706197D01*
X90788319Y-90633891D01*
X90788318Y-90633891D01*
X90782288Y-90631206D01*
X90688888Y-90611353D01*
X90601944Y-90592872D01*
X90601939Y-90592872D01*
X90595487Y-90591500D01*
X90404513Y-90591500D01*
X90398061Y-90592872D01*
X90398056Y-90592872D01*
X90311112Y-90611353D01*
X90217712Y-90631206D01*
X90211682Y-90633891D01*
X90211681Y-90633891D01*
X90049278Y-90706197D01*
X90049276Y-90706198D01*
X90043248Y-90708882D01*
X90037907Y-90712762D01*
X90037906Y-90712763D01*
X90014871Y-90729499D01*
X89888747Y-90821134D01*
X89884326Y-90826044D01*
X89884325Y-90826045D01*
X89851297Y-90862727D01*
X89760960Y-90963056D01*
X89735840Y-91006565D01*
X89686011Y-91092872D01*
X89665473Y-91128444D01*
X89606458Y-91310072D01*
X89605768Y-91316633D01*
X89605768Y-91316635D01*
X89588951Y-91476639D01*
X89586496Y-91500000D01*
X76508000Y-91500000D01*
X76508000Y-89610996D01*
X90713464Y-89610996D01*
X90714154Y-89617561D01*
X90728000Y-89749294D01*
X90733426Y-89800924D01*
X90792441Y-89982552D01*
X90887928Y-90147940D01*
X90892346Y-90152847D01*
X90892347Y-90152848D01*
X90991315Y-90262763D01*
X91015715Y-90289862D01*
X91170216Y-90402114D01*
X91176244Y-90404798D01*
X91176246Y-90404799D01*
X91338649Y-90477105D01*
X91344680Y-90479790D01*
X91438081Y-90499643D01*
X91525024Y-90518124D01*
X91525029Y-90518124D01*
X91531481Y-90519496D01*
X91722455Y-90519496D01*
X91728907Y-90518124D01*
X91728912Y-90518124D01*
X91815855Y-90499643D01*
X91909256Y-90479790D01*
X91915287Y-90477105D01*
X92077690Y-90404799D01*
X92077692Y-90404798D01*
X92083720Y-90402114D01*
X92238221Y-90289862D01*
X92262621Y-90262763D01*
X92361589Y-90152848D01*
X92361590Y-90152847D01*
X92366008Y-90147940D01*
X92461495Y-89982552D01*
X92520510Y-89800924D01*
X92525937Y-89749294D01*
X92539782Y-89617561D01*
X92540472Y-89610996D01*
X92520510Y-89421068D01*
X92461495Y-89239440D01*
X92366008Y-89074052D01*
X92340936Y-89046206D01*
X92242643Y-88937041D01*
X92242642Y-88937040D01*
X92238221Y-88932130D01*
X92083720Y-88819878D01*
X92077692Y-88817194D01*
X92077690Y-88817193D01*
X91915287Y-88744887D01*
X91915286Y-88744887D01*
X91909256Y-88742202D01*
X91815855Y-88722349D01*
X91728912Y-88703868D01*
X91728907Y-88703868D01*
X91722455Y-88702496D01*
X91531481Y-88702496D01*
X91525029Y-88703868D01*
X91525024Y-88703868D01*
X91438081Y-88722349D01*
X91344680Y-88742202D01*
X91338650Y-88744887D01*
X91338649Y-88744887D01*
X91176246Y-88817193D01*
X91176244Y-88817194D01*
X91170216Y-88819878D01*
X91015715Y-88932130D01*
X91011294Y-88937040D01*
X91011293Y-88937041D01*
X90913001Y-89046206D01*
X90887928Y-89074052D01*
X90792441Y-89239440D01*
X90733426Y-89421068D01*
X90713464Y-89610996D01*
X76508000Y-89610996D01*
X76508000Y-88146516D01*
X87510996Y-88146516D01*
X87511686Y-88153081D01*
X87528895Y-88316811D01*
X87530958Y-88336444D01*
X87589973Y-88518072D01*
X87685460Y-88683460D01*
X87689878Y-88688367D01*
X87689879Y-88688368D01*
X87808291Y-88819878D01*
X87813247Y-88825382D01*
X87967748Y-88937634D01*
X87973776Y-88940318D01*
X87973778Y-88940319D01*
X88116436Y-89003834D01*
X88142212Y-89015310D01*
X88227154Y-89033365D01*
X88322556Y-89053644D01*
X88322561Y-89053644D01*
X88329013Y-89055016D01*
X88519987Y-89055016D01*
X88526439Y-89053644D01*
X88526444Y-89053644D01*
X88621846Y-89033365D01*
X88706788Y-89015310D01*
X88732564Y-89003834D01*
X88875222Y-88940319D01*
X88875224Y-88940318D01*
X88881252Y-88937634D01*
X89035753Y-88825382D01*
X89040709Y-88819878D01*
X89159121Y-88688368D01*
X89159122Y-88688367D01*
X89163540Y-88683460D01*
X89259027Y-88518072D01*
X89318042Y-88336444D01*
X89320106Y-88316811D01*
X89337314Y-88153081D01*
X89338004Y-88146516D01*
X89330200Y-88072269D01*
X89318732Y-87963151D01*
X89318732Y-87963149D01*
X89318042Y-87956588D01*
X89272125Y-87815271D01*
X89261708Y-87783211D01*
X89259680Y-87712244D01*
X89296343Y-87651446D01*
X89355344Y-87621028D01*
X89497767Y-87590755D01*
X89506805Y-87586731D01*
X89666201Y-87515764D01*
X89666203Y-87515763D01*
X89672231Y-87513079D01*
X89826732Y-87400827D01*
X89854830Y-87369621D01*
X89950100Y-87263813D01*
X89950101Y-87263812D01*
X89954519Y-87258905D01*
X90018981Y-87147254D01*
X90046702Y-87099240D01*
X90046703Y-87099239D01*
X90050006Y-87093517D01*
X90109021Y-86911889D01*
X90113353Y-86870678D01*
X90128293Y-86728526D01*
X90128983Y-86721961D01*
X90121021Y-86646206D01*
X90109711Y-86538596D01*
X90109711Y-86538594D01*
X90109021Y-86532033D01*
X90050006Y-86350405D01*
X90033354Y-86321562D01*
X89997852Y-86260072D01*
X89954519Y-86185017D01*
X89877599Y-86099588D01*
X89831154Y-86048006D01*
X89831153Y-86048005D01*
X89826732Y-86043095D01*
X89672231Y-85930843D01*
X89666203Y-85928159D01*
X89666201Y-85928158D01*
X89503798Y-85855852D01*
X89503797Y-85855852D01*
X89497767Y-85853167D01*
X89396538Y-85831650D01*
X89317423Y-85814833D01*
X89317418Y-85814833D01*
X89310966Y-85813461D01*
X89119992Y-85813461D01*
X89113540Y-85814833D01*
X89113535Y-85814833D01*
X89034420Y-85831650D01*
X88933191Y-85853167D01*
X88927161Y-85855852D01*
X88927160Y-85855852D01*
X88764757Y-85928158D01*
X88764755Y-85928159D01*
X88758727Y-85930843D01*
X88604226Y-86043095D01*
X88599805Y-86048005D01*
X88599804Y-86048006D01*
X88553360Y-86099588D01*
X88476439Y-86185017D01*
X88433106Y-86260072D01*
X88397605Y-86321562D01*
X88380952Y-86350405D01*
X88321937Y-86532033D01*
X88321247Y-86538594D01*
X88321247Y-86538596D01*
X88309937Y-86646206D01*
X88301975Y-86721961D01*
X88302665Y-86728526D01*
X88317606Y-86870678D01*
X88321937Y-86911889D01*
X88349657Y-86997201D01*
X88378271Y-87085266D01*
X88380299Y-87156233D01*
X88343636Y-87217031D01*
X88284635Y-87247449D01*
X88142212Y-87277722D01*
X88136182Y-87280407D01*
X88136181Y-87280407D01*
X87973778Y-87352713D01*
X87973776Y-87352714D01*
X87967748Y-87355398D01*
X87962407Y-87359278D01*
X87962406Y-87359279D01*
X87948172Y-87369621D01*
X87813247Y-87467650D01*
X87808826Y-87472560D01*
X87808825Y-87472561D01*
X87701168Y-87592127D01*
X87685460Y-87609572D01*
X87589973Y-87774960D01*
X87530958Y-87956588D01*
X87530268Y-87963149D01*
X87530268Y-87963151D01*
X87518800Y-88072269D01*
X87510996Y-88146516D01*
X76508000Y-88146516D01*
X76508000Y-86326695D01*
X77377251Y-86326695D01*
X77377548Y-86331848D01*
X77377548Y-86331851D01*
X77389090Y-86532033D01*
X77390110Y-86549715D01*
X77391247Y-86554761D01*
X77391248Y-86554767D01*
X77410441Y-86639928D01*
X77439222Y-86767639D01*
X77523266Y-86974616D01*
X77527317Y-86981226D01*
X77635672Y-87158046D01*
X77639987Y-87165088D01*
X77786250Y-87333938D01*
X77958126Y-87476632D01*
X78151000Y-87589338D01*
X78155825Y-87591180D01*
X78155826Y-87591181D01*
X78191135Y-87604664D01*
X78359692Y-87669030D01*
X78364760Y-87670061D01*
X78364763Y-87670062D01*
X78472017Y-87691883D01*
X78578597Y-87713567D01*
X78583772Y-87713757D01*
X78583774Y-87713757D01*
X78796673Y-87721564D01*
X78796677Y-87721564D01*
X78801837Y-87721753D01*
X78806957Y-87721097D01*
X78806959Y-87721097D01*
X79018288Y-87694025D01*
X79018289Y-87694025D01*
X79023416Y-87693368D01*
X79028366Y-87691883D01*
X79232429Y-87630661D01*
X79232434Y-87630659D01*
X79237384Y-87629174D01*
X79437994Y-87530896D01*
X79619860Y-87401173D01*
X79728091Y-87293319D01*
X79790462Y-87259404D01*
X79861268Y-87264592D01*
X79918030Y-87307238D01*
X79935012Y-87338341D01*
X79956596Y-87395916D01*
X79979385Y-87456705D01*
X80066739Y-87573261D01*
X80183295Y-87660615D01*
X80319684Y-87711745D01*
X80381866Y-87718500D01*
X82178134Y-87718500D01*
X82240316Y-87711745D01*
X82376705Y-87660615D01*
X82493261Y-87573261D01*
X82580615Y-87456705D01*
X82631745Y-87320316D01*
X82638500Y-87258134D01*
X82638500Y-85461866D01*
X82631745Y-85399684D01*
X82580615Y-85263295D01*
X82493261Y-85146739D01*
X82376705Y-85059385D01*
X82327978Y-85041118D01*
X82258203Y-85014960D01*
X82201439Y-84972318D01*
X82176739Y-84905756D01*
X82191947Y-84836408D01*
X82213493Y-84807727D01*
X82314435Y-84707137D01*
X82318096Y-84703489D01*
X82337817Y-84676045D01*
X82445435Y-84526277D01*
X82448453Y-84522077D01*
X82468710Y-84481091D01*
X82545136Y-84326453D01*
X82545137Y-84326451D01*
X82547430Y-84321811D01*
X82569248Y-84250000D01*
X86586496Y-84250000D01*
X86587186Y-84256565D01*
X86605397Y-84429829D01*
X86606458Y-84439928D01*
X86665473Y-84621556D01*
X86760960Y-84786944D01*
X86765378Y-84791851D01*
X86765379Y-84791852D01*
X86824515Y-84857529D01*
X86888747Y-84928866D01*
X86965636Y-84984729D01*
X87029479Y-85031114D01*
X87043248Y-85041118D01*
X87049276Y-85043802D01*
X87049278Y-85043803D01*
X87211681Y-85116109D01*
X87217712Y-85118794D01*
X87310228Y-85138459D01*
X87398056Y-85157128D01*
X87398061Y-85157128D01*
X87404513Y-85158500D01*
X87595487Y-85158500D01*
X87601939Y-85157128D01*
X87601944Y-85157128D01*
X87689772Y-85138459D01*
X87782288Y-85118794D01*
X87788319Y-85116109D01*
X87950722Y-85043803D01*
X87950724Y-85043802D01*
X87956752Y-85041118D01*
X87970522Y-85031114D01*
X88034364Y-84984729D01*
X88111253Y-84928866D01*
X88175485Y-84857529D01*
X88234621Y-84791852D01*
X88234622Y-84791851D01*
X88239040Y-84786944D01*
X88334527Y-84621556D01*
X88380167Y-84481090D01*
X88420241Y-84422486D01*
X88485637Y-84394849D01*
X88555594Y-84406956D01*
X88607900Y-84454962D01*
X88619832Y-84481089D01*
X88665473Y-84621556D01*
X88760960Y-84786944D01*
X88765378Y-84791851D01*
X88765379Y-84791852D01*
X88824515Y-84857529D01*
X88888747Y-84928866D01*
X88965636Y-84984729D01*
X89029479Y-85031114D01*
X89043248Y-85041118D01*
X89049276Y-85043802D01*
X89049278Y-85043803D01*
X89211681Y-85116109D01*
X89217712Y-85118794D01*
X89310228Y-85138459D01*
X89398056Y-85157128D01*
X89398061Y-85157128D01*
X89404513Y-85158500D01*
X89595487Y-85158500D01*
X89601939Y-85157128D01*
X89601944Y-85157128D01*
X89689772Y-85138459D01*
X89782288Y-85118794D01*
X89788319Y-85116109D01*
X89950722Y-85043803D01*
X89950724Y-85043802D01*
X89956752Y-85041118D01*
X89970522Y-85031114D01*
X90034364Y-84984729D01*
X90111253Y-84928866D01*
X90175485Y-84857529D01*
X90234621Y-84791852D01*
X90234622Y-84791851D01*
X90239040Y-84786944D01*
X90334527Y-84621556D01*
X90393542Y-84439928D01*
X90394604Y-84429829D01*
X90412814Y-84256565D01*
X90413504Y-84250000D01*
X90398280Y-84105151D01*
X90394232Y-84066635D01*
X90394232Y-84066633D01*
X90393542Y-84060072D01*
X90334527Y-83878444D01*
X90239040Y-83713056D01*
X90111253Y-83571134D01*
X89956752Y-83458882D01*
X89950724Y-83456198D01*
X89950722Y-83456197D01*
X89788319Y-83383891D01*
X89788318Y-83383891D01*
X89782288Y-83381206D01*
X89688887Y-83361353D01*
X89601944Y-83342872D01*
X89601939Y-83342872D01*
X89595487Y-83341500D01*
X89404513Y-83341500D01*
X89398061Y-83342872D01*
X89398056Y-83342872D01*
X89311113Y-83361353D01*
X89217712Y-83381206D01*
X89211682Y-83383891D01*
X89211681Y-83383891D01*
X89049278Y-83456197D01*
X89049276Y-83456198D01*
X89043248Y-83458882D01*
X88888747Y-83571134D01*
X88760960Y-83713056D01*
X88665473Y-83878444D01*
X88624500Y-84004547D01*
X88619833Y-84018909D01*
X88579759Y-84077514D01*
X88514363Y-84105151D01*
X88444406Y-84093044D01*
X88392100Y-84045038D01*
X88380167Y-84018909D01*
X88375501Y-84004547D01*
X88334527Y-83878444D01*
X88239040Y-83713056D01*
X88111253Y-83571134D01*
X87956752Y-83458882D01*
X87950724Y-83456198D01*
X87950722Y-83456197D01*
X87788319Y-83383891D01*
X87788318Y-83383891D01*
X87782288Y-83381206D01*
X87688887Y-83361353D01*
X87601944Y-83342872D01*
X87601939Y-83342872D01*
X87595487Y-83341500D01*
X87404513Y-83341500D01*
X87398061Y-83342872D01*
X87398056Y-83342872D01*
X87311113Y-83361353D01*
X87217712Y-83381206D01*
X87211682Y-83383891D01*
X87211681Y-83383891D01*
X87049278Y-83456197D01*
X87049276Y-83456198D01*
X87043248Y-83458882D01*
X86888747Y-83571134D01*
X86760960Y-83713056D01*
X86665473Y-83878444D01*
X86606458Y-84060072D01*
X86605768Y-84066633D01*
X86605768Y-84066635D01*
X86601720Y-84105151D01*
X86586496Y-84250000D01*
X82569248Y-84250000D01*
X82612370Y-84108069D01*
X82641529Y-83886590D01*
X82643156Y-83820000D01*
X82624852Y-83597361D01*
X82570431Y-83380702D01*
X82481354Y-83175840D01*
X82360014Y-82988277D01*
X82209670Y-82823051D01*
X82205619Y-82819852D01*
X82205615Y-82819848D01*
X82117172Y-82750000D01*
X100086496Y-82750000D01*
X100087186Y-82756565D01*
X100091492Y-82797530D01*
X100106458Y-82939928D01*
X100165473Y-83121556D01*
X100168776Y-83127278D01*
X100168777Y-83127279D01*
X100177508Y-83142401D01*
X100260960Y-83286944D01*
X100265378Y-83291851D01*
X100265379Y-83291852D01*
X100317110Y-83349305D01*
X100388747Y-83428866D01*
X100543248Y-83541118D01*
X100549276Y-83543802D01*
X100549278Y-83543803D01*
X100669572Y-83597361D01*
X100717712Y-83618794D01*
X100811113Y-83638647D01*
X100898056Y-83657128D01*
X100898061Y-83657128D01*
X100904513Y-83658500D01*
X101095487Y-83658500D01*
X101101939Y-83657128D01*
X101101944Y-83657128D01*
X101188887Y-83638647D01*
X101282288Y-83618794D01*
X101330428Y-83597361D01*
X101450722Y-83543803D01*
X101450724Y-83543802D01*
X101456752Y-83541118D01*
X101611253Y-83428866D01*
X101682890Y-83349305D01*
X101734621Y-83291852D01*
X101734622Y-83291851D01*
X101739040Y-83286944D01*
X101822492Y-83142401D01*
X101831223Y-83127279D01*
X101831224Y-83127278D01*
X101834527Y-83121556D01*
X101893542Y-82939928D01*
X101908509Y-82797530D01*
X101912814Y-82756565D01*
X101913504Y-82750000D01*
X101893542Y-82560072D01*
X101834527Y-82378444D01*
X101739040Y-82213056D01*
X101697695Y-82167137D01*
X101615675Y-82076045D01*
X101615674Y-82076044D01*
X101611253Y-82071134D01*
X101456752Y-81958882D01*
X101450724Y-81956198D01*
X101450722Y-81956197D01*
X101288319Y-81883891D01*
X101288318Y-81883891D01*
X101282288Y-81881206D01*
X101188887Y-81861353D01*
X101101944Y-81842872D01*
X101101939Y-81842872D01*
X101095487Y-81841500D01*
X100904513Y-81841500D01*
X100898061Y-81842872D01*
X100898056Y-81842872D01*
X100811113Y-81861353D01*
X100717712Y-81881206D01*
X100711682Y-81883891D01*
X100711681Y-81883891D01*
X100549278Y-81956197D01*
X100549276Y-81956198D01*
X100543248Y-81958882D01*
X100388747Y-82071134D01*
X100384326Y-82076044D01*
X100384325Y-82076045D01*
X100302306Y-82167137D01*
X100260960Y-82213056D01*
X100165473Y-82378444D01*
X100106458Y-82560072D01*
X100086496Y-82750000D01*
X82117172Y-82750000D01*
X82038414Y-82687800D01*
X82038410Y-82687798D01*
X82034359Y-82684598D01*
X81993053Y-82661796D01*
X81943084Y-82611364D01*
X81928312Y-82541921D01*
X81953428Y-82475516D01*
X81980780Y-82448909D01*
X82024603Y-82417650D01*
X82159860Y-82321173D01*
X82318096Y-82163489D01*
X82377594Y-82080689D01*
X82445435Y-81986277D01*
X82448453Y-81982077D01*
X82469320Y-81939857D01*
X82545136Y-81786453D01*
X82545137Y-81786451D01*
X82547430Y-81781811D01*
X82592058Y-81634924D01*
X82630998Y-81575562D01*
X82695852Y-81546675D01*
X82766028Y-81557436D01*
X82806249Y-81587242D01*
X82888747Y-81678866D01*
X82987843Y-81750864D01*
X83023631Y-81776865D01*
X83043248Y-81791118D01*
X83049276Y-81793802D01*
X83049278Y-81793803D01*
X83209929Y-81865329D01*
X83217712Y-81868794D01*
X83311113Y-81888647D01*
X83398056Y-81907128D01*
X83398061Y-81907128D01*
X83404513Y-81908500D01*
X83595487Y-81908500D01*
X83601939Y-81907128D01*
X83601944Y-81907128D01*
X83688887Y-81888647D01*
X83782288Y-81868794D01*
X83790071Y-81865329D01*
X83950722Y-81793803D01*
X83950724Y-81793802D01*
X83956752Y-81791118D01*
X83976370Y-81776865D01*
X84012157Y-81750864D01*
X84111253Y-81678866D01*
X84239040Y-81536944D01*
X84313197Y-81408500D01*
X84331223Y-81377279D01*
X84331224Y-81377278D01*
X84334527Y-81371556D01*
X84393542Y-81189928D01*
X84408693Y-81045779D01*
X84412814Y-81006565D01*
X84413504Y-81000000D01*
X84403931Y-80908920D01*
X84394232Y-80816635D01*
X84394232Y-80816633D01*
X84393542Y-80810072D01*
X84334527Y-80628444D01*
X84330877Y-80622121D01*
X84264160Y-80506565D01*
X84260370Y-80500000D01*
X88111996Y-80500000D01*
X88112686Y-80506565D01*
X88127578Y-80648250D01*
X88131958Y-80689928D01*
X88190973Y-80871556D01*
X88194276Y-80877278D01*
X88194277Y-80877279D01*
X88208745Y-80902338D01*
X88286460Y-81036944D01*
X88290878Y-81041851D01*
X88290879Y-81041852D01*
X88409825Y-81173955D01*
X88414247Y-81178866D01*
X88568748Y-81291118D01*
X88574776Y-81293802D01*
X88574778Y-81293803D01*
X88704766Y-81351677D01*
X88743212Y-81368794D01*
X88836613Y-81388647D01*
X88923556Y-81407128D01*
X88923561Y-81407128D01*
X88930013Y-81408500D01*
X89120987Y-81408500D01*
X89127439Y-81407128D01*
X89127444Y-81407128D01*
X89214387Y-81388647D01*
X89307788Y-81368794D01*
X89346234Y-81351677D01*
X89476222Y-81293803D01*
X89476224Y-81293802D01*
X89482252Y-81291118D01*
X89636753Y-81178866D01*
X89641175Y-81173955D01*
X89760121Y-81041852D01*
X89760122Y-81041851D01*
X89764540Y-81036944D01*
X89842255Y-80902338D01*
X89856723Y-80877279D01*
X89856724Y-80877278D01*
X89860027Y-80871556D01*
X89919042Y-80689928D01*
X89923423Y-80648250D01*
X89938314Y-80506565D01*
X89939004Y-80500000D01*
X89931269Y-80426403D01*
X89919732Y-80316635D01*
X89919732Y-80316633D01*
X89919042Y-80310072D01*
X89860027Y-80128444D01*
X89856190Y-80121797D01*
X89799355Y-80023357D01*
X89764540Y-79963056D01*
X89753788Y-79951114D01*
X89641175Y-79826045D01*
X89641174Y-79826044D01*
X89636753Y-79821134D01*
X89482252Y-79708882D01*
X89476224Y-79706198D01*
X89476222Y-79706197D01*
X89313819Y-79633891D01*
X89313818Y-79633891D01*
X89307788Y-79631206D01*
X89212647Y-79610983D01*
X89127444Y-79592872D01*
X89127439Y-79592872D01*
X89120987Y-79591500D01*
X88930013Y-79591500D01*
X88923561Y-79592872D01*
X88923556Y-79592872D01*
X88838353Y-79610983D01*
X88743212Y-79631206D01*
X88737182Y-79633891D01*
X88737181Y-79633891D01*
X88574778Y-79706197D01*
X88574776Y-79706198D01*
X88568748Y-79708882D01*
X88414247Y-79821134D01*
X88409826Y-79826044D01*
X88409825Y-79826045D01*
X88297213Y-79951114D01*
X88286460Y-79963056D01*
X88251645Y-80023357D01*
X88194811Y-80121797D01*
X88190973Y-80128444D01*
X88131958Y-80310072D01*
X88131268Y-80316633D01*
X88131268Y-80316635D01*
X88119731Y-80426403D01*
X88111996Y-80500000D01*
X84260370Y-80500000D01*
X84239040Y-80463056D01*
X84222294Y-80444457D01*
X84115675Y-80326045D01*
X84115674Y-80326044D01*
X84111253Y-80321134D01*
X83956752Y-80208882D01*
X83950724Y-80206198D01*
X83950722Y-80206197D01*
X83788319Y-80133891D01*
X83788318Y-80133891D01*
X83782288Y-80131206D01*
X83688888Y-80111353D01*
X83601944Y-80092872D01*
X83601939Y-80092872D01*
X83595487Y-80091500D01*
X83404513Y-80091500D01*
X83398061Y-80092872D01*
X83398056Y-80092872D01*
X83311112Y-80111353D01*
X83217712Y-80131206D01*
X83211682Y-80133891D01*
X83211681Y-80133891D01*
X83049278Y-80206197D01*
X83049276Y-80206198D01*
X83043248Y-80208882D01*
X82888747Y-80321134D01*
X82884326Y-80326044D01*
X82884325Y-80326045D01*
X82777707Y-80444457D01*
X82760960Y-80463056D01*
X82757661Y-80468769D01*
X82757658Y-80468774D01*
X82679397Y-80604326D01*
X82628014Y-80653319D01*
X82558300Y-80666755D01*
X82492390Y-80640368D01*
X82464486Y-80609766D01*
X82362822Y-80452617D01*
X82362820Y-80452614D01*
X82360014Y-80448277D01*
X82209670Y-80283051D01*
X82205619Y-80279852D01*
X82205615Y-80279848D01*
X82038414Y-80147800D01*
X82038410Y-80147798D01*
X82034359Y-80144598D01*
X81993053Y-80121796D01*
X81943084Y-80071364D01*
X81928312Y-80001921D01*
X81953428Y-79935516D01*
X81980780Y-79908909D01*
X82040783Y-79866109D01*
X82159860Y-79781173D01*
X82228510Y-79712763D01*
X82258409Y-79682968D01*
X82318096Y-79623489D01*
X82327083Y-79610983D01*
X82445435Y-79446277D01*
X82448453Y-79442077D01*
X82465199Y-79408195D01*
X82545136Y-79246453D01*
X82545137Y-79246451D01*
X82547430Y-79241811D01*
X82612370Y-79028069D01*
X82641529Y-78806590D01*
X82643156Y-78740000D01*
X82624852Y-78517361D01*
X82617402Y-78487701D01*
X87098795Y-78487701D01*
X87099485Y-78494266D01*
X87113588Y-78628444D01*
X87118757Y-78677629D01*
X87177772Y-78859257D01*
X87273259Y-79024645D01*
X87277677Y-79029552D01*
X87277678Y-79029553D01*
X87389446Y-79153684D01*
X87401046Y-79166567D01*
X87555547Y-79278819D01*
X87561575Y-79281503D01*
X87561577Y-79281504D01*
X87723980Y-79353810D01*
X87730011Y-79356495D01*
X87823411Y-79376348D01*
X87910355Y-79394829D01*
X87910360Y-79394829D01*
X87916812Y-79396201D01*
X88107786Y-79396201D01*
X88114238Y-79394829D01*
X88114243Y-79394829D01*
X88201187Y-79376348D01*
X88294587Y-79356495D01*
X88300618Y-79353810D01*
X88463021Y-79281504D01*
X88463023Y-79281503D01*
X88469051Y-79278819D01*
X88623552Y-79166567D01*
X88635152Y-79153684D01*
X88746920Y-79029553D01*
X88746921Y-79029552D01*
X88751339Y-79024645D01*
X88846826Y-78859257D01*
X88905841Y-78677629D01*
X88911011Y-78628444D01*
X88925113Y-78494266D01*
X88925803Y-78487701D01*
X88922697Y-78458148D01*
X88906531Y-78304336D01*
X88906531Y-78304334D01*
X88905841Y-78297773D01*
X88846826Y-78116145D01*
X88751339Y-77950757D01*
X88698314Y-77891866D01*
X88627974Y-77813746D01*
X88627973Y-77813745D01*
X88623552Y-77808835D01*
X88524456Y-77736837D01*
X88474393Y-77700464D01*
X88474392Y-77700463D01*
X88469051Y-77696583D01*
X88463023Y-77693899D01*
X88463021Y-77693898D01*
X88300618Y-77621592D01*
X88300617Y-77621592D01*
X88294587Y-77618907D01*
X88201187Y-77599054D01*
X88114243Y-77580573D01*
X88114238Y-77580573D01*
X88107786Y-77579201D01*
X87916812Y-77579201D01*
X87910360Y-77580573D01*
X87910355Y-77580573D01*
X87823411Y-77599054D01*
X87730011Y-77618907D01*
X87723981Y-77621592D01*
X87723980Y-77621592D01*
X87561577Y-77693898D01*
X87561575Y-77693899D01*
X87555547Y-77696583D01*
X87550206Y-77700463D01*
X87550205Y-77700464D01*
X87500142Y-77736837D01*
X87401046Y-77808835D01*
X87396625Y-77813745D01*
X87396624Y-77813746D01*
X87326285Y-77891866D01*
X87273259Y-77950757D01*
X87177772Y-78116145D01*
X87118757Y-78297773D01*
X87118067Y-78304334D01*
X87118067Y-78304336D01*
X87101901Y-78458148D01*
X87098795Y-78487701D01*
X82617402Y-78487701D01*
X82570431Y-78300702D01*
X82481354Y-78095840D01*
X82387496Y-77950757D01*
X82362822Y-77912617D01*
X82362820Y-77912614D01*
X82360014Y-77908277D01*
X82209670Y-77743051D01*
X82205619Y-77739852D01*
X82205615Y-77739848D01*
X82038414Y-77607800D01*
X82038410Y-77607798D01*
X82034359Y-77604598D01*
X81993053Y-77581796D01*
X81943084Y-77531364D01*
X81928312Y-77461921D01*
X81953428Y-77395516D01*
X81980780Y-77368909D01*
X82024603Y-77337650D01*
X82159860Y-77241173D01*
X82204985Y-77196206D01*
X82314435Y-77087137D01*
X82318096Y-77083489D01*
X82377594Y-77000689D01*
X82378089Y-77000000D01*
X98836496Y-77000000D01*
X98837186Y-77006565D01*
X98845597Y-77086587D01*
X98856458Y-77189928D01*
X98915473Y-77371556D01*
X99010960Y-77536944D01*
X99015378Y-77541851D01*
X99015379Y-77541852D01*
X99055587Y-77586507D01*
X99138747Y-77678866D01*
X99293248Y-77791118D01*
X99299276Y-77793802D01*
X99299278Y-77793803D01*
X99461681Y-77866109D01*
X99467712Y-77868794D01*
X99550593Y-77886411D01*
X99648056Y-77907128D01*
X99648061Y-77907128D01*
X99654513Y-77908500D01*
X99845487Y-77908500D01*
X99851939Y-77907128D01*
X99851944Y-77907128D01*
X99949407Y-77886411D01*
X100032288Y-77868794D01*
X100038319Y-77866109D01*
X100200722Y-77793803D01*
X100200724Y-77793802D01*
X100206752Y-77791118D01*
X100361253Y-77678866D01*
X100444413Y-77586507D01*
X100484621Y-77541852D01*
X100484622Y-77541851D01*
X100489040Y-77536944D01*
X100584527Y-77371556D01*
X100643542Y-77189928D01*
X100654404Y-77086587D01*
X100662814Y-77006565D01*
X100663504Y-77000000D01*
X100653729Y-76906994D01*
X100644232Y-76816635D01*
X100644232Y-76816633D01*
X100643542Y-76810072D01*
X100584527Y-76628444D01*
X100575279Y-76612425D01*
X100497635Y-76477943D01*
X100489040Y-76463056D01*
X100427553Y-76394767D01*
X100365675Y-76326045D01*
X100365674Y-76326044D01*
X100361253Y-76321134D01*
X100206752Y-76208882D01*
X100200724Y-76206198D01*
X100200722Y-76206197D01*
X100038319Y-76133891D01*
X100038318Y-76133891D01*
X100032288Y-76131206D01*
X99938888Y-76111353D01*
X99851944Y-76092872D01*
X99851939Y-76092872D01*
X99845487Y-76091500D01*
X99654513Y-76091500D01*
X99648061Y-76092872D01*
X99648056Y-76092872D01*
X99561112Y-76111353D01*
X99467712Y-76131206D01*
X99461682Y-76133891D01*
X99461681Y-76133891D01*
X99299278Y-76206197D01*
X99299276Y-76206198D01*
X99293248Y-76208882D01*
X99138747Y-76321134D01*
X99134326Y-76326044D01*
X99134325Y-76326045D01*
X99072448Y-76394767D01*
X99010960Y-76463056D01*
X99002365Y-76477943D01*
X98924722Y-76612425D01*
X98915473Y-76628444D01*
X98856458Y-76810072D01*
X98855768Y-76816633D01*
X98855768Y-76816635D01*
X98846271Y-76906994D01*
X98836496Y-77000000D01*
X82378089Y-77000000D01*
X82445435Y-76906277D01*
X82448453Y-76902077D01*
X82463450Y-76871734D01*
X82545136Y-76706453D01*
X82545137Y-76706451D01*
X82547430Y-76701811D01*
X82612370Y-76488069D01*
X82641529Y-76266590D01*
X82643156Y-76200000D01*
X82624852Y-75977361D01*
X82570431Y-75760702D01*
X82481354Y-75555840D01*
X82360014Y-75368277D01*
X82209670Y-75203051D01*
X82205619Y-75199852D01*
X82205615Y-75199848D01*
X82038414Y-75067800D01*
X82038410Y-75067798D01*
X82034359Y-75064598D01*
X81993053Y-75041796D01*
X81943084Y-74991364D01*
X81928312Y-74921921D01*
X81953428Y-74855516D01*
X81980780Y-74828909D01*
X82038793Y-74787529D01*
X82159860Y-74701173D01*
X82188917Y-74672218D01*
X82213085Y-74648134D01*
X87616500Y-74648134D01*
X87623255Y-74710316D01*
X87674385Y-74846705D01*
X87761739Y-74963261D01*
X87878295Y-75050615D01*
X88014684Y-75101745D01*
X88076866Y-75108500D01*
X89873134Y-75108500D01*
X89935316Y-75101745D01*
X90071705Y-75050615D01*
X90188261Y-74963261D01*
X90275615Y-74846705D01*
X90300906Y-74779242D01*
X90319598Y-74729382D01*
X90362240Y-74672618D01*
X90428802Y-74647918D01*
X90498150Y-74663126D01*
X90532817Y-74691114D01*
X90561250Y-74723938D01*
X90627864Y-74779242D01*
X90709853Y-74847310D01*
X90733126Y-74866632D01*
X90926000Y-74979338D01*
X91134692Y-75059030D01*
X91139760Y-75060061D01*
X91139763Y-75060062D01*
X91247017Y-75081883D01*
X91353597Y-75103567D01*
X91358772Y-75103757D01*
X91358774Y-75103757D01*
X91571673Y-75111564D01*
X91571677Y-75111564D01*
X91576837Y-75111753D01*
X91581957Y-75111097D01*
X91581959Y-75111097D01*
X91793288Y-75084025D01*
X91793289Y-75084025D01*
X91798416Y-75083368D01*
X91803366Y-75081883D01*
X92007429Y-75020661D01*
X92007434Y-75020659D01*
X92012384Y-75019174D01*
X92212994Y-74920896D01*
X92394860Y-74791173D01*
X92412769Y-74773327D01*
X92538616Y-74647918D01*
X92553096Y-74633489D01*
X92683453Y-74452077D01*
X92711369Y-74395594D01*
X92780136Y-74256453D01*
X92780137Y-74256451D01*
X92782430Y-74251811D01*
X92847370Y-74038069D01*
X92876529Y-73816590D01*
X92878156Y-73750000D01*
X92859852Y-73527361D01*
X92805431Y-73310702D01*
X92716354Y-73105840D01*
X92655318Y-73011492D01*
X92597822Y-72922617D01*
X92597820Y-72922614D01*
X92595014Y-72918277D01*
X92444670Y-72753051D01*
X92440619Y-72749852D01*
X92440615Y-72749848D01*
X92273414Y-72617800D01*
X92273410Y-72617798D01*
X92269359Y-72614598D01*
X92073789Y-72506638D01*
X92068920Y-72504914D01*
X92068916Y-72504912D01*
X91868087Y-72433795D01*
X91868083Y-72433794D01*
X91863212Y-72432069D01*
X91858119Y-72431162D01*
X91858116Y-72431161D01*
X91648373Y-72393800D01*
X91648367Y-72393799D01*
X91643284Y-72392894D01*
X91569452Y-72391992D01*
X91425081Y-72390228D01*
X91425079Y-72390228D01*
X91419911Y-72390165D01*
X91199091Y-72423955D01*
X90986756Y-72493357D01*
X90788607Y-72596507D01*
X90784474Y-72599610D01*
X90784471Y-72599612D01*
X90694892Y-72666870D01*
X90609965Y-72730635D01*
X90537560Y-72806403D01*
X90529283Y-72815064D01*
X90467759Y-72850494D01*
X90396846Y-72847037D01*
X90339060Y-72805791D01*
X90320207Y-72772243D01*
X90278767Y-72661703D01*
X90275615Y-72653295D01*
X90188261Y-72536739D01*
X90071705Y-72449385D01*
X89935316Y-72398255D01*
X89873134Y-72391500D01*
X88076866Y-72391500D01*
X88014684Y-72398255D01*
X87878295Y-72449385D01*
X87761739Y-72536739D01*
X87674385Y-72653295D01*
X87623255Y-72789684D01*
X87616500Y-72851866D01*
X87616500Y-74648134D01*
X82213085Y-74648134D01*
X82314435Y-74547137D01*
X82318096Y-74543489D01*
X82377594Y-74460689D01*
X82445435Y-74366277D01*
X82448453Y-74362077D01*
X82469320Y-74319857D01*
X82545136Y-74166453D01*
X82545137Y-74166451D01*
X82547430Y-74161811D01*
X82612370Y-73948069D01*
X82641529Y-73726590D01*
X82643156Y-73660000D01*
X82624852Y-73437361D01*
X82570431Y-73220702D01*
X82481354Y-73015840D01*
X82377485Y-72855283D01*
X82362822Y-72832617D01*
X82362820Y-72832614D01*
X82360014Y-72828277D01*
X82209670Y-72663051D01*
X82205619Y-72659852D01*
X82205615Y-72659848D01*
X82038414Y-72527800D01*
X82038410Y-72527798D01*
X82034359Y-72524598D01*
X82001825Y-72506638D01*
X81892400Y-72446233D01*
X81838789Y-72416638D01*
X81833920Y-72414914D01*
X81833916Y-72414912D01*
X81633087Y-72343795D01*
X81633083Y-72343794D01*
X81628212Y-72342069D01*
X81623119Y-72341162D01*
X81623116Y-72341161D01*
X81413373Y-72303800D01*
X81413367Y-72303799D01*
X81408284Y-72302894D01*
X81334452Y-72301992D01*
X81190081Y-72300228D01*
X81190079Y-72300228D01*
X81184911Y-72300165D01*
X80964091Y-72333955D01*
X80751756Y-72403357D01*
X80553607Y-72506507D01*
X80549474Y-72509610D01*
X80549471Y-72509612D01*
X80409643Y-72614598D01*
X80374965Y-72640635D01*
X80371393Y-72644373D01*
X80270599Y-72749848D01*
X80220629Y-72802138D01*
X80113201Y-72959621D01*
X80058293Y-73004621D01*
X79987768Y-73012792D01*
X79924021Y-72981538D01*
X79903324Y-72957054D01*
X79822822Y-72832617D01*
X79822820Y-72832614D01*
X79820014Y-72828277D01*
X79669670Y-72663051D01*
X79665619Y-72659852D01*
X79665615Y-72659848D01*
X79498414Y-72527800D01*
X79498410Y-72527798D01*
X79494359Y-72524598D01*
X79461825Y-72506638D01*
X79352400Y-72446233D01*
X79298789Y-72416638D01*
X79293920Y-72414914D01*
X79293916Y-72414912D01*
X79093087Y-72343795D01*
X79093083Y-72343794D01*
X79088212Y-72342069D01*
X79083119Y-72341162D01*
X79083116Y-72341161D01*
X78873373Y-72303800D01*
X78873367Y-72303799D01*
X78868284Y-72302894D01*
X78794452Y-72301992D01*
X78650081Y-72300228D01*
X78650079Y-72300228D01*
X78644911Y-72300165D01*
X78424091Y-72333955D01*
X78211756Y-72403357D01*
X78013607Y-72506507D01*
X78009474Y-72509610D01*
X78009471Y-72509612D01*
X77869643Y-72614598D01*
X77834965Y-72640635D01*
X77831393Y-72644373D01*
X77730599Y-72749848D01*
X77680629Y-72802138D01*
X77554743Y-72986680D01*
X77515523Y-73071172D01*
X77470017Y-73169208D01*
X77460688Y-73189305D01*
X77400989Y-73404570D01*
X77377251Y-73626695D01*
X77377548Y-73631848D01*
X77377548Y-73631851D01*
X77388007Y-73813240D01*
X77390110Y-73849715D01*
X77391247Y-73854761D01*
X77391248Y-73854767D01*
X77411119Y-73942939D01*
X77439222Y-74067639D01*
X77500673Y-74218976D01*
X77515499Y-74255487D01*
X77523266Y-74274616D01*
X77574019Y-74357438D01*
X77637291Y-74460688D01*
X77639987Y-74465088D01*
X77786250Y-74633938D01*
X77958126Y-74776632D01*
X77976774Y-74787529D01*
X78031445Y-74819476D01*
X78080169Y-74871114D01*
X78093240Y-74940897D01*
X78066509Y-75006669D01*
X78026055Y-75040027D01*
X78013607Y-75046507D01*
X78009474Y-75049610D01*
X78009471Y-75049612D01*
X77839100Y-75177530D01*
X77834965Y-75180635D01*
X77831393Y-75184373D01*
X77714620Y-75306569D01*
X77680629Y-75342138D01*
X77554743Y-75526680D01*
X77516208Y-75609697D01*
X77463105Y-75724099D01*
X77460688Y-75729305D01*
X77400989Y-75944570D01*
X77377251Y-76166695D01*
X77377548Y-76171848D01*
X77377548Y-76171851D01*
X77385932Y-76317251D01*
X77390110Y-76389715D01*
X77391247Y-76394761D01*
X77391248Y-76394767D01*
X77407927Y-76468774D01*
X77439222Y-76607639D01*
X77477461Y-76701811D01*
X77518872Y-76803794D01*
X77523266Y-76814616D01*
X77561525Y-76877049D01*
X77637291Y-77000688D01*
X77639987Y-77005088D01*
X77786250Y-77173938D01*
X77862846Y-77237529D01*
X77946615Y-77307075D01*
X77958126Y-77316632D01*
X78028595Y-77357811D01*
X78031445Y-77359476D01*
X78080169Y-77411114D01*
X78093240Y-77480897D01*
X78066509Y-77546669D01*
X78026055Y-77580027D01*
X78013607Y-77586507D01*
X78009474Y-77589610D01*
X78009471Y-77589612D01*
X77839100Y-77717530D01*
X77834965Y-77720635D01*
X77680629Y-77882138D01*
X77677720Y-77886403D01*
X77677714Y-77886411D01*
X77592556Y-78011249D01*
X77554743Y-78066680D01*
X77539003Y-78100590D01*
X77497273Y-78190490D01*
X77460688Y-78269305D01*
X77400989Y-78484570D01*
X77377251Y-78706695D01*
X77377548Y-78711848D01*
X77377548Y-78711851D01*
X77383590Y-78816635D01*
X77390110Y-78929715D01*
X77391247Y-78934761D01*
X77391248Y-78934767D01*
X77407429Y-79006565D01*
X77439222Y-79147639D01*
X77523266Y-79354616D01*
X77560420Y-79415246D01*
X77637291Y-79540688D01*
X77639987Y-79545088D01*
X77786250Y-79713938D01*
X77958126Y-79856632D01*
X77974344Y-79866109D01*
X78031445Y-79899476D01*
X78080169Y-79951114D01*
X78093240Y-80020897D01*
X78066509Y-80086669D01*
X78026055Y-80120027D01*
X78013607Y-80126507D01*
X78009474Y-80129610D01*
X78009471Y-80129612D01*
X77859337Y-80242336D01*
X77834965Y-80260635D01*
X77680629Y-80422138D01*
X77554743Y-80606680D01*
X77533094Y-80653319D01*
X77473207Y-80782336D01*
X77460688Y-80809305D01*
X77400989Y-81024570D01*
X77377251Y-81246695D01*
X77377548Y-81251848D01*
X77377548Y-81251851D01*
X77382816Y-81343211D01*
X77390110Y-81469715D01*
X77391247Y-81474761D01*
X77391248Y-81474767D01*
X77403972Y-81531226D01*
X77439222Y-81687639D01*
X77500673Y-81838976D01*
X77511691Y-81866109D01*
X77523266Y-81894616D01*
X77561003Y-81956197D01*
X77637291Y-82080688D01*
X77639987Y-82085088D01*
X77786250Y-82253938D01*
X77958126Y-82396632D01*
X78028595Y-82437811D01*
X78031445Y-82439476D01*
X78080169Y-82491114D01*
X78093240Y-82560897D01*
X78066509Y-82626669D01*
X78026055Y-82660027D01*
X78013607Y-82666507D01*
X78009474Y-82669610D01*
X78009471Y-82669612D01*
X77839100Y-82797530D01*
X77834965Y-82800635D01*
X77680629Y-82962138D01*
X77554743Y-83146680D01*
X77460688Y-83349305D01*
X77400989Y-83564570D01*
X77377251Y-83786695D01*
X77377548Y-83791848D01*
X77377548Y-83791851D01*
X77382903Y-83884726D01*
X77390110Y-84009715D01*
X77391247Y-84014761D01*
X77391248Y-84014767D01*
X77405389Y-84077514D01*
X77439222Y-84227639D01*
X77477461Y-84321811D01*
X77518341Y-84422486D01*
X77523266Y-84434616D01*
X77574019Y-84517438D01*
X77637291Y-84620688D01*
X77639987Y-84625088D01*
X77786250Y-84793938D01*
X77958126Y-84936632D01*
X78019196Y-84972318D01*
X78031445Y-84979476D01*
X78080169Y-85031114D01*
X78093240Y-85100897D01*
X78066509Y-85166669D01*
X78026055Y-85200027D01*
X78013607Y-85206507D01*
X78009474Y-85209610D01*
X78009471Y-85209612D01*
X77848313Y-85330613D01*
X77834965Y-85340635D01*
X77795525Y-85381907D01*
X77718302Y-85462716D01*
X77680629Y-85502138D01*
X77677715Y-85506410D01*
X77677714Y-85506411D01*
X77627628Y-85579834D01*
X77554743Y-85686680D01*
X77552564Y-85691375D01*
X77477463Y-85853167D01*
X77460688Y-85889305D01*
X77400989Y-86104570D01*
X77377251Y-86326695D01*
X76508000Y-86326695D01*
X76508000Y-72134000D01*
X76528002Y-72065879D01*
X76581658Y-72019386D01*
X76634000Y-72008000D01*
X105237390Y-72008000D01*
X105305511Y-72028002D01*
G37*
%TD.AperFunction*%
%TD*%
M02*
