M48
; DRILL file {KiCad (6.0.0-0)} date 2023 January 16, Monday 12:19:11
; FORMAT={-:-/ absolute / inch / decimal}
; #@! TF.CreationDate,2023-01-16T12:19:11+01:00
; #@! TF.GenerationSoftware,Kicad,Pcbnew,(6.0.0-0)
; #@! TF.FileFunction,Plated,1,4,PTH
FMAT,2
INCH
; #@! TA.AperFunction,Plated,PTH,ViaDrill
T1C0.0138
; #@! TA.AperFunction,Plated,PTH,ViaDrill
T2C0.0157
; #@! TA.AperFunction,Plated,PTH,ComponentDrill
T3C0.0236
; #@! TA.AperFunction,Plated,PTH,ComponentDrill
T4C0.0335
; #@! TA.AperFunction,Plated,PTH,ComponentDrill
T5C0.0394
%
G90
G05
T1
X3.7205Y-3.6004
X3.7283Y-3.6417
X3.7402Y-3.8287
X3.8091Y-3.7992
X4.2953Y-3.8307
X4.3307Y-3.1772
X4.3701Y-3.8307
T2
X3.2874Y-3.189
X3.3465Y-3.7205
X3.3543Y-3.439
X3.4449Y-3.3169
X3.4547Y-3.5039
X3.4577Y-3.9753
X3.4651Y-3.0901
X3.4813Y-3.4703
X3.5049Y-3.1693
X3.5124Y-3.4143
X3.5236Y-3.3169
X3.5273Y-3.9104
X3.5531Y-3.2677
X3.563Y-3.6024
X3.6074Y-3.528
X3.6118Y-4.034
X3.6284Y-3.7037
X3.6516Y-3.3071
X3.7303Y-3.9173
X3.7375Y-3.7537
X3.7386Y-3.5337
X3.7394Y-3.7953
X3.7462Y-3.6916
X3.7502Y-3.4982
X3.7598Y-3.1791
X3.7635Y-3.7247
X3.7754Y-3.386
X3.7756Y-3.4707
X3.7894Y-2.9724
X3.8031Y-3.4176
X3.8287Y-3.9272
X3.83Y-3.4463
X3.8681Y-3.7303
X3.8691Y-3.9546
X3.9272Y-3.0315
X3.9469Y-3.563
X3.9665Y-3.9961
X3.9764Y-3.2579
X3.9862Y-3.622
X4.065Y-3.5846
X4.1004Y-3.3602
X4.1043Y-3.1988
X4.1043Y-3.5827
X4.1142Y-3.1102
X4.1437Y-3.4035
X4.1535Y-3.4429
X4.1831Y-3.2697
X4.311Y-3.498
X4.315Y-3.626
X4.3406Y-4.0965
X4.4035Y-3.7894
X4.405Y-3.3771
X4.4705Y-3.8445
T4
X4.131Y-3.0351
X4.2702Y-3.1743
T5
X3.1Y-2.9
X3.1Y-3.0
X3.1Y-3.1
X3.1Y-3.2
X3.1Y-3.3
X3.1Y-3.4
X3.1Y-3.8
X3.1Y-3.9
X3.1Y-4.0
X3.1Y-4.1
X3.1Y-4.2
X3.1Y-4.3
X3.2Y-2.9
X3.2Y-3.0
X3.2Y-3.1
X3.2Y-3.2
X3.2Y-3.3
X3.2Y-3.4
X3.2Y-3.8
X3.2Y-3.9
X3.2Y-4.0
X3.2Y-4.1
X3.2Y-4.2
X3.2Y-4.3
X3.38Y-4.1994
X3.38Y-4.2994
X3.48Y-4.1994
X3.48Y-4.2994
X3.503Y-2.9035
X3.58Y-4.1994
X3.58Y-4.2994
X3.603Y-2.9035
X3.68Y-4.1994
X3.68Y-4.2994
X3.78Y-4.1994
X3.78Y-4.2994
X3.88Y-4.1994
X3.88Y-4.2994
X3.98Y-4.1994
X3.98Y-4.2994
X4.08Y-4.1994
X4.08Y-4.2994
X4.18Y-4.1994
X4.18Y-4.2994
X4.28Y-4.1994
X4.28Y-4.2994
X4.4272Y-4.0992
X4.4272Y-4.1992
X4.4272Y-4.2992
T3
G00X4.1685Y-2.9419
M15
G01X4.188Y-2.9224
M16
G05
G00X4.3829Y-3.1172
M15
G01X4.3634Y-3.1367
M16
G05
T0
M30
